<svg width="108" height="129" viewBox="0 0 108 129" fill="none" xmlns="http://www.w3.org/2000/svg">
<path fill-rule="evenodd" clip-rule="evenodd" d="M53.6067 128.224C66.3345 128.224 77.8586 122.853 86.2002 114.173C94.5412 105.491 99.7016 93.4973 99.7016 80.2509C99.7016 67.0048 94.5412 55.0106 86.2002 46.3291C77.8586 37.6483 66.3345 32.2778 53.6067 32.2778C40.8792 32.2778 29.3546 37.6483 21.0131 46.3291C12.6721 55.0106 7.51196 67.0048 7.51196 80.2509C7.51196 93.4973 12.6721 105.491 21.0131 114.173C29.3546 122.853 40.8792 128.224 53.6067 128.224ZM84.7441 112.657C76.776 120.949 65.767 126.079 53.6067 126.079C41.4466 126.079 30.4372 120.949 22.4692 112.657C14.5019 104.364 9.5727 92.9068 9.5727 80.2509C9.5727 67.5956 14.5019 56.1372 22.4692 47.8445C30.4372 39.5526 41.4466 34.4226 53.6067 34.4226C65.767 34.4226 76.776 39.5526 84.7441 47.8445C92.7116 56.1372 97.6405 67.5956 97.6405 80.2509C97.6405 92.9068 92.7116 104.364 84.7441 112.657Z" fill="#1B1918"/>
<path fill-rule="evenodd" clip-rule="evenodd" d="M54.9381 100.441V54.1195H52.877V100.441L33.5624 80.338L32.1064 81.8534L53.8887 104.502L75.709 81.8534L74.2526 80.338L54.9381 100.441Z" fill="#1B1918"/>
<path fill-rule="evenodd" clip-rule="evenodd" d="M11.4111 14.4248V0.553233H9.37394L2.19531 10.6998C2.21581 10.2239 2.21575 9.6885 2.21575 9.17327V0.553233H0.0454102V14.4248H2.08247L9.2609 4.27916C9.2404 4.75418 9.24036 5.28945 9.24036 5.78459V14.4248H11.4111ZM23.9777 10.6595C23.9777 8.49919 22.569 7.44984 21.2745 7.13276C22.5304 6.69622 23.445 5.62634 23.445 4.02148C23.445 1.50502 21.3124 0.295654 18.3423 0.295654C16.8378 0.295654 15.4474 0.553358 14.0004 1.18717V3.40694C15.5239 2.65417 16.799 2.37645 18.17 2.39654C20.036 2.39654 21.2359 2.9117 21.2359 4.3385C21.2359 5.58641 20.1697 6.22112 18.5512 6.22112H15.8854V8.28186H18.7416C20.2651 8.28186 21.7695 8.71748 21.7695 10.3818C21.7695 12.1458 20.0747 12.5814 18.4369 12.5814C16.8755 12.6019 15.3713 12.3844 13.7722 11.5913V13.7909C15.3906 14.4248 16.9141 14.6823 18.6082 14.6823C21.1594 14.6823 23.9777 13.7113 23.9777 10.6595V10.6595ZM43.7994 17.5753V12.3239H42.1233V0.553233H39.9525V12.3239H33.0601V0.553233H30.8896V14.4248H41.8379L41.8174 17.5753H43.7994ZM46.0078 0.553233V14.4248H55.2999V12.3641H48.1783V8.45987H54.6143V6.39923H48.1783V2.61387H55.185V0.553233H46.0078ZM66.9907 0.553233V6.43855H59.9649V0.553233H57.7942V14.4248H59.9649V8.51931H66.9907V14.4248H69.1611V0.553233H66.9907ZM71.0464 0.553233V2.63399H75.4639V14.4248H77.6343V2.63399H82.0325V0.553233H71.0464ZM83.9177 0.553233V14.4248H86.0882V9.6684H88.6775C91.8389 9.6684 94.371 8.63824 94.371 5.11113C94.371 1.58344 91.8389 0.553233 88.6775 0.553233H83.9177ZM92.1619 5.11113C92.1619 7.13271 90.6199 7.60777 88.7922 7.60777H86.0882V2.61387H88.7922C90.6389 2.61387 92.1619 3.08982 92.1619 5.11113ZM96.2563 14.4248L97.4369 11.4325H104.12L105.301 14.4248H107.585L101.968 0.553233H99.5888L93.9524 14.4248H96.2563ZM100.522 3.52551C100.597 3.30818 100.674 3.08984 100.769 2.75267C100.864 3.08994 100.94 3.30807 101.017 3.52551L103.358 9.45097H98.179L100.522 3.52551Z" fill="#1B1918"/>
</svg>
