<svg width="279" height="83" viewBox="0 0 279 83" fill="none" xmlns="http://www.w3.org/2000/svg">
<path fill-rule="evenodd" clip-rule="evenodd" d="M88.4664 4.86673V21.2357H99.4309V18.8033H91.0279V14.197H98.622V11.7649H91.0279V7.29913H99.2961V4.86673H88.4664ZM101.566 9.02919C101.566 14.8287 110.553 13.2847 110.553 17.0734C110.553 18.6165 109.047 19.1077 107.026 19.1077C105.228 19.1077 103.341 18.6397 101.633 17.4946V20.113C103.184 21.0254 105.093 21.5398 107.205 21.5398C110.351 21.5637 113.159 20.3705 113.159 16.9329C113.159 11.0866 104.172 12.5135 104.172 8.98268C104.172 7.57908 105.386 6.99483 107.295 6.99483C108.981 6.97091 110.733 7.46278 112.014 8.35114V5.80246C110.733 5.03042 108.89 4.56274 107.093 4.56274C104.127 4.56274 101.566 6.01277 101.566 9.02919V9.02919ZM115.743 4.86673V21.2357H126.708V18.8033H118.305V14.197H125.899V11.7649H118.305V7.29913H126.573V4.86673H115.743ZM132.236 21.2357V11.0403C132.236 10.4551 132.236 9.82435 132.215 9.26267L140.685 21.2357H143.089V4.86673H140.529V15.039C140.529 15.6474 140.529 16.2781 140.55 16.8398L132.078 4.86673H129.674V21.2357H132.236ZM145.312 4.86673V7.32239H150.525V21.2357H153.086V7.32239H158.277V4.86673H145.312ZM159.624 21.2357L161.017 17.7049H168.904L170.297 21.2357H172.993L166.365 4.86673H163.556L156.906 21.2357H159.624ZM164.657 8.37429C164.747 8.11664 164.837 7.85993 164.949 7.46275C165.062 7.85993 165.151 8.11667 165.242 8.37429L168.005 15.3663H161.894L164.657 8.37429ZM175.038 4.86673V21.2357H177.599V4.86673H175.038ZM200.99 4.86673L195.013 14.2438L189.036 4.86673H186.722V21.2357H189.283V9.75385L194.249 17.5411H195.776L200.742 9.7771V21.2357H203.304V4.86673H200.99ZM208.067 21.2357L209.46 17.7049H217.347L218.739 21.2357H221.436L214.808 4.86673H211.999L205.349 21.2357H208.067ZM213.1 8.37429C213.19 8.11664 213.28 7.85993 213.392 7.46275C213.505 7.85993 213.594 8.11667 213.684 8.37429L216.448 15.3663H210.337L213.1 8.37429ZM223.481 4.86673V21.2357H234.31V18.7569H226.042V4.86673H223.481ZM236.535 4.86673V21.2357H247.364V18.7569H239.096V4.86673H236.535ZM99.3192 29.9274V36.8729H91.0279V29.9274H88.4664V46.2964H91.0279V39.3277H99.3192V46.2964H101.88V29.9274H99.3192ZM114.305 43.7004V39.6784C114.305 36.2877 112.373 34.7681 109.317 34.7681C107.587 34.7681 106.037 35.2125 105.183 35.516V37.8076C106.149 37.364 107.475 36.9428 109.07 36.9428C110.912 36.9428 111.901 37.9249 111.901 39.3277V39.7256C111.047 39.5387 110.014 39.3983 109.092 39.3983C106.846 39.3983 104.284 40.2866 104.284 43.1626C104.284 45.4778 106.104 46.6006 108.059 46.6006C109.744 46.6006 111.069 46.0387 112.126 45.1503C112.507 46.0627 113.294 46.4599 114.282 46.4599C114.822 46.4599 115.361 46.3662 115.811 46.179V44.379C115.586 44.4491 115.339 44.5188 115.092 44.5188C114.665 44.5188 114.305 44.3319 114.305 43.7004V43.7004ZM109.564 41.1516C110.328 41.1516 111.25 41.2921 111.901 41.4325V43.3264C111.047 44.2156 109.923 44.6592 108.778 44.6592C107.699 44.6592 106.756 44.0984 106.756 42.9992C106.756 41.5964 108.194 41.1517 109.564 41.1517V41.1516ZM119.923 46.2964V35.0721H117.518V46.2964H119.923ZM120.191 31.4241C120.191 30.4417 119.518 29.9507 118.731 29.9507C117.945 29.9507 117.249 30.4417 117.249 31.4241C117.249 32.4528 117.945 32.9205 118.731 32.9205C119.518 32.9205 120.191 32.4528 120.191 31.4241ZM123.023 29.2261V46.2964H125.427V29.2261H123.023ZM127.808 40.6839C127.808 44.6359 130.617 46.6007 133.919 46.6007C135.426 46.6007 136.796 46.3194 137.784 45.8287V43.6771C136.863 44.1448 135.672 44.4724 134.369 44.4724C132.392 44.4724 130.505 43.6305 130.235 41.6196H138.346C139.043 38.3697 137.56 34.7681 133.268 34.7681C130.774 34.7681 127.808 36.6152 127.808 40.6839ZM136.189 39.7489H130.212C130.302 37.8544 131.763 36.8489 133.381 36.8489C135.74 36.8489 136.324 38.7668 136.189 39.7489ZM145.244 43.5366L141.604 35.0721H139.043L144.165 46.3903L143.94 46.9512C143.312 48.7047 142.435 49.5707 141.267 49.5707C140.908 49.5707 140.525 49.5232 140.166 49.4066V51.5341C140.638 51.6513 141.11 51.721 141.582 51.721C143.222 51.721 144.75 50.7398 145.918 47.8163L150.973 35.0721H148.457L145.244 43.5366ZM152.77 29.9274V46.2964H154.905V44.5188C155.759 45.6183 157.04 46.6007 159.062 46.6007C162.298 46.6007 164.41 43.9115 164.41 40.6839C164.41 37.4571 162.298 34.7681 159.062 34.7681C157.175 34.7681 155.916 35.6564 155.175 36.5212V29.9274H152.77ZM161.961 40.6839C161.961 42.8827 160.567 44.4024 158.613 44.4024C156.95 44.4024 155.692 43.2799 155.175 42.0408V39.3044C155.692 38.0885 156.95 36.9661 158.613 36.9661C160.567 36.9661 161.961 38.4859 161.961 40.6839ZM174.565 35.0721V42.5079C173.958 43.4203 172.925 44.3791 171.554 44.3791C169.959 44.3791 169.038 43.5134 169.038 41.6892V35.0721H166.634V42.0167C166.634 44.6826 168.23 46.6007 171.082 46.6007C172.723 46.6007 174.049 45.7356 174.835 44.7532V46.2964H176.969V35.0721H174.565ZM182.115 36.9194V35.0721H179.98V46.2964H182.384V39.4912C183.035 37.9016 184.721 37.0125 186.653 37.2933V34.8377C184.699 34.6507 182.946 35.5401 182.115 36.9194V36.9194ZM193.327 43.5366L189.686 35.0721H187.125L192.248 46.3903L192.023 46.9512C191.394 48.7047 190.518 49.5707 189.349 49.5707C188.99 49.5707 188.608 49.5232 188.249 49.4066V51.5341C188.72 51.6513 189.192 51.721 189.664 51.721C191.304 51.721 192.833 50.7398 194.001 47.8163L199.056 35.0721H196.54L193.327 43.5366ZM206.224 46.2964L207.616 42.7656H215.503L216.896 46.2964H219.592L212.964 29.9274H210.155L203.505 46.2964H206.224ZM211.256 33.435C211.346 33.1773 211.436 32.9206 211.548 32.5234C211.661 32.9206 211.75 33.1773 211.841 33.435L214.604 40.4271H208.493L211.256 33.435ZM221.277 29.2261V46.2964H223.682V29.2261H221.277ZM229.141 46.2964V38.7201C229.703 37.9716 230.692 36.9892 231.995 36.9892C233.298 36.9892 234.129 37.9016 234.129 39.3508V46.2964H236.533V39.2812C236.533 39.0235 236.513 38.7668 236.489 38.5092C237.051 37.8077 237.971 36.9892 239.163 36.9892C240.466 36.9892 241.297 37.9016 241.297 39.3508V46.2964H243.701V39.2812C243.701 36.966 242.465 34.7681 239.612 34.7681C238.039 34.7681 236.781 35.5865 235.837 36.5689C235.208 35.4693 234.084 34.7681 232.467 34.7681C230.714 34.7681 229.456 35.7968 228.872 36.4748V35.0721H226.737V46.2964H229.141ZM255.789 43.7004V39.6784C255.789 36.2877 253.857 34.7681 250.802 34.7681C249.071 34.7681 247.521 35.2125 246.667 35.516V37.8076C247.633 37.364 248.959 36.9428 250.554 36.9428C252.396 36.9428 253.385 37.9249 253.385 39.3277V39.7256C252.531 39.5387 251.498 39.3983 250.576 39.3983C248.33 39.3983 245.768 40.2866 245.768 43.1626C245.768 45.4778 247.589 46.6006 249.543 46.6006C251.228 46.6006 252.553 46.0387 253.61 45.1503C253.991 46.0627 254.778 46.4599 255.766 46.4599C256.306 46.4599 256.845 46.3662 257.295 46.179V44.379C257.07 44.4491 256.823 44.5188 256.576 44.5188C256.149 44.5188 255.789 44.3319 255.789 43.7004V43.7004ZM251.048 41.1516C251.812 41.1516 252.734 41.2921 253.385 41.4325V43.3264C252.531 44.2156 251.408 44.6592 250.262 44.6592C249.183 44.6592 248.24 44.0984 248.24 42.9992C248.24 41.5964 249.678 41.1517 251.048 41.1517V41.1516ZM259.631 31.6817V35.0721H257.699V37.2701H259.631V42.8828C259.631 45.5011 261.249 46.5771 263.338 46.5771C264.395 46.5771 265.428 46.3902 266.237 46.0859V43.9348C265.563 44.2157 264.844 44.3791 264.058 44.3791C262.664 44.3791 262.013 43.888 262.013 42.4148V37.2701H265.922V35.0721H262.013V31.0734L259.631 31.6817ZM273.045 43.5366L269.405 35.0721H266.844L271.966 46.3903L271.741 46.9512C271.113 48.7047 270.236 49.5707 269.068 49.5707C268.709 49.5707 268.326 49.5232 267.967 49.4066V51.5341C268.439 51.6513 268.911 51.721 269.382 51.721C271.023 51.721 272.551 50.7398 273.719 47.8163L278.774 35.0721H276.258L273.045 43.5366ZM105.192 63.52C105.192 58.957 101.479 56.601 96.4931 56.601C93.523 56.601 90.7996 57.3377 88.6428 58.5519V63.6677C91.0115 62.1583 93.5929 61.4222 95.7505 61.4222C98.6496 61.4222 100.17 62.4895 100.17 64.2928C100.17 66.0228 98.7206 66.9426 96.3511 66.9426L93.028 66.9064L92.9924 71.6171H96.9527C99.3575 71.6171 101.126 72.39 101.126 74.5245C101.126 76.8796 98.8624 77.7993 96.139 77.7993C93.3811 77.8362 90.9414 77.432 88.218 75.8495V80.9644C90.9414 82.1424 93.4521 82.6576 96.5639 82.6576C101.514 82.6576 106.182 80.5599 106.182 75.2971C106.182 71.6171 103.989 69.6662 101.55 68.8934C103.813 68.0837 105.192 66.0967 105.192 63.52H105.192ZM122.483 82.1424V75.1496H124.464L129.344 82.1424H134.86L128.531 73.1996L134.365 64.4774H128.848L124.534 71.0651H122.483V64.4774H117.568V82.1424H122.483ZM141.72 82.1424V71.7269L145.716 78.3146H148.156L152.152 71.7269V82.1424H156.89V64.4774H152.223L146.919 73.2364L141.649 64.4774H136.947V82.1424H141.72Z" fill="#1B1918"/>
<path fill-rule="evenodd" clip-rule="evenodd" d="M5.33335 28.6484H62.9212V31.4235H5.33335L30.3257 57.4329L28.4414 59.3938L0.283447 30.0613L28.4414 0.678101L30.3257 2.63904L5.33335 28.6484Z" fill="#1B1918"/>
</svg>
