<svg width="86" height="89" viewBox="0 0 86 89" fill="none" xmlns="http://www.w3.org/2000/svg">
<rect width="85.1515" height="88.6213" rx="42.5758" fill="url(#paint0_linear)"/>
<path fill-rule="evenodd" clip-rule="evenodd" d="M37.5419 66.979C37.5419 63.9028 35.1441 61.4062 32.1883 61.4062C29.2329 61.4062 26.8355 63.9028 26.8355 66.979C26.8355 70.0553 29.2329 72.5508 32.1883 72.5508C35.1441 72.5508 37.5419 70.0553 37.5419 66.979ZM43.2609 32.7507C44.0013 32.4944 44.803 32.9163 45.0556 33.6857L47.7651 41.9122C48.0177 42.6806 47.6076 43.5229 46.8668 43.7805C46.1268 44.0368 45.3246 43.6145 45.0708 42.8456L42.3633 34.6186C42.1087 33.8497 42.5199 33.0069 43.2609 32.7507V32.7507ZM37.2052 32.3597C37.9461 32.1018 38.7503 32.5247 39.0008 33.2938L41.9849 42.461C42.2359 43.2302 41.8284 44.0707 41.0873 44.3288C40.3457 44.5856 39.5423 44.1623 39.2927 43.393L36.3069 34.2275C36.0559 33.4587 36.4655 32.6159 37.2052 32.3597V32.3597ZM30.7703 31.9422C31.5112 31.6849 32.3141 32.1083 32.5658 32.8772L35.9086 43.1454C36.1585 43.916 35.751 44.7578 35.0101 45.0141C34.2701 45.2704 33.4651 44.8491 33.2155 44.0791L29.872 33.8104C29.622 33.0411 30.0306 32.1989 30.7703 31.9422V31.9422ZM34.1261 49.0364C33.5069 50.6476 32.576 52.2204 33.6427 53.8904L33.6461 53.901L33.6498 53.9053C34.146 54.7581 35.0217 55.2913 35.9662 55.3256H60.9009C61.8048 55.3256 62.5363 56.088 62.5363 57.0265C62.5363 57.9664 61.8048 58.7286 60.9009 58.7286H35.9598H35.9556C33.8999 58.6633 32.0014 57.5585 30.8736 55.7667C29.2728 53.1239 29.8413 50.9355 30.8577 48.2325L24.0541 26.7018C23.6487 25.4806 22.5554 24.651 21.3221 24.622H17.0379C16.1349 24.622 15.4033 23.8595 15.4033 22.921C15.4033 21.9811 16.1349 21.2197 17.0379 21.2197H21.3259C23.981 21.2569 26.326 23.0405 27.1585 25.6653L27.8503 27.8491C27.8546 27.865 63.2258 30.1759 66.4609 30.3891L63.6736 42.6154C63.1987 44.6964 61.5063 46.2337 59.4624 46.4248L34.1261 49.0364ZM60.1928 66.9792C60.1928 63.903 57.795 61.4065 54.8383 61.4065C51.8816 61.4065 49.4855 63.903 49.4855 66.9792C49.4855 70.0554 51.8816 72.551 54.8383 72.551C57.795 72.551 60.1928 70.0554 60.1928 66.9792Z" fill="white"/>
<defs>
<linearGradient id="paint0_linear" x1="-0.352779" y1="88.5362" x2="86.6355" y2="6.08322" gradientUnits="userSpaceOnUse">
<stop stop-color="#E69230"/>
<stop offset="1" stop-color="#D8B354"/>
</linearGradient>
</defs>
</svg>
