<svg width="85" height="88" viewBox="0 0 85 88" fill="none" xmlns="http://www.w3.org/2000/svg">
<rect width="84.1374" height="87.5658" rx="42.0687" fill="url(#paint0_linear)"/>
<path fill-rule="evenodd" clip-rule="evenodd" d="M15.9814 42.8396H28.2803V50.3065H15.9814V42.8396ZM43.654 35.9063C43.654 35.0228 42.9656 34.3067 42.1166 34.3067C41.2676 34.3067 40.5791 35.0228 40.5791 35.9063C40.5791 36.7899 41.2676 37.5065 42.1166 37.5065C42.9656 37.5065 43.654 36.7899 43.654 35.9063ZM52.0581 30.9997L43.654 24.4397V21.8268H44.6787C48.0649 21.8268 50.8205 18.9637 50.8282 15.4417C50.8302 14.5533 50.1443 13.8267 49.2906 13.8267H42.1166C41.2676 13.8267 40.5791 14.5428 40.5791 15.4268V21.8268V24.4401L32.175 31.0001C31.6587 31.4028 31.3552 32.0349 31.3552 32.7066V68.4396H34.4297V62.0395C34.4297 57.6287 37.878 54.0399 42.1166 54.0399C46.3552 54.0399 49.8034 57.6287 49.8034 62.0395V68.4396H52.8779V32.7066C52.8779 32.0349 52.5744 31.4028 52.0581 30.9997ZM37.5046 48.4399C37.5046 49.3235 36.8161 50.0396 35.9671 50.0396C35.1182 50.0396 34.4297 49.3235 34.4297 48.4399V45.2397C34.4297 44.3562 35.1182 43.6396 35.9671 43.6396C36.8161 43.6396 37.5046 44.3562 37.5046 45.2397V48.4399ZM43.654 48.4399C43.654 49.3235 42.9656 50.0396 42.1166 50.0396C41.2676 50.0396 40.5791 49.3235 40.5791 48.4399V45.2397C40.5791 44.3562 41.2676 43.6396 42.1166 43.6396C42.9656 43.6396 43.654 44.3562 43.654 45.2397V48.4399ZM42.1166 40.7067C39.5734 40.7067 37.5046 38.5531 37.5046 35.9063C37.5046 33.2596 39.5734 31.1065 42.1166 31.1065C44.6597 31.1065 46.7285 33.2596 46.7285 35.9063C46.7285 38.5531 44.6597 40.7067 42.1166 40.7067ZM49.8034 48.4399C49.8034 49.3235 49.115 50.0396 48.266 50.0396C47.417 50.0396 46.7285 49.3235 46.7285 48.4399V45.2397C46.7285 44.3562 47.417 43.6396 48.266 43.6396C49.115 43.6396 49.8034 44.3562 49.8034 45.2397V48.4399ZM37.5046 62.0395V68.4396H40.5791V57.5149C38.7899 58.1755 37.5046 59.9537 37.5046 62.0395ZM43.654 57.5149V68.4396H46.7285V62.0395C46.7285 59.9537 45.4432 58.1755 43.654 57.5149ZM63.6393 68.4396H64.835H66.7142C67.5632 68.4396 68.2516 67.7234 68.2516 66.8399V53.5062H64.835H60.5648H56.73H55.9528V66.8399V68.4396H60.5648H63.6393ZM55.9528 42.8396H68.2516V50.3065H55.9528V42.8396ZM66.7142 34.8399H55.9528V39.6398H68.2516V36.4396C68.2516 35.556 67.5632 34.8399 66.7142 34.8399ZM15.9814 66.8399C15.9814 67.7234 16.6699 68.4396 17.5189 68.4396H20.5938H23.6684H28.2803V53.5062H25.9745H20.5938H19.3297H15.9814V66.8399ZM15.9814 36.4396V39.6398H28.2803V34.8399H17.5189C16.6699 34.8399 15.9814 35.5561 15.9814 36.4401V36.4396Z" fill="white"/>
<defs>
<linearGradient id="paint0_linear" x1="-0.348577" y1="87.4818" x2="85.6037" y2="6.01079" gradientUnits="userSpaceOnUse">
<stop stop-color="#18D5FF"/>
<stop offset="1" stop-color="#07B0C7"/>
</linearGradient>
</defs>
</svg>
