<svg id="Layer_1" xmlns="http://www.w3.org/2000/svg" viewBox="0 0 356.1 91.6"><style>.st0{fill:#7ab92d}.st1{fill:#fff}</style><path class="st0" d="M125.3 80.5c0-3.2 1.1-5.8 3.2-8 2.1-2.1 4.8-3.2 8.1-3.2s6 1.1 8.1 3.2c2.1 2.1 3.2 4.8 3.2 8 0 2.6-.8 4.9-2.4 6.9l2.5 2.2-2.3 2.5-2.4-2.4c-1.9 1.4-4.1 2.2-6.7 2.2-3.3 0-6-1.1-8.1-3.3-2.1-2.2-3.2-4.9-3.2-8.1zm4.1 0c0 2.2.7 4.1 2.1 5.6 1.4 1.5 3.1 2.2 5.2 2.2 1.5 0 2.8-.4 3.8-1.2l-2.4-2.3 2.3-2.5 2.4 2.4c.8-1.3 1.2-2.7 1.2-4.2 0-2.2-.7-4-2.1-5.4-1.4-1.4-3.1-2.2-5.2-2.2s-3.8.7-5.2 2.2c-1.4 1.4-2.1 3.2-2.1 5.4zm28.5 3.2v-14h4v14c0 1.5.4 2.6 1.3 3.4.9.8 2.1 1.2 3.5 1.2 1.5 0 2.7-.4 3.5-1.2.9-.8 1.3-1.9 1.3-3.4v-14h4v14c0 2.4-.8 4.4-2.4 6-1.6 1.5-3.7 2.3-6.4 2.3s-4.8-.8-6.4-2.3c-1.6-1.6-2.4-3.5-2.4-6zm28.9 7.9V69.7h7.2c1.9 0 3.2.2 4.1.6 1.2.5 2.1 1.2 2.7 2.3.7 1 1 2.3 1 3.7 0 1.3-.3 2.6-1 3.7s-1.6 1.9-2.7 2.3v.1c.2.2.4.6.7 1.1l4.5 8.1h-4.5l-4.3-8.2h-3.8v8.2h-3.9zm3.9-11.7h3.6c1.1 0 1.9-.3 2.5-.9.6-.6.9-1.5.9-2.5 0-1.5-.6-2.5-1.7-3-.6-.2-1.4-.4-2.4-.4h-2.9v6.8zm26 11.7v-9.2l-7.3-12.7h4.5l3.4 6.4 1.3 2.9h.1c.4-1 .9-2 1.3-2.9l3.4-6.4h4.5l-7.3 12.7v9.2h-3.9zm20.1 0V69.7h4v18.5h9.5v3.4h-13.5zm24.9 0v-9.2l-7.3-12.7h4.5l3.4 6.4 1.3 2.9h.1c.4-1 .9-2 1.3-2.9l3.4-6.4h4.5l-7.3 12.7v9.2h-3.9zm18.1-2.6l2.2-3c.7.6 1.6 1.2 2.5 1.6 1 .5 1.9.7 2.9.7s1.8-.2 2.3-.7c.6-.5.9-1.1.9-1.8 0-.8-.3-1.4-1-2-.7-.6-1.5-1-2.5-1.5-1-.4-2-.9-3-1.4-1-.5-1.9-1.2-2.6-2.1-.7-.9-1-2-1-3.2 0-1.9.7-3.4 2.1-4.6 1.4-1.2 3.2-1.8 5.4-1.8 2.6 0 4.7.8 6.4 2.3l-1.8 3.2c-.6-.6-1.4-1-2.2-1.4-.9-.4-1.7-.5-2.6-.5-1 0-1.8.2-2.4.7-.6.5-.9 1.1-.9 1.8s.3 1.4 1 1.9 1.5 1 2.5 1.4c1 .4 2 .8 3 1.3s1.9 1.2 2.6 2.1c.7.9 1 2 1 3.3 0 1.9-.6 3.4-1.9 4.6-1.3 1.2-3.1 1.9-5.3 1.9-1.4 0-2.8-.3-4.1-.8-1.4-.3-2.6-1.1-3.5-2z"/><path class="st1" d="M151.2 53.1h-17.9c-3.1 0-5.5-.8-7.2-2.3-1.9-1.6-2.8-3.9-2.8-6.9V19.5c0-3 .8-5.3 2.5-7 1.7-1.7 4-2.6 7-2.6h18.5v6.2H135c-3.6 0-5.4 1.6-5.4 4.9v7.4h21.7v6.2h-21.7V42c0 3.3 1.8 4.9 5.5 4.9h16.2v6.2h-.1zm32.7 0h-6.6l-7.9-11.3-7.9 11.3h-6.6l11.4-16.7-10.7-15.7h6.5l7.2 10.4 7.3-10.4h6.6l-10.6 15.7 11.3 16.7zm24.1 0h-12.6c-6 0-9.1-2.9-9.1-8.6V28.9c0-5.4 2.5-8.2 7.6-8.2h13.9v5.4h-11.6c-1.6 0-2.8.3-3.4.9-.7.6-1 1.7-1 3.3v12.9c0 2.9 1.6 4.3 4.7 4.3H208v5.6zm10.2 0h-5.5V9.2h5.5v43.9zm32.5-8.1c0 5.4-2.9 8.2-8.7 8.2h-9.5c-5.8 0-8.7-2.7-8.7-8.2V20.7h5.5v22.7c0 1.3.4 2.4 1.2 3.2.7.6 1.9 1 3.8 1h6c3.3 0 5-1.4 5-4.1V20.7h5.5V45h-.1zM280 26.1h-14.6c-1.3 0-2.3.2-3 .7-.9.6-1.4 1.4-1.4 2.5v1.3c0 2.3 1.5 3.4 4.5 3.4h7.2c2.1 0 3.9.7 5.2 2.1 1.4 1.4 2 3.2 2 5.3v4.1c0 2-.7 3.8-2.1 5.4-.8.9-1.7 1.6-2.6 1.9-.7.2-1.8.3-3.2.3h-16.6v-5.6h15.1c1.5 0 2.6-.4 3.1-1.3.4-.6.6-1.7.6-3.4 0-2.2-1.2-3.4-3.6-3.4h-6.9c-2.3 0-4.3-.6-5.8-1.9-1.7-1.3-2.5-3.1-2.5-5.4V28c0-2.4 1-4.4 2.9-5.9 1.2-.9 3-1.4 5.4-1.4H280v5.4zm10.5 27H285V20.7h5.5v32.4zm.8-41c0 1-.4 1.9-1.1 2.6-.7.7-1.6 1.1-2.6 1.1s-1.8-.4-2.6-1.1c-.7-.7-1.1-1.6-1.1-2.6s.3-1.9 1-2.7c.7-.7 1.6-1.1 2.6-1.1s1.9.4 2.6 1.1c.9.8 1.2 1.7 1.2 2.7zm35.3 8.6l-12.5 30.2c-.7 1.8-2 2.7-3.8 2.7-1.8 0-3-.9-3.8-2.7L294 20.7h5.8L310.3 46l10.6-25.3h5.7zm23.8 9.6v-.5c0-2.4-1.5-3.6-4.4-3.6h-6.1c-3.4 0-5.1 1.4-5.1 4.2v6.4l15.6-6.5zm5.7 3.2l-21.3 8.7v1c0 1.7.5 3 1.4 3.7.6.5 1.8.8 3.4.8h16.5v5.6h-17.5c-3 0-5.3-.6-6.7-1.8-1.8-1.5-2.7-3.8-2.7-7V29c0-5.5 3-8.3 8.9-8.3h9.8c5.5 0 8.3 2.9 8.3 8.7v4.1h-.1zM.4 0v14.5L27.5 8l3.7 15.6L.4 31v7.9L28 32.3l3.8 15.6L.4 55.4v8l41-9.9 3.7 15.6 47.2-18.2V0z"/><path class="st0" d="M92.3 50.9L45.1 69.1.4 79.7v12.2h91.9z"/></svg>