<?xml version="1.0" encoding="iso-8859-1"?>
<!-- Generator: Adobe Illustrator 19.0.0, SVG Export Plug-In . SVG Version: 6.00 Build 0)  -->
<svg version="1.1" id="Capa_1" xmlns="http://www.w3.org/2000/svg" xmlns:xlink="http://www.w3.org/1999/xlink" x="0px" y="0px"
	 viewBox="0 0 512 512" style="enable-background:new 0 0 512 512;" xml:space="preserve">
<rect x="32.869" y="273.673" transform="matrix(-0.9166 0.3998 -0.3998 -0.9166 641.6436 443.4662)" style="fill:#B39A7C;" width="483.399" height="29.965"/>
<g>
	<path style="fill:#F4511E;" d="M149.567,326.841L47.03,371.563L8.898,284.135c-0.933-2.147-1.384-4.384-1.384-6.581
		c0-6.35,3.702-12.41,9.902-15.108c8.347-3.642,18.058,0.171,21.689,8.517l24.157,55.386l44.863-19.572
		c10.132-4.414,21.368-2.789,29.685,3.301c4.143,3.02,7.564,7.153,9.761,12.189L149.567,326.841z"/>
	<path style="fill:#F4511E;" d="M490.121,178.307L387.585,223.03l-1.996-4.575c-2.197-5.046-2.899-10.363-2.297-15.449
		c1.204-10.233,7.664-19.582,17.787-23.996l44.853-19.562l-24.157-55.386c-3.642-8.347,0.181-18.058,8.517-21.699
		c2.147-0.933,4.374-1.374,6.581-1.374c6.35,0,12.41,3.692,15.118,9.892L490.121,178.307z"/>
</g>
<path style="fill:#A78966;" d="M340.976,276.049l-139.936,61.034v-32.694l129.974-56.691
	C336.241,256.135,339.732,265.746,340.976,276.049z"/>
<path style="fill:#B39A7C;" d="M321.424,284.546v109.348h-100.32V284.546c0-27.708,22.462-50.16,50.16-50.16
	S321.424,256.838,321.424,284.546z"/>
<rect x="221.104" y="373.831" style="fill:#A78966;" width="100.32" height="20.064"/>
<g>
	<rect x="201.041" y="393.885" style="fill:#B0BEC5;" width="140.447" height="37.118"/>
	<circle style="fill:#B0BEC5;" cx="271.264" cy="287.045" r="20.064"/>
</g>
<path style="fill:#90A4AE;" d="M271.264,288.649c7.088,0,13.302,3.684,16.872,9.232c2.011-3.126,3.192-6.838,3.192-10.832
	c0-11.081-8.983-20.064-20.064-20.064c-11.081,0-20.064,8.983-20.064,20.064c0,3.994,1.181,7.706,3.192,10.832
	C257.962,292.334,264.177,288.649,271.264,288.649z"/>
<g>
	<path style="fill:#D84315;" d="M147.57,322.266l1.996,4.575L47.03,371.563l-8.026-18.399l98.805-43.087
		C141.952,313.097,145.373,317.23,147.57,322.266z"/>
	<path style="fill:#D84315;" d="M490.121,178.307L387.585,223.03l-1.996-4.575c-2.197-5.046-2.899-10.363-2.297-15.449
		l98.805-43.087L490.121,178.307z"/>
</g>
<path d="M349.012,386.366h-20.064v-96.897L512,209.664L458.883,87.875c-5.291-12.132-19.465-17.696-31.598-12.406
	c-5.877,2.563-10.404,7.261-12.748,13.23c-2.343,5.969-2.222,12.492,0.341,18.369l21.149,48.488l-37.962,16.557
	c-9.178,4.003-16.248,11.34-19.907,20.661c-3.349,8.53-3.464,17.785-0.392,26.329l-63.09,27.517
	c-10.582-12.099-26.114-19.763-43.412-19.763c-31.807,0-57.684,25.876-57.684,57.684v6.173l-60.216,26.264
	c-8.992-17.345-30.084-25.016-48.249-17.092l-37.962,16.557l-21.148-48.489c-2.564-5.877-7.262-10.404-13.23-12.747
	c-5.967-2.343-12.492-2.223-18.368,0.341C2.275,260.838-3.29,275.013,2.001,287.144l53.119,121.788l158.46-69.113v46.546h-20.064
	v37.118h-31.099v15.048h217.693v-15.048h-31.099V386.366z M392.166,198.274c2.19-5.579,6.421-9.971,11.915-12.367l51.756-22.573
	l-27.165-62.282c-0.957-2.193-1.002-4.627-0.127-6.853c0.874-2.227,2.563-3.98,4.755-4.936c1.163-0.507,2.374-0.746,3.568-0.746
	c3.455,0,6.754,2.01,8.22,5.375l35.124,80.531l-88.61,38.647C390.103,208.229,390.287,203.06,392.166,198.274z M20.423,269.339
	c1.149-0.501,2.362-0.751,3.577-0.751c1.108,0,2.215,0.208,3.275,0.624c2.227,0.875,3.98,2.563,4.936,4.756l27.166,62.282
	l51.754-22.573c10.559-4.605,22.77-0.415,28.397,9.335l-88.609,38.647l-35.124-80.531C13.821,276.603,15.897,271.315,20.423,269.339
	z M486.229,188.215l5.961,13.67L327.879,273.52c-0.968-4.981-2.572-9.737-4.736-14.174L486.229,188.215z M62.897,389.123
	l-5.962-13.671l102.533-44.719l0,0l54.113-23.601v16.272L62.897,389.123z M228.628,284.542c0-23.51,19.126-42.636,42.636-42.636
	s42.636,19.126,42.636,42.636v101.824h-85.272V284.542z M208.564,423.484v-22.07h125.399v22.07H208.564z"/>
<path d="M271.264,259.462c-15.211,0-27.588,12.375-27.588,27.588s12.376,27.588,27.588,27.588s27.588-12.375,27.588-27.588
	S286.476,259.462,271.264,259.462z M271.264,299.59c-6.915,0-12.54-5.625-12.54-12.54s5.625-12.54,12.54-12.54
	c6.915,0,12.54,5.625,12.54,12.54S278.179,299.59,271.264,299.59z"/>
<rect x="132.322" y="423.479" width="15.048" height="15.048"/>
<rect x="395.159" y="423.479" width="15.048" height="15.048"/>
<rect x="244.68" y="327.775" style="fill:#FFFFFF;" width="15.048" height="42.134"/>
<g>
</g>
<g>
</g>
<g>
</g>
<g>
</g>
<g>
</g>
<g>
</g>
<g>
</g>
<g>
</g>
<g>
</g>
<g>
</g>
<g>
</g>
<g>
</g>
<g>
</g>
<g>
</g>
<g>
</g>
</svg>
