<svg height="512" viewBox="0 0 45 58" width="512" xmlns="http://www.w3.org/2000/svg"><g id="Page-1" fill="none" fill-rule="evenodd"><g id="026---Services" fill-rule="nonzero" transform="translate(0 -1)"><path id="Shape" d="m25 3.5v22.5c-.0009934 2.7610122-2.2389878 4.9990066-5 5-.795975-.0010634-1.5596548.3146656-2.1224946.8775054s-.8785688 1.3265196-.8775054 2.1224946v21.5c-.0020943 1.9321285-1.5678715 3.4979057-3.5 3.5h-2c-1.93212846-.0020943-3.49790567-1.5678715-3.5-3.5v-21.5c-.00247817-1.6558267-1.34417333-2.9975218-3-3-2.76101215-.0009934-4.99900657-2.2389878-5-5v-22.34c-.01112128-.70708703.26417388-1.38862042.76327915-1.88960912.49910528-.50098869 1.17959695-.77884886 1.88672085-.77039088 1.32180971.07944957 2.35238557 1.17580687 2.35 2.5v17.5c.00159279.5516236.44837635.9984072 1 1h3c.55162365-.0015928.99840721-.4483764 1-1v-17.34c-.01833303-1.41498123 1.0866013-2.59063133 2.5-2.66h.15c1.3218097.07944957 2.3523856 1.17580687 2.35 2.5v17.5c.0015928.5516236.4483764.9984072 1 1h3c.5516236-.0015928.9984072-.4483764 1-1v-17.34c-.0111213-.70708703.2641739-1.38862042.7632792-1.88960912.4991052-.50098869 1.1795969-.77884886 1.8867208-.77039088 1.3218097.07944957 2.3523856 1.17580687 2.35 2.5z" fill="#285680"/><path id="Shape" d="m35.97 38.9843v16.5157c0 .9282577.3687489 1.8184964 1.0251263 2.4748737.6563773.6563774 1.546616 1.0251263 2.4748737 1.0251263h2c.9282577 0 1.8184964-.3687489 2.4748737-1.0251263.6563774-.6563773 1.0251263-1.546616 1.0251263-2.4748737v-36l.03-17.5c-.0013288-.34506601-.178733-.66557322-.4704365-.84991362-.2917035-.18434041-.6573314-.20699932-.9695635-.06008638-2.5497126 1.36240487-4.7555276 3.28779062-6.45 5.63-2.1678741 2.8011952-3.6074807 6.096142-4.19 9.59l-.12.71-.12.71c-.2381089 1.3467091-.3519211 2.712455-.34 4.08.0110429 1.3649868.1381677 2.7265611.38 4.07.7185978 3.7936843 1.6983286 7.5332138 2.9322 11.1919.2089827.616004.316319 1.2619137.3178 1.9124z" fill="#4482c3"/></g></g></svg>