<svg width="172" height="45" viewBox="0 0 172 45" fill="none" xmlns="http://www.w3.org/2000/svg">
<g clip-path="url(#clip0)">
<path d="M60.5212 39.5469C60.5212 37.9749 61.0525 36.6976 62.0668 35.6168C63.0811 34.5851 64.3853 34.0447 65.9792 34.0447C67.5731 34.0447 68.8773 34.5851 69.8916 35.6168C70.9059 36.6484 71.4372 37.9749 71.4372 39.5469C71.4372 40.8242 71.0508 41.9541 70.278 42.9367L71.4855 44.0174L70.3746 45.2456L69.2154 44.0666C68.2976 44.7543 67.235 45.1474 65.9792 45.1474C64.3853 45.1474 63.0811 44.607 62.0668 43.5262C61.0525 42.4454 60.5212 41.119 60.5212 39.5469ZM62.5015 39.5469C62.5015 40.6277 62.8396 41.5611 63.5158 42.298C64.1921 43.0349 65.0132 43.3788 66.0275 43.3788C66.752 43.3788 67.3799 43.1823 67.8629 42.7893L66.7037 41.6594L67.8146 40.4312L68.9739 41.6102C69.3603 40.9716 69.5535 40.2838 69.5535 39.5469C69.5535 38.4661 69.2154 37.5818 68.5391 36.8941C67.8629 36.2063 67.0418 35.8133 66.0275 35.8133C65.0132 35.8133 64.1921 36.1572 63.5158 36.8941C62.8396 37.5818 62.5015 38.4661 62.5015 39.5469ZM76.2673 41.119V34.2412H78.1994V41.119C78.1994 41.8559 78.3926 42.3963 78.8273 42.7893C79.262 43.1823 79.8416 43.3788 80.5178 43.3788C81.2423 43.3788 81.8219 43.1823 82.2083 42.7893C82.6431 42.3963 82.8363 41.8559 82.8363 41.119V34.2412H84.7683V41.119C84.7683 42.298 84.3819 43.2805 83.6091 44.0666C82.8363 44.8035 81.8219 45.1965 80.5178 45.1965C79.2137 45.1965 78.1994 44.8035 77.4265 44.0666C76.6537 43.2805 76.2673 42.3471 76.2673 41.119ZM90.2263 45V34.2412H93.704C94.6217 34.2412 95.2496 34.3395 95.6843 34.536C96.264 34.7816 96.6987 35.1255 96.9885 35.6659C97.3266 36.1572 97.4715 36.7958 97.4715 37.4836C97.4715 38.1222 97.3266 38.7609 96.9885 39.3013C96.6504 39.8417 96.2157 40.2347 95.6843 40.4312V40.4803C95.7809 40.5786 95.8775 40.7751 96.0224 41.0207L98.196 45H96.0224L93.9455 40.9716H92.1101V45H90.2263ZM92.1101 39.2522H93.8489C94.3802 39.2522 94.7666 39.1048 95.0564 38.81C95.3462 38.5153 95.4911 38.0731 95.4911 37.5819C95.4911 36.845 95.2013 36.3537 94.67 36.1081C94.3802 36.0098 93.9938 35.9115 93.5108 35.9115H92.1101V39.2522ZM104.668 45V40.4803L101.142 34.2412H103.316L104.958 37.3853L105.586 38.81H105.634C105.828 38.3187 106.069 37.8275 106.262 37.3853L107.905 34.2412H110.078L106.552 40.4803V45H104.668ZM114.377 45V34.2412H116.309V43.3297H120.897V45H114.377ZM126.404 45V40.4803L122.878 34.2412H125.051L126.694 37.3853L127.322 38.81H127.37C127.563 38.3187 127.805 37.8275 127.998 37.3853L129.64 34.2412H131.814L128.288 40.4803V45H126.404ZM135.146 43.7227L136.209 42.2489C136.547 42.5436 136.982 42.8384 137.416 43.0349C137.899 43.2805 138.334 43.3788 138.817 43.3788C139.3 43.3788 139.687 43.2805 139.928 43.0349C140.218 42.7893 140.363 42.4945 140.363 42.1506C140.363 41.7576 140.218 41.4629 139.88 41.1681C139.542 40.8733 139.155 40.6768 138.672 40.4312C138.189 40.2347 137.706 39.9891 137.223 39.7434C136.74 39.4978 136.306 39.1539 135.967 38.7118C135.629 38.2696 135.484 37.7292 135.484 37.1397C135.484 36.2063 135.823 35.4694 136.499 34.8799C137.175 34.2904 138.044 33.9956 139.107 33.9956C140.363 33.9956 141.377 34.3886 142.198 35.1255L141.329 36.6976C141.039 36.4028 140.653 36.2063 140.266 36.0098C139.831 35.8133 139.445 35.7642 139.01 35.7642C138.527 35.7642 138.141 35.8624 137.851 36.1081C137.561 36.3537 137.416 36.6484 137.416 36.9923C137.416 37.3362 137.561 37.6801 137.899 37.9257C138.238 38.1714 138.624 38.417 139.107 38.6135C139.59 38.81 140.073 39.0065 140.556 39.2522C141.039 39.4978 141.474 39.8417 141.812 40.2838C142.15 40.726 142.295 41.2663 142.295 41.905C142.295 42.8384 142.005 43.5753 141.377 44.1648C140.749 44.7543 139.88 45.0982 138.817 45.0982C138.141 45.0982 137.465 44.9508 136.837 44.7052C136.161 44.5578 135.581 44.1648 135.146 43.7227Z" fill="#7AB92D"/>
<path d="M73.0311 26.0862H64.3853C62.8879 26.0862 61.7287 25.6932 60.9076 24.9563C59.9899 24.1703 59.5551 23.0404 59.5551 21.5666V9.57969C59.5551 8.1059 59.9416 6.97598 60.7627 6.14083C61.5838 5.30568 62.6947 4.86354 64.1438 4.86354H73.0794V7.90939H65.2064C63.4675 7.90939 62.5981 8.69542 62.5981 10.3166V13.952H73.0794V16.9978H62.5981V20.6332C62.5981 22.2544 63.4675 23.0404 65.2547 23.0404H73.0794V26.0862H73.0311ZM88.8256 26.0862H85.6377L81.8219 20.5349L78.0061 26.0862H74.8183L80.3246 17.8821L75.1564 10.1692H78.296L81.7736 15.2784L85.2996 10.1692H88.4875L83.3676 17.8821L88.8256 26.0862ZM100.466 26.0862H94.3802C91.4821 26.0862 89.9848 24.6616 89.9848 21.8614V14.1976C89.9848 11.5448 91.1923 10.1692 93.6557 10.1692H100.37V12.8221H94.7666C93.9938 12.8221 93.4142 12.9694 93.1244 13.2642C92.7863 13.559 92.6414 14.0993 92.6414 14.8854V21.2227C92.6414 22.6474 93.4142 23.3352 94.9115 23.3352H100.466V26.0862ZM105.393 26.0862H102.736V4.51965H105.393V26.0862ZM121.091 22.107C121.091 24.7598 119.69 26.1354 116.888 26.1354H112.3C109.498 26.1354 108.098 24.809 108.098 22.107V10.1692H110.754V21.321C110.754 21.9596 110.947 22.5 111.334 22.893C111.672 23.1878 112.252 23.3843 113.169 23.3843H116.067C117.661 23.3843 118.482 22.6965 118.482 21.3701V10.1692H121.139V22.107H121.091ZM135.243 12.8221H128.191C127.563 12.8221 127.08 12.9203 126.742 13.1659C126.307 13.4607 126.066 13.8537 126.066 14.3941V15.0328C126.066 16.1627 126.79 16.7031 128.239 16.7031H131.717C132.731 16.7031 133.601 17.0469 134.229 17.7347C134.905 18.4225 135.195 19.3068 135.195 20.3384V22.3526C135.195 23.3352 134.856 24.2194 134.18 25.0055C133.794 25.4476 133.359 25.7915 132.924 25.9389C132.586 26.0371 132.055 26.0862 131.379 26.0862H123.361V23.3352H130.654C131.379 23.3352 131.91 23.1386 132.152 22.6965C132.345 22.4017 132.441 21.8614 132.441 21.0262C132.441 19.9454 131.862 19.3559 130.703 19.3559H127.37C126.259 19.3559 125.293 19.0611 124.568 18.4225C123.747 17.7838 123.361 16.8996 123.361 15.7697V13.7555C123.361 12.5764 123.844 11.5939 124.762 10.857C125.341 10.4148 126.211 10.1692 127.37 10.1692H135.243V12.8221ZM140.314 26.0862H137.658V10.1692H140.314V26.0862ZM140.701 5.94432C140.701 6.43559 140.508 6.87773 140.17 7.22162C139.831 7.5655 139.397 7.76201 138.914 7.76201C138.431 7.76201 138.044 7.5655 137.658 7.22162C137.32 6.87773 137.127 6.43559 137.127 5.94432C137.127 5.45306 137.272 5.01092 137.61 4.6179C137.948 4.27402 138.382 4.07751 138.865 4.07751C139.348 4.07751 139.783 4.27402 140.121 4.6179C140.556 5.01092 140.701 5.45306 140.701 5.94432ZM157.751 10.1692L151.714 25.0055C151.375 25.8897 150.747 26.3319 149.878 26.3319C149.009 26.3319 148.429 25.8897 148.043 25.0055L142.005 10.1692H144.806L149.878 22.5983L154.998 10.1692H157.751ZM169.247 14.8854V14.6397C169.247 13.4607 168.522 12.8712 167.122 12.8712H164.175C162.533 12.8712 161.712 13.559 161.712 14.9345V18.0786L169.247 14.8854ZM172 16.4574L161.712 20.7314V21.2227C161.712 22.0579 161.953 22.6965 162.388 23.0404C162.678 23.286 163.257 23.4334 164.03 23.4334H172V26.1845H163.547C162.098 26.1845 160.987 25.8897 160.311 25.3002C159.442 24.5633 159.007 23.4334 159.007 21.8614V14.2467C159.007 11.5448 160.456 10.1692 163.306 10.1692H168.039C170.696 10.1692 172.048 11.5939 172.048 14.4432V16.4574H172ZM0.193176 0V7.12336L13.2828 3.93013L15.0699 11.5939L0.193176 15.2293V19.1103L13.5243 15.8679L15.3597 23.5317L0.193176 27.2162V31.1463L19.9966 26.2828L21.7837 33.9465L44.5818 25.0055V0H0.193176Z" fill="white"/>
<path d="M44.5818 25.0054L21.7837 33.9464L0.193176 39.1538V45.1473H44.5818V25.0054Z" fill="#7AB92D"/>
</g>
<defs>
<clipPath id="clip0">
<rect width="172" height="45" fill="white"/>
</clipPath>
</defs>
</svg>
