<svg width="50" height="50" viewBox="0 0 50 50" fill="none" xmlns="http://www.w3.org/2000/svg">
<g clip-path="url(#clip0)">
<path d="M18.1309 34.308C17.593 34.308 17.1547 34.7454 17.1547 35.2826C17.1547 35.8198 17.593 36.2573 18.1309 36.2573C18.6687 36.2573 19.1071 35.8198 19.1071 35.2826C19.1071 34.7454 18.6687 34.308 18.1309 34.308Z" fill="url(#paint0_linear)"/>
<path d="M32.1865 34.308C31.6486 34.308 31.2103 34.7454 31.2103 35.2826C31.2103 35.8198 31.6486 36.2573 32.1865 36.2573C32.7244 36.2573 33.1627 35.8198 33.1627 35.2826C33.1627 34.7454 32.7244 34.308 32.1865 34.308Z" fill="url(#paint1_linear)"/>
<path d="M49.0726 44.0546H48.7801V14.6199H49.1215C49.4541 14.6199 49.7643 14.4505 49.9435 14.1706C50.1232 13.8904 50.1472 13.5386 50.0076 13.2367L44.1513 0.56614C43.9919 0.221202 43.6459 0 43.2652 0H7.05223C6.67152 0 6.32553 0.221202 6.16608 0.56614L0.309372 13.2367C0.169754 13.5386 0.194168 13.8904 0.373459 14.1706C0.55275 14.4505 0.862885 14.6199 1.19553 14.6199H1.53732V44.0546H1.04942C0.510406 44.0546 0.0976562 44.4909 0.0976562 45.0292V48.9279C0.0976562 49.4662 0.510406 49.9025 1.04942 49.9025H49.0726C49.6117 49.9025 50.0732 49.4662 50.0732 48.9279V45.0292C50.0732 44.4909 49.6117 44.0546 49.0726 44.0546ZM36.0909 36.2573H42.9234V38.2066H35.1185C35.1173 38.2066 35.1162 38.2062 35.1147 38.2062H31.2103C31.2092 38.2062 31.208 38.2066 31.2065 38.2066H29.063V32.3587H42.9234V34.308H36.0909C35.553 34.308 35.1147 34.7454 35.1147 35.2826C35.1147 35.8199 35.553 36.2573 36.0909 36.2573ZM42.9234 40.1559V44.0546H36.0909V40.1559H42.9234ZM34.1385 40.1559V44.0546H32.1865V40.1559H34.1385ZM28.0869 30.4094C27.5478 30.4094 27.1107 30.8457 27.1107 31.384V39.1813C27.1107 39.7196 27.5478 40.1559 28.0869 40.1559H30.2341V44.0546H20.0829V40.1559H22.2305C22.7695 40.1559 23.2063 39.7196 23.2063 39.1813V31.384C23.2063 30.8457 22.7695 30.4094 22.2305 30.4094H7.39403V27.094L19.2287 14.6199H31.0886L42.9234 27.094V30.4094H28.0869ZM15.2027 38.2062C15.2012 38.2062 15.2 38.2066 15.1989 38.2066H7.39403V36.2573H14.2265C14.7644 36.2573 15.2027 35.8199 15.2027 35.2826C15.2027 34.7454 14.7644 34.308 14.2265 34.308H7.39403V32.3587H21.2543V38.2066H19.1109C19.1093 38.2066 19.1082 38.2062 19.1071 38.2062H15.2027ZM18.1309 40.1559V44.0546H16.1789V40.1559H18.1309ZM10.6903 14.6199L7.39403 18.1108V14.6199H10.6903ZM16.9571 1.94932H17.7017L20.1794 7.30994L17.7017 12.6706H16.9983L14.3108 6.85612L16.9571 1.94932ZM13.2877 4.64219L12.043 1.94932H14.7396L13.2877 4.64219ZM25.5104 1.94932L27.9881 7.30994L25.5104 12.6706H24.807L22.3293 7.30994L24.807 1.94932H25.5104ZM33.3603 1.94932L36.0065 6.85612L33.3191 12.6706H32.6157L30.138 7.30994L32.6157 1.94932H33.3603ZM35.5778 1.94932H38.2744L37.0296 4.64219L35.5778 1.94932ZM35.4691 12.6706L37.1643 9.00303L39.1418 12.6706H35.4691ZM30.4657 12.6706H27.6604L29.063 9.6358L30.4657 12.6706ZM29.063 4.98409L27.6604 1.94932H30.4657L29.063 4.98409ZM16.4474 14.7173L7.39403 24.2595V20.9521L13.2812 14.7173H16.4474ZM22.657 12.6706H19.8517L21.2543 9.6358L22.657 12.6706ZM21.2543 4.98409L19.8517 1.94932H22.657L21.2543 4.98409ZM14.8483 12.6706H11.1755L13.1531 9.00303L14.8483 12.6706ZM7.39403 40.1559H14.2265V44.0546H7.39403V40.1559ZM33.8699 14.7173H37.0361L42.9234 20.9525V24.2599L33.8699 14.7173ZM39.6271 14.6199H42.9234V18.1108L39.6271 14.6199ZM44.8757 14.6199H46.8277V44.0546H44.8757V14.6199ZM47.596 12.6702L41.3589 12.6706L38.1874 6.78911L40.4243 1.94932H42.6407L47.596 12.6702ZM7.6767 1.94932H9.89304L12.13 6.78911L8.95844 12.6706L2.72141 12.6702L7.6767 1.94932ZM5.44167 14.6199V44.0546H3.48969V14.6199H5.44167ZM48.0968 47.9532H2.02522V46.0039H48.0968V47.9532Z" fill="url(#paint2_linear)"/>
</g>
<defs>
<linearGradient id="paint0_linear" x1="18.232" y1="36.2521" x2="17.2831" y2="35.7636" gradientUnits="userSpaceOnUse">
<stop stop-color="#B08A6A"/>
<stop offset="1" stop-color="#8F6A4C"/>
</linearGradient>
<linearGradient id="paint1_linear" x1="32.2877" y1="36.2521" x2="31.3387" y2="35.7636" gradientUnits="userSpaceOnUse">
<stop stop-color="#B08A6A"/>
<stop offset="1" stop-color="#8F6A4C"/>
</linearGradient>
<linearGradient id="paint2_linear" x1="27.6879" y1="49.7683" x2="3.39038" y2="37.2551" gradientUnits="userSpaceOnUse">
<stop stop-color="#B08A6A"/>
<stop offset="1" stop-color="#8F6A4C"/>
</linearGradient>
<clipPath id="clip0">
<rect width="50" height="49.9025" fill="white"/>
</clipPath>
</defs>
</svg>
