<svg width="50" height="51" viewBox="0 0 50 51" fill="none" xmlns="http://www.w3.org/2000/svg">
<g clip-path="url(#clip0)">
<path d="M44.2417 36.188C43.9675 36.0743 43.6518 36.1371 43.4419 36.347L35.4217 44.3672C35.2119 44.5771 35.1491 44.8927 35.2628 45.167C35.3762 45.4413 35.644 45.62 35.9408 45.62H43.9609C44.3663 45.62 44.6948 45.2915 44.6948 44.8861V36.866C44.6947 36.5692 44.5159 36.3016 44.2417 36.188ZM37.7123 44.1523L43.2268 38.6377V44.1523H37.7123Z" fill="url(#paint0_linear)"/>
<path d="M49.5471 24.4248C49.2729 24.3111 48.9572 24.3739 48.7473 24.5838L46.5493 26.7817V11.8373C46.5493 11.4319 46.2207 11.1034 45.8154 11.1034H40.1766L42.2235 9.05651C42.2238 9.05622 42.2241 9.05583 42.2244 9.05553L44.1967 7.08326C44.6192 6.6607 44.8519 6.09859 44.8519 5.50094C44.8519 4.90328 44.6192 4.34136 44.1967 3.91861L41.916 1.63794C41.4934 1.21538 40.9313 0.982666 40.3337 0.982666C39.736 0.982666 39.174 1.21538 38.7513 1.63794L36.7781 3.61119L34.3937 5.99557L29.286 11.1033H6.50587V3.84302C6.50587 3.43765 6.17726 3.10913 5.77198 3.10913C2.58936 3.10933 0 5.6985 0 8.88131V40.0519C0 40.1061 0.00625001 40.1588 0.0173828 40.2096C0.11875 41.5601 0.703029 42.8149 1.6795 43.7674C2.72325 44.7854 4.10108 45.346 5.55929 45.346H27.9849L23.7614 49.5696C23.5515 49.7795 23.4887 50.0951 23.6023 50.3694C23.7159 50.6436 23.9835 50.8224 24.2803 50.8224H49.2662C49.6715 50.8224 50.0001 50.4939 50.0001 50.0885V25.1028C50.0001 24.8061 49.8212 24.5384 49.5471 24.4248ZM39.7894 2.67593C40.0894 2.37574 40.5782 2.37574 40.8782 2.67593L43.159 4.9567C43.4592 5.2568 43.4592 5.74537 43.159 6.04557L41.7048 7.49987L38.335 4.13023L39.7894 2.67593ZM37.2971 5.16812L40.6668 8.53766L39.3202 9.88425L35.9508 6.51471L37.2971 5.16812ZM48.5325 33.3491H47.1785C46.7731 33.3491 46.4446 33.6777 46.4446 34.083C46.4446 34.4884 46.7731 34.8169 47.1785 34.8169H48.5325V37.0284H47.1785C46.7731 37.0284 46.4446 37.357 46.4446 37.7623C46.4446 38.1677 46.7731 38.4962 47.1785 38.4962H48.5325V40.7076H47.1785C46.7731 40.7076 46.4446 41.0362 46.4446 41.4415C46.4446 41.8469 46.7731 42.1754 47.1785 42.1754H48.5325V44.3869H47.1785C46.7731 44.3869 46.4446 44.7156 46.4446 45.1208C46.4446 45.5262 46.7731 45.8547 47.1785 45.8547H48.5325V49.3549H26.052L33.4649 41.9421C33.7515 41.6554 33.7515 41.1908 33.4649 40.9042C33.432 40.8713 33.3966 40.8428 33.3596 40.8174C33.0739 40.6217 32.6807 40.6505 32.4269 40.9042L29.4527 43.8784H5.55939C3.3336 43.8784 1.5418 42.1408 1.47129 39.919C1.47549 39.7795 1.48633 39.6412 1.50371 39.5045C1.50381 39.5037 1.50391 39.503 1.50401 39.5022C1.51221 39.4372 1.52207 39.3726 1.5333 39.3083C1.53457 39.301 1.53594 39.2937 1.53721 39.2864C1.54746 39.229 1.55899 39.172 1.57159 39.1152C1.5751 39.0993 1.57881 39.0835 1.58252 39.0678C1.59366 39.0197 1.60567 38.972 1.61856 38.9244C1.62559 38.8987 1.63291 38.8732 1.64043 38.8475C1.65118 38.8102 1.66231 38.773 1.67412 38.7362C1.68594 38.6993 1.69854 38.6629 1.71133 38.6265C1.72022 38.601 1.72901 38.5755 1.73858 38.5502C1.75645 38.5022 1.77539 38.4546 1.79493 38.4074C1.80049 38.3939 1.80596 38.3801 1.81172 38.3665C1.83682 38.3079 1.86289 38.25 1.89043 38.1928C1.89161 38.1904 1.89268 38.1879 1.89385 38.1855C2.46788 36.9976 3.57188 36.1119 4.89679 35.8371C4.9005 35.8363 4.90421 35.8355 4.90792 35.8347C4.96866 35.8223 5.02999 35.8116 5.09171 35.8018C5.10196 35.8001 5.11222 35.7981 5.12267 35.7965C5.17843 35.788 5.23478 35.7814 5.29112 35.775C5.30694 35.7733 5.32267 35.7708 5.33859 35.7693C5.39298 35.7638 5.44786 35.7602 5.50275 35.7568C5.52013 35.7557 5.53751 35.7538 5.55489 35.7529C5.62677 35.7493 5.69923 35.7475 5.77198 35.7475C6.17726 35.7475 6.50587 35.419 6.50587 35.0136V29.6924C6.50587 29.287 6.17726 28.9585 5.77198 28.9585C5.36671 28.9585 5.0381 29.287 5.0381 29.6924V34.3259C3.79884 34.4826 2.64854 35.0354 1.74151 35.9211C1.6461 36.0143 1.55567 36.1111 1.46758 36.2096V8.88131C1.46758 6.75817 3.01309 4.98892 5.038 4.63951V11.8373V26.7569V26.757C5.038 27.1623 5.36661 27.4909 5.77189 27.4909C6.17716 27.4909 6.50578 27.1623 6.50578 26.757V26.7569V12.5712H27.8183L23.7613 16.6282C23.4747 16.9149 23.4747 17.3795 23.7613 17.6661C24.0479 17.9526 24.5126 17.9526 24.7991 17.6661L30.1089 12.3562C30.1091 12.356 30.1092 12.3558 30.1094 12.3557L34.9127 7.5525L38.2821 10.9221L37.8868 11.3175C37.8865 11.3177 37.8861 11.318 37.8858 11.3183L23.0881 26.1162L19.7186 22.7467L22.6354 19.8299C22.922 19.5431 22.922 19.0786 22.6354 18.792C22.3488 18.5055 21.8841 18.5055 21.5976 18.792L18.1618 22.2277C18.1434 22.2461 18.1262 22.2655 18.1101 22.2854C18.1047 22.2921 18.0999 22.2992 18.0949 22.3061C18.0845 22.3199 18.0744 22.3338 18.0649 22.3482C18.0595 22.3566 18.0546 22.3652 18.0495 22.3739C18.0414 22.3876 18.0336 22.4015 18.0265 22.4156C18.0218 22.4248 18.0176 22.4341 18.0133 22.4436C18.0068 22.458 18.0007 22.4726 17.9952 22.4873C17.9932 22.4925 17.9907 22.4974 17.9888 22.5025L16.559 26.5528L15.5842 29.3145C15.5713 29.3512 15.562 29.3885 15.5551 29.4261H13.1145C12.7092 29.4261 12.3806 29.7546 12.3806 30.16C12.3806 30.5653 12.7092 30.8939 13.1145 30.8939H33.4382C33.8435 30.8939 34.172 30.5653 34.172 30.16C34.172 29.7546 33.8435 29.4261 33.4382 29.4261H18.8568L23.3324 27.8462C23.3361 27.8448 23.3396 27.843 23.3433 27.8416C23.3607 27.8352 23.3778 27.8279 23.3947 27.8202C23.4014 27.8171 23.4082 27.8142 23.4147 27.8109C23.4323 27.8021 23.4496 27.7925 23.4666 27.7821C23.472 27.7788 23.4777 27.7758 23.4831 27.7724C23.5007 27.761 23.5179 27.7486 23.5348 27.7355C23.539 27.7323 23.5434 27.7295 23.5475 27.7262C23.5679 27.7098 23.5879 27.6921 23.6069 27.6731L38.7089 12.5713H45.0814V28.2496L34.5838 38.7474C34.2971 39.0341 34.2971 39.4987 34.5838 39.7853C34.6016 39.8032 34.6203 39.8199 34.6395 39.8357C34.7741 39.9453 34.9384 40.0002 35.1027 40.0002C35.267 40.0002 35.4314 39.9453 35.5659 39.8357C35.5851 39.82 35.6038 39.8032 35.6217 39.7853C35.6219 39.785 35.6217 39.7853 35.6219 39.785L48.5325 26.8743V33.3491ZM21.7458 26.8495L19.6437 27.5916L18.2431 26.191L18.9852 24.0889L21.7458 26.8495Z" fill="url(#paint1_linear)"/>
</g>
<defs>
<linearGradient id="paint0_linear" x1="40.4424" y1="45.5945" x2="35.8279" y2="43.2226" gradientUnits="userSpaceOnUse">
<stop stop-color="#B08A6A"/>
<stop offset="1" stop-color="#8F6A4C"/>
</linearGradient>
<linearGradient id="paint1_linear" x1="27.5904" y1="50.6883" x2="3.30561" y2="38.1659" gradientUnits="userSpaceOnUse">
<stop stop-color="#B08A6A"/>
<stop offset="1" stop-color="#8F6A4C"/>
</linearGradient>
<clipPath id="clip0">
<rect width="50" height="50" fill="white" transform="translate(0 0.902588)"/>
</clipPath>
</defs>
</svg>
