<svg width="50" height="50" viewBox="0 0 50 50" fill="none" xmlns="http://www.w3.org/2000/svg">
<path d="M21.0504 23.9977C21.0504 21.8346 19.2905 20.0747 17.1274 20.0747C14.9644 20.0747 13.2045 21.8346 13.2045 23.9977C13.2045 26.1607 14.9644 27.9206 17.1274 27.9206C19.2905 27.9206 21.0504 26.1608 21.0504 23.9977ZM14.6693 23.9977C14.6693 22.6423 15.7721 21.5396 17.1274 21.5396C18.4828 21.5396 19.5856 22.6423 19.5856 23.9977C19.5856 25.353 18.4828 26.4558 17.1274 26.4558C15.7721 26.4558 14.6693 25.353 14.6693 23.9977Z" fill="url(#paint0_linear)"/>
<path d="M18.1839 10.5842C18.5885 10.5842 18.9163 10.2564 18.9163 9.85181C18.9163 9.44722 18.5885 9.11938 18.1839 9.11938H16.0708C15.6662 9.11938 15.3384 9.44722 15.3384 9.85181C15.3384 10.2564 15.6662 10.5842 16.0708 10.5842H18.1839Z" fill="url(#paint1_linear)"/>
<path d="M49.2676 48.5352H43.673C43.8374 48.3617 43.9868 48.171 44.1175 47.9636C44.6392 47.136 44.8072 46.155 44.5911 45.201C44.2091 43.5151 42.8834 42.8732 42.8254 42.8198L39.5042 40.7259L42.9728 38.5391C43.8002 38.0174 44.3749 37.2047 44.5911 36.2506C44.8073 35.2966 44.6391 34.3155 44.1174 33.4881C43.3998 32.3499 42.5511 32.175 39.5048 30.1572L42.9727 27.9711C44.6808 26.8942 45.1943 24.6284 44.1176 22.9201C43.4642 21.8838 42.335 21.2106 40.9276 21.2106H34.9372C34.5326 21.2106 34.2048 21.5385 34.2048 21.9431C34.2048 22.3477 34.5326 22.6755 34.9372 22.6755H37.6386L32.7642 25.7484H28.3692V22.6755H32.0089C32.4135 22.6755 32.7413 22.3477 32.7413 21.9431C32.7413 21.5385 32.4135 21.2106 32.0089 21.2106H28.2983C28.0392 20.1689 27.0962 19.3946 25.9755 19.3946H25.4584V16.399V13.6602H28.2045C28.5139 13.6602 28.7898 13.4658 28.8941 13.1745C28.9983 12.8832 28.9084 12.5579 28.6692 12.3616L17.8599 3.48906V0.732422C17.8599 0.327832 17.532 0 17.1274 0C16.7229 0 16.395 0.327832 16.395 0.732422V3.48906L11.9342 7.15059C11.6216 7.40723 11.5762 7.86875 11.8328 8.18145C12.0894 8.49414 12.551 8.53955 12.8637 8.28281L17.1274 4.78301L26.1578 12.1953H8.09707L10.5892 10.1497C10.9018 9.89307 10.9472 9.43154 10.6905 9.11885C10.4339 8.80615 9.97236 8.76074 9.65967 9.01748L5.58564 12.3616C5.34658 12.5579 5.25654 12.8833 5.36074 13.1745C5.46494 13.4657 5.74102 13.6602 6.05039 13.6602H8.79639V16.3992C8.79639 16.3999 8.79648 16.4005 8.79648 16.4011V26.2342C8.79648 26.6388 9.12432 26.9666 9.52891 26.9666C9.9335 26.9666 10.2613 26.6388 10.2613 26.2342V17.1316H23.9935V30.8638C22.3205 30.8638 11.6801 30.8638 10.2613 30.8638V29.1625C10.2613 28.7579 9.9335 28.4301 9.52891 28.4301C9.12432 28.4301 8.79648 28.7579 8.79648 29.1625V31.5943C8.79648 31.595 8.79639 31.5956 8.79639 31.5962V48.5352H0.732422C0.327832 48.5352 0 48.863 0 49.2676C0 49.6722 0.327832 50 0.732422 50H49.2676C49.6722 50 50 49.6722 50 49.2676C50 48.863 49.6722 48.5352 49.2676 48.5352ZM18.9769 41.4116H15.2779V39.3056H18.9769V41.4116ZM18.9769 37.8406H15.2779V35.7346H18.9769V37.8406ZM15.2779 42.8765H18.9769V44.9825H15.2779V42.8765ZM18.9769 32.3287V34.2697H15.2779V32.3287H18.9769ZM15.2779 46.4474H18.9769V48.5352H15.2779V46.4474ZM20.4417 32.3287H23.9935V48.5352H20.4417V32.3287ZM25.4583 31.5963V29.0294H25.9754C27.0962 29.0294 28.0391 28.2551 28.2982 27.2134H30.4612C28.9342 28.3408 28.5115 30.4794 29.5396 32.1105C30.2396 33.2208 30.9319 33.3179 34.1526 35.4415L30.6845 37.6281C29.857 38.1498 29.2823 38.9625 29.0661 39.9166C28.8499 40.8706 29.0182 41.8517 29.5398 42.6791C30.2836 43.8587 30.7768 43.771 38.1572 48.5353H25.4583V31.5963ZM38.8398 44.6364C39.2572 43.9745 39.9721 43.6116 40.7022 43.6116C41.1023 43.6116 41.5072 43.7208 41.87 43.9493L42.1915 44.152C42.1916 44.152 42.1917 44.1521 42.1917 44.1521C43.2163 44.7982 43.5244 46.1575 42.8784 47.1823C42.4734 47.8247 41.7775 48.2082 41.0168 48.2082C40.6038 48.2082 40.1997 48.091 39.848 47.8694C39.8479 47.8693 39.8479 47.8692 39.8478 47.8692L39.5253 47.6659C38.5017 47.0194 38.194 45.6608 38.8398 44.6364ZM39.394 42.3882C38.6774 42.6605 38.0401 43.1583 37.6008 43.8552C37.1725 44.5347 36.983 45.3177 37.0484 46.1042L33.9432 44.1464C34.5515 43.9138 34.648 43.7613 38.131 41.5919L39.394 42.3882ZM43.1625 35.9271C43.0328 36.4993 42.688 36.987 42.1915 37.3C33.5476 42.6195 33.7466 42.9236 32.6404 42.9236C31.8804 42.9236 31.1814 42.5361 30.7789 41.8979C30.4659 41.4014 30.365 40.8127 30.4947 40.2402C30.6244 39.6678 30.9692 39.1803 31.4657 38.8673L39.8476 33.5827C40.2106 33.3538 40.6156 33.2447 41.0161 33.2447C41.7462 33.2447 42.461 33.6076 42.8781 34.2694C43.1913 34.7659 43.2923 35.3546 43.1625 35.9271ZM39.7131 32.0203C39.4914 32.105 39.2748 32.2122 39.0665 32.3435L35.5262 34.5756L33.9434 33.5777C34.5514 33.3452 34.6576 33.1868 38.1313 31.0231L39.7131 32.0203ZM42.8783 23.7015C43.5244 24.7264 43.2163 26.0858 42.1914 26.7319L33.8095 32.016C33.4578 32.2378 33.0536 32.355 32.6404 32.355C32.2317 32.355 31.8422 32.2434 31.506 32.0412L31.466 32.016C31.4601 32.0123 31.4539 32.0094 31.4479 32.0059C31.1829 31.8351 30.9537 31.6063 30.779 31.3291C30.1329 30.3042 30.441 28.9447 31.4659 28.2986L39.8478 23.0146C40.2108 22.7857 40.6156 22.6767 41.016 22.6767C41.7461 22.6767 42.4611 23.0396 42.8783 23.7015ZM25.9754 20.8597C26.4876 20.8597 26.9044 21.2765 26.9044 21.7887V26.6356C26.9044 27.1479 26.4876 27.5646 25.9754 27.5646H25.4583V20.8598H25.9754V20.8597ZM10.2612 15.6668V13.6602H23.9935V15.6668H10.2612ZM10.2612 32.3287H13.8131V48.5352H10.2612V32.3287Z" fill="url(#paint2_linear)"/>
<defs>
<linearGradient id="paint0_linear" x1="17.5339" y1="27.8995" x2="13.7181" y2="25.9382" gradientUnits="userSpaceOnUse">
<stop stop-color="#B08A6A"/>
<stop offset="1" stop-color="#8F6A4C"/>
</linearGradient>
<linearGradient id="paint1_linear" x1="17.3127" y1="10.5803" x2="16.4588" y2="9.50823" gradientUnits="userSpaceOnUse">
<stop stop-color="#B08A6A"/>
<stop offset="1" stop-color="#8F6A4C"/>
</linearGradient>
<linearGradient id="paint2_linear" x1="27.5903" y1="49.8655" x2="3.27289" y2="37.3664" gradientUnits="userSpaceOnUse">
<stop stop-color="#B08A6A"/>
<stop offset="1" stop-color="#8F6A4C"/>
</linearGradient>
</defs>
</svg>
