<svg width="50" height="50" viewBox="0 0 50 50" fill="none" xmlns="http://www.w3.org/2000/svg">
<g clip-path="url(#clip0)">
<path d="M48.4276 8.4582H46.3171C45.8901 6.92002 44.4805 5.78652 42.8098 5.77959V3.50586C42.8098 1.57275 41.2372 0 39.3041 0H25.0345H7.7413C5.8082 0 4.23554 1.57266 4.23554 3.50586V5.77959C2.22714 5.78789 0.595795 7.42432 0.595795 9.43477C0.595795 11.4452 2.22714 13.0816 4.23554 13.0898V14.5921C4.23554 16.5252 5.8082 18.0979 7.74121 18.0979H14.8926C14.9002 18.0979 14.9077 18.0979 14.9152 18.0977C15.485 18.5525 16.2066 18.8247 16.9907 18.8247C17.5273 18.8247 18.0347 18.6972 18.4842 18.4709C18.8665 19.8896 20.1644 20.9369 21.7021 20.9369C23.372 20.9369 24.7588 19.7022 24.9979 18.0979H28.1049C28.6441 18.0979 29.0814 17.6607 29.0814 17.1214C29.0814 16.582 28.6441 16.1448 28.1049 16.1448H25.0345V1.95312H39.3042C40.1603 1.95312 40.8567 2.64971 40.8567 3.50586V14.5921C40.8567 15.4482 40.1603 16.1448 39.3042 16.1448H36.6356C36.0964 16.1448 35.6591 16.582 35.6591 17.1214C35.6591 17.6607 36.0964 18.0979 36.6356 18.0979H39.3042C41.2373 18.0979 42.8099 16.5253 42.8099 14.5921V13.0898C44.4806 13.083 45.8902 11.9495 46.3172 10.4113H47.4512V18.7538C47.4512 20.2073 46.2687 21.3899 44.8153 21.3899H23.446C22.9067 21.3899 22.4694 21.8271 22.4694 22.3665V27.3306H21.196C20.7678 27.3306 20.3895 27.6095 20.263 28.0186L18.6698 33.1703C18.6488 33.2339 18.6341 33.3004 18.6266 33.369L18.6262 33.3721C18.6258 33.3756 18.6254 33.379 18.6251 33.3825C18.6245 33.3885 18.624 33.3945 18.6235 33.4005L18.6232 33.4051C18.6227 33.4122 18.6223 33.4194 18.6219 33.4266C18.6209 33.446 18.6204 33.4657 18.6206 33.4852V45.1743C18.6206 47.8352 20.7853 50 23.446 50C26.1067 50 28.2714 47.8352 28.2714 45.1743V33.4852C28.2716 33.4658 28.2711 33.4464 28.2701 33.427C28.2697 33.4196 28.2692 33.4121 28.2687 33.4049L28.2685 33.4005C28.268 33.3944 28.2675 33.3885 28.2669 33.3824C28.2666 33.3789 28.2662 33.3754 28.2658 33.372L28.2654 33.3689C28.2579 33.3003 28.2432 33.2338 28.2222 33.1702L26.629 28.0185C26.5024 27.6094 26.1242 27.3305 25.696 27.3305H24.4226V23.343H44.8152C47.3456 23.343 49.4042 21.2843 49.4042 18.7537V9.43477C49.4042 8.89541 48.967 8.4582 48.4276 8.4582ZM2.54892 9.43477C2.54892 8.50127 3.3041 7.74092 4.23564 7.73271V11.1368C3.3041 11.1285 2.54892 10.3682 2.54892 9.43477ZM6.18867 14.5921V14.26C6.60917 14.4519 7.07617 14.5589 7.56777 14.5589C8.83271 14.5589 9.93525 13.8505 10.4995 12.8095C11.0146 13.1362 11.6252 13.3256 12.2792 13.3256C12.7708 13.3256 13.2378 13.2186 13.6584 13.0266V15.4923C13.6584 15.7155 13.6806 15.9337 13.7226 16.1447H7.7413C6.88515 16.1448 6.18867 15.4482 6.18867 14.5921ZM23.0812 17.6045C23.0812 18.365 22.4625 18.9838 21.702 18.9838C20.9416 18.9838 20.3229 18.365 20.3229 17.6045V10.8605C20.3229 10.3212 19.8856 9.88398 19.3464 9.88398C18.8071 9.88398 18.3698 10.3212 18.3698 10.8605V15.4924C18.3698 16.2529 17.7511 16.8717 16.9906 16.8717C16.2302 16.8717 15.6115 16.2529 15.6115 15.4924V9.99316C15.6115 9.45381 15.1742 9.0166 14.635 9.0166C14.0956 9.0166 13.6584 9.45381 13.6584 9.99316C13.6584 10.7537 13.0396 11.3725 12.2792 11.3725C11.5187 11.3725 10.9001 10.7537 10.9001 9.99316C10.9001 9.45381 10.4628 9.0166 9.92353 9.0166C9.38427 9.0166 8.94697 9.45381 8.94697 9.99316V11.2265C8.94697 11.987 8.32822 12.6058 7.56777 12.6058C6.80732 12.6058 6.18867 11.987 6.18867 11.2265V3.50586C6.18867 2.64971 6.88515 1.95312 7.74121 1.95312H23.0812V17.6045ZM42.8099 11.1367V7.73271C43.7413 7.74092 44.4966 8.50137 44.4966 9.43477C44.4966 10.3682 43.7413 11.1285 42.8099 11.1367ZM26.3183 45.1743C26.3183 46.7583 25.0298 48.0469 23.446 48.0469C21.8622 48.0469 20.5737 46.7583 20.5737 45.1743V34.4537H26.3183V45.1743ZM25.9707 32.5006H20.9214L21.9163 29.2836H24.9759L25.9707 32.5006Z" fill="url(#paint0_linear)"/>
<path d="M32.4434 18.0976C31.6769 18.1108 31.1974 17.2093 31.6309 16.579C32.0449 15.9361 33.066 16.0344 33.3448 16.748C33.6224 17.361 33.116 18.1186 32.4434 18.0976Z" fill="url(#paint1_linear)"/>
<path d="M23.446 45.9329C22.9067 45.9329 22.4694 45.4957 22.4694 44.9563V43.104C22.4694 42.5646 22.9067 42.1274 23.446 42.1274C23.9853 42.1274 24.4225 42.5646 24.4225 43.104V44.9563C24.4225 45.4956 23.9852 45.9329 23.446 45.9329Z" fill="url(#paint2_linear)"/>
</g>
<defs>
<linearGradient id="paint0_linear" x1="27.5286" y1="49.8655" x2="3.55473" y2="37.8367" gradientUnits="userSpaceOnUse">
<stop stop-color="#B08A6A"/>
<stop offset="1" stop-color="#8F6A4C"/>
</linearGradient>
<linearGradient id="paint1_linear" x1="32.5459" y1="18.0928" x2="31.5964" y2="17.6028" gradientUnits="userSpaceOnUse">
<stop stop-color="#B08A6A"/>
<stop offset="1" stop-color="#8F6A4C"/>
</linearGradient>
<linearGradient id="paint2_linear" x1="23.5472" y1="45.9227" x2="22.4244" y2="45.6265" gradientUnits="userSpaceOnUse">
<stop stop-color="#B08A6A"/>
<stop offset="1" stop-color="#8F6A4C"/>
</linearGradient>
<clipPath id="clip0">
<rect width="50" height="50" fill="white"/>
</clipPath>
</defs>
</svg>
