<svg width="50" height="51" viewBox="0 0 50 51" fill="none" xmlns="http://www.w3.org/2000/svg">
<path d="M49.2532 24.2641L15.4041 7.38466C14.7376 7.05264 13.928 7.32321 13.5956 7.98974L6.37423 22.4708C6.21462 22.7909 6.18875 23.1613 6.3022 23.5004C6.41565 23.8396 6.6591 24.1198 6.97931 24.2794L17.0858 29.3189L16.1891 31.1171C15.8568 31.7836 16.1276 32.5932 16.7942 32.9256L17.1128 33.0846L15.3714 36.1857H5.10374C4.14885 34.3389 2.22265 33.0755 0 33.0755V44.5623C2.17127 44.5623 4.06065 43.3571 5.03693 41.5795H16.9502C17.9252 41.5795 18.8243 41.0534 19.3017 40.2032L21.9458 35.4947L22.4055 35.7239C23.0719 36.0561 23.8817 35.7852 24.2141 35.1189L25.1108 33.3207L32.6618 37.0864C33.0973 37.3036 33.6161 37.2694 34.0191 36.9965L36.1032 35.5868L39.8242 37.4423C40.0131 37.5366 40.2191 37.5841 40.426 37.5841C40.5701 37.5841 40.7146 37.5607 40.8538 37.5142C41.193 37.401 41.4732 37.1573 41.6328 36.8374L45.4424 29.1976L49.3929 26.5973C49.7959 26.3321 50.0264 25.8718 49.9975 25.3904C49.9687 24.9087 49.6848 24.4794 49.2532 24.2641Z" fill="url(#paint0_linear)"/>
<defs>
<linearGradient id="paint0_linear" x1="27.5903" y1="44.4619" x2="6.73743" y2="30.1018" gradientUnits="userSpaceOnUse">
<stop stop-color="#B08A6A"/>
<stop offset="1" stop-color="#8F6A4C"/>
</linearGradient>
</defs>
</svg>
