<svg width="50" height="61" viewBox="0 0 50 61" fill="none" xmlns="http://www.w3.org/2000/svg">
<path d="M22.0703 45.0859H27.9297V57H22.0703V45.0859Z" fill="url(#paint0_linear)"/>
<path d="M11.8187 57H19.1406V42.1562H30.8594V57H38.2161V7H11.8187V57ZM32.3242 12.8594H35.2539V15.7891H32.3242V12.8594ZM32.3242 18.7188H35.2539V21.6484H32.3242V18.7188ZM32.3242 24.5781H35.2539V27.5078H32.3242V24.5781ZM32.3242 30.4375H35.2539V33.3672H32.3242V30.4375ZM32.3242 36.2969H35.2539V39.2266H32.3242V36.2969ZM26.4648 12.8594H29.3945V15.7891H26.4648V12.8594ZM26.4648 18.7188H29.3945V21.6484H26.4648V18.7188ZM26.4648 24.5781H29.3945V27.5078H26.4648V24.5781ZM26.4648 30.4375H29.3945V33.3672H26.4648V30.4375ZM26.4648 36.2969H29.3945V39.2266H26.4648V36.2969ZM20.6055 12.8594H23.5352V15.7891H20.6055V12.8594ZM20.6055 18.7188H23.5352V21.6484H20.6055V18.7188ZM20.6055 24.5781H23.5352V27.5078H20.6055V24.5781ZM20.6055 30.4375H23.5352V33.3672H20.6055V30.4375ZM20.6055 36.2969H23.5352V39.2266H20.6055V36.2969ZM14.7461 12.8594H17.6758V15.7891H14.7461V12.8594ZM14.7461 18.7188H17.6758V21.6484H14.7461V18.7188ZM14.7461 24.5781H17.6758V27.5078H14.7461V24.5781ZM14.7461 30.4375H17.6758V33.3672H14.7461V30.4375ZM14.7461 36.2969H17.6758V39.2266H14.7461V36.2969Z" fill="url(#paint1_linear)"/>
<path d="M41.0778 18.7188H50V57H41.0778V18.7188Z" fill="url(#paint2_linear)"/>
<path d="M0 18.7188H8.88633V57H0V18.7188Z" fill="url(#paint3_linear)"/>
<defs>
<linearGradient id="paint0_linear" x1="25.3036" y1="56.968" x2="21.9174" y2="56.112" gradientUnits="userSpaceOnUse">
<stop stop-color="#B08A6A"/>
<stop offset="1" stop-color="#8F6A4C"/>
</linearGradient>
<linearGradient id="paint1_linear" x1="26.3849" y1="56.8655" x2="11.268" y2="52.7633" gradientUnits="userSpaceOnUse">
<stop stop-color="#B08A6A"/>
<stop offset="1" stop-color="#8F6A4C"/>
</linearGradient>
<linearGradient id="paint2_linear" x1="46.0011" y1="56.897" x2="40.5931" y2="56.2492" gradientUnits="userSpaceOnUse">
<stop stop-color="#B08A6A"/>
<stop offset="1" stop-color="#8F6A4C"/>
</linearGradient>
<linearGradient id="paint3_linear" x1="4.90353" y1="56.897" x2="-0.483433" y2="56.2543" gradientUnits="userSpaceOnUse">
<stop stop-color="#B08A6A"/>
<stop offset="1" stop-color="#8F6A4C"/>
</linearGradient>
</defs>
</svg>
