<svg width="50" height="50" viewBox="0 0 50 50" fill="none" xmlns="http://www.w3.org/2000/svg">
<path d="M29.1214 35.8547L22.4065 26.452H25.0001C25.5408 26.452 26.0372 26.1544 26.2919 25.678C26.5466 25.2017 26.5178 24.6237 26.2189 24.1745L19.9247 14.7331H22.0704C22.6255 14.7331 23.1318 14.4198 23.3807 13.9234C23.6282 13.427 23.5753 12.8334 23.242 12.3899L15.9177 0.573535C15.3656 -0.164648 14.1267 -0.164648 13.5746 0.573535L6.25035 12.3899C5.91705 12.8334 5.86412 13.427 6.11158 13.9234C6.36051 14.4198 6.86686 14.7331 7.42194 14.7331H9.56774L3.2735 24.1745C2.97447 24.6237 2.94596 25.2017 3.20055 25.678C3.45514 26.1544 3.95152 26.452 4.49235 26.452H7.0859L0.273398 35.8547C-0.0457424 36.301 -0.0886135 36.889 0.163144 37.3768C0.413437 37.8645 0.915586 38.1707 1.4649 38.1707H27.9298C28.4791 38.1707 28.9812 37.8645 29.2315 37.3768C29.4833 36.889 29.4404 36.301 29.1214 35.8547Z" fill="url(#paint0_linear)"/>
<path d="M48.5352 47.0538H38.1836V41.0968H32.3242V47.0538H17.6758V41.0968H11.8164V47.0538H1.46484C0.655176 47.0538 0 47.709 0 48.5187C0 49.3283 0.655176 49.9835 1.46484 49.9835H48.5352C49.3448 49.9835 50 49.3283 50 48.5187C50 47.709 49.3448 47.0538 48.5352 47.0538Z" fill="url(#paint1_linear)"/>
<path d="M49.7268 35.851L42.9143 26.4482H45.5078C46.0485 26.4484 46.5449 26.1509 46.7996 25.6745C47.0542 25.1981 47.0256 24.6202 46.7267 24.171L40.4324 14.7296H42.5781C43.1332 14.7296 43.6396 14.4163 43.8885 13.9199C44.1359 13.4235 44.083 12.8299 43.7497 12.3864L36.4255 0.569995C35.8733 -0.168188 34.6345 -0.168188 34.0823 0.569995L26.7581 12.3864C26.4248 12.8299 26.3719 13.4235 26.6193 13.9199C26.8683 14.4163 27.3746 14.7296 27.9297 14.7296H30.0755L26.7604 19.7022L28.6564 22.5459C29.5562 23.8977 29.6406 25.6258 28.8753 27.0549C28.5448 27.6743 28.0799 28.1907 27.5277 28.5798L31.506 34.1487C32.352 35.3334 32.5109 36.8223 32.029 38.167H48.5352C49.0845 38.167 49.5866 37.8608 49.8369 37.373C50.0887 36.8852 50.0458 36.2972 49.7268 35.851Z" fill="url(#paint2_linear)"/>
<defs>
<linearGradient id="paint0_linear" x1="16.2201" y1="38.0681" x2="0.59766" y2="31.8813" gradientUnits="userSpaceOnUse">
<stop stop-color="#B08A6A"/>
<stop offset="1" stop-color="#8F6A4C"/>
</linearGradient>
<linearGradient id="paint1_linear" x1="27.5903" y1="49.9596" x2="24.3071" y2="40.4647" gradientUnits="userSpaceOnUse">
<stop stop-color="#B08A6A"/>
<stop offset="1" stop-color="#8F6A4C"/>
</linearGradient>
<linearGradient id="paint2_linear" x1="39.4516" y1="38.0643" x2="26.3035" y2="33.8953" gradientUnits="userSpaceOnUse">
<stop stop-color="#B08A6A"/>
<stop offset="1" stop-color="#8F6A4C"/>
</linearGradient>
</defs>
</svg>
