<svg width="50" height="50" viewBox="0 0 50 50" fill="none" xmlns="http://www.w3.org/2000/svg">
<g clip-path="url(#clip0)">
<path d="M2.50059 0.430435C1.58135 -0.488706 0 0.161978 0 1.46618V48.5351C0 49.3441 0.655859 50 1.46484 50H48.5338C49.8344 50 50.4912 48.4211 49.5695 47.4994L2.50059 0.430435ZM38.6039 47.0703V45.0196C38.6039 44.2106 37.948 43.5548 37.1391 43.5548C36.3301 43.5548 35.6742 44.2106 35.6742 45.0196V47.0703H29.9675V45.0196C29.9675 44.2106 29.3116 43.5548 28.5026 43.5548C27.6937 43.5548 27.0378 44.2106 27.0378 45.0196V47.0703H21.3311V45.0196C21.3311 44.2106 20.6752 43.5548 19.8662 43.5548C19.0572 43.5548 18.4014 44.2106 18.4014 45.0196V47.0703H12.6946V45.0196C12.6946 44.2106 12.0388 43.5548 11.2298 43.5548C10.4208 43.5548 9.76494 44.2106 9.76494 45.0196V47.0703H2.92959V40.2345H4.98027C5.78926 40.2345 6.44512 39.5787 6.44512 38.7697C6.44512 37.9607 5.78926 37.3049 4.98027 37.3049H2.92959V31.5981H4.98027C5.78926 31.5981 6.44512 30.9423 6.44512 30.1333C6.44512 29.3243 5.78926 28.6684 4.98027 28.6684H2.92959V22.9617H4.98027C5.78926 22.9617 6.44512 22.3058 6.44512 21.4968C6.44512 20.6879 5.78926 20.032 4.98027 20.032H2.92959V14.3253H4.98027C5.78926 14.3253 6.44512 13.6694 6.44512 12.8604C6.44512 12.0514 5.78926 11.3956 4.98027 11.3956H2.92959V5.00251L44.9974 47.0703H38.6039Z" fill="url(#paint0_linear)"/>
<path d="M11.2302 40.2344H24.9581C26.2587 40.2344 26.9155 38.6555 25.9938 37.7339L12.2659 24.0059C11.3432 23.0831 9.76532 23.7427 9.76532 25.0417V38.7696C9.76532 39.5786 10.4212 40.2344 11.2302 40.2344ZM12.6949 28.578L21.4218 37.3049H12.6949V28.578Z" fill="url(#paint1_linear)"/>
<path d="M40.4714 30.3076C41.0433 30.8796 41.9709 30.8797 42.5429 30.3076L49.5694 23.2811C50.1415 22.709 50.1415 21.7816 49.5694 21.2096L28.7903 0.430396C28.2184 -0.141675 27.2908 -0.141675 26.7189 0.430396L19.6923 7.45696C19.1202 8.02903 19.1202 8.95647 19.6923 9.52844L40.4714 30.3076ZM27.7545 3.53772L46.4621 22.2453L41.5071 27.2003L38.6248 24.318L40.0749 22.8679C40.647 22.2958 40.647 21.3684 40.0749 20.7963C39.5027 20.2243 38.5754 20.2242 38.0033 20.7963L36.5531 22.2465L33.189 18.8824L34.6391 17.4323C35.2111 16.8602 35.2111 15.9327 34.6391 15.3608C34.0671 14.7887 33.1396 14.7887 32.5676 15.3608L31.1175 16.8109L27.7533 13.4467L29.2035 11.9965C29.7755 11.4244 29.7755 10.497 29.2035 9.92493C28.6316 9.35295 27.704 9.35286 27.1319 9.92493L25.6818 11.375L22.7995 8.4927L27.7545 3.53772Z" fill="url(#paint2_linear)"/>
</g>
<defs>
<linearGradient id="paint0_linear" x1="27.5903" y1="49.8655" x2="3.27297" y2="37.3663" gradientUnits="userSpaceOnUse">
<stop stop-color="#B08A6A"/>
<stop offset="1" stop-color="#8F6A4C"/>
</linearGradient>
<linearGradient id="paint1_linear" x1="18.9579" y1="40.1896" x2="10.8557" y2="36.0252" gradientUnits="userSpaceOnUse">
<stop stop-color="#B08A6A"/>
<stop offset="1" stop-color="#8F6A4C"/>
</linearGradient>
<linearGradient id="paint2_linear" x1="36.2231" y1="30.654" x2="21.2751" y2="22.9708" gradientUnits="userSpaceOnUse">
<stop stop-color="#B08A6A"/>
<stop offset="1" stop-color="#8F6A4C"/>
</linearGradient>
<clipPath id="clip0">
<rect width="50" height="50" fill="white"/>
</clipPath>
</defs>
</svg>
