<svg width="34" height="34" viewBox="0 0 34 34" fill="none" xmlns="http://www.w3.org/2000/svg">
<g filter="url(#filter0_d)">
<path d="M31.4167 23.8548L25.1343 19.6668C24.5637 19.2871 23.7969 19.4116 23.3757 19.9523L21.5462 22.3041C21.1532 22.8145 20.4463 22.9612 19.8828 22.6491C18.6414 21.9586 17.1735 21.3085 13.9346 18.0654C10.6957 14.8223 10.0414 13.3586 9.35083 12.1172C9.03882 11.5537 9.18548 10.8467 9.69583 10.4538L12.0477 8.62437C12.5883 8.2032 12.7128 7.4364 12.3332 6.86576L8.14516 0.583354C7.75745 0.00175893 6.98133 -0.172848 6.38192 0.18662L3.75484 1.76266C3.04486 2.18095 2.52297 2.85641 2.29727 3.649C1.57886 6.26829 1.43402 12.0463 10.6941 21.3064C19.9541 30.5664 25.7317 30.4211 28.351 29.7026C29.1435 29.477 29.819 28.9551 30.2373 28.2451L31.8133 25.6181C32.1729 25.0186 31.9983 24.2425 31.4167 23.8548Z" fill="black"/>
<path d="M31.4167 23.8548L25.1343 19.6668C24.5637 19.2871 23.7969 19.4116 23.3757 19.9523L21.5462 22.3041C21.1532 22.8145 20.4463 22.9612 19.8828 22.6491C18.6414 21.9586 17.1735 21.3085 13.9346 18.0654C10.6957 14.8223 10.0414 13.3586 9.35083 12.1172C9.03882 11.5537 9.18548 10.8467 9.69583 10.4538L12.0477 8.62437C12.5883 8.2032 12.7128 7.4364 12.3332 6.86576L8.14516 0.583354C7.75745 0.00175893 6.98133 -0.172848 6.38192 0.18662L3.75484 1.76266C3.04486 2.18095 2.52297 2.85641 2.29727 3.649C1.57886 6.26829 1.43402 12.0463 10.6941 21.3064C19.9541 30.5664 25.7317 30.4211 28.351 29.7026C29.1435 29.477 29.819 28.9551 30.2373 28.2451L31.8133 25.6181C32.1729 25.0186 31.9983 24.2425 31.4167 23.8548Z" fill="white"/>
<path d="M16.8001 1.59998C24.3076 1.60832 30.3916 7.69233 30.3999 15.2C30.3999 15.6418 30.7581 16 31.2 16C31.6418 16 32 15.6418 32 15.2C31.9908 6.8091 25.191 0.00924376 16.8002 2.11415e-08C16.3584 2.11415e-08 16.0002 0.35815 16.0002 0.800036C16.0001 1.24174 16.3582 1.59998 16.8001 1.59998Z" fill="black"/>
<path d="M16.8001 1.59998C24.3076 1.60832 30.3916 7.69233 30.3999 15.2C30.3999 15.6418 30.7581 16 31.2 16C31.6418 16 32 15.6418 32 15.2C31.9908 6.8091 25.191 0.00924376 16.8002 2.11415e-08C16.3584 2.11415e-08 16.0002 0.35815 16.0002 0.800036C16.0001 1.24174 16.3582 1.59998 16.8001 1.59998Z" fill="white"/>
<path d="M16.8 6.39989C21.6577 6.4056 25.5942 10.3422 25.5999 15.1998C25.5999 15.6416 25.958 15.9999 26.3999 15.9999C26.8417 15.9999 27.1999 15.6417 27.1999 15.1998C27.1933 9.45884 22.5411 4.80643 16.8 4.79982C16.3582 4.79982 16 5.15797 16 5.59985C16 6.04174 16.3581 6.39989 16.8 6.39989Z" fill="black"/>
<path d="M16.8 6.39989C21.6577 6.4056 25.5942 10.3422 25.5999 15.1998C25.5999 15.6416 25.958 15.9999 26.3999 15.9999C26.8417 15.9999 27.1999 15.6417 27.1999 15.1998C27.1933 9.45884 22.5411 4.80643 16.8 4.79982C16.3582 4.79982 16 5.15797 16 5.59985C16 6.04174 16.3581 6.39989 16.8 6.39989Z" fill="white"/>
<path d="M16.8001 11.1999C19.0082 11.2026 20.7974 12.9919 20.8001 15.1999C20.8001 15.6417 21.1582 16 21.6001 16C22.0419 16 22.4001 15.6418 22.4001 15.1999C22.3966 12.1086 19.8915 9.60349 16.8002 9.59995C16.3584 9.59995 16.0002 9.9581 16.0002 10.4C16.0001 10.8418 16.3582 11.1999 16.8001 11.1999Z" fill="black"/>
<path d="M16.8001 11.1999C19.0082 11.2026 20.7974 12.9919 20.8001 15.1999C20.8001 15.6417 21.1582 16 21.6001 16C22.0419 16 22.4001 15.6418 22.4001 15.1999C22.3966 12.1086 19.8915 9.60349 16.8002 9.59995C16.3584 9.59995 16.0002 9.9581 16.0002 10.4C16.0001 10.8418 16.3582 11.1999 16.8001 11.1999Z" fill="white"/>
</g>
<defs>
<filter id="filter0_d" x="0" y="0" width="34" height="34" filterUnits="userSpaceOnUse" color-interpolation-filters="sRGB">
<feFlood flood-opacity="0" result="BackgroundImageFix"/>
<feColorMatrix in="SourceAlpha" type="matrix" values="0 0 0 0 0 0 0 0 0 0 0 0 0 0 0 0 0 0 127 0"/>
<feOffset dy="2"/>
<feGaussianBlur stdDeviation="1"/>
<feColorMatrix type="matrix" values="0 0 0 0 0 0 0 0 0 0 0 0 0 0 0 0 0 0 0.25 0"/>
<feBlend mode="normal" in2="BackgroundImageFix" result="effect1_dropShadow"/>
<feBlend mode="normal" in="SourceGraphic" in2="effect1_dropShadow" result="shape"/>
</filter>
</defs>
</svg>
