<svg xmlns="http://www.w3.org/2000/svg" width="151" height="151" viewBox="0 0 151 151" fill="none" class="preloader-image">
    <g clip-path="url(#clip0)">
        <path class="level-1" d="M113.5 83.5H126C126.5 83.5 127.5 83 127.5 81.75C127.5 80.5 126.5 80 126 80H80C79.5 80 79 80.5 79 81.25C79 82 79.5 82.5 80 82.5H112C113.5 82.5 113.5 83.5 113.5 83.5Z" fill="#153A47"></path>
        <path class="level-2" d="M113.5 77.5H126C126.5 77.5 127.5 77 127.5 75.75C127.5 74.5 126.5 74 126 74H80C79.5 74 79 74.5 79 75.25C79 76 79.5 76.5 80 76.5H112C113.5 76.5 113.5 77.5 113.5 77.5Z" fill="#153A47"></path>
        <path class="level-3" d="M113 71.5H125.5C126 71.5 127 71 127 69.75C127 68.5 126 68 125.5 68H80C79.5 68 79 68.5 79 69.25C79 70 79.5 70.5 80 70.5H111.5C113 70.5 113 71.5 113 71.5Z" fill="#153A47"></path>
        <path class="level-3" d="M55 71.5H67.5C68 71.5 69 71 69 69.75C69 68.5 68 68 67.5 68H20.5C20 68 19.5 68.5 19.5 69.25C19.5 70 20 70.5 20.5 70.5H53.5C55 70.5 55 71.5 55 71.5Z" fill="#153A47"></path>
        <path class="level-1" d="M55 83.5H67.5C68 83.5 69 83 69 81.75C69 80.5 68 80 67.5 80H20.5C20 80 19.5 80.5 19.5 81.25C19.5 82 20 82.5 20.5 82.5H53.5C55 82.5 55 83.5 55 83.5Z" fill="#153A47"></path>
        <path class="level-2" d="M55 77.5H67.5C68 77.5 69 77 69 75.75C69 74.5 68 74 67.5 74H20.5C20 74 19.5 74.5 19.5 75.25C19.5 76 20 76.5 20.5 76.5H53.5C55 76.5 55 77.5 55 77.5Z" fill="#153A47"></path>
        <path class="level-4" d="M113 65.5H125.5C126 65.5 127 65 127 63.75C127 62.5 126 62 125.5 62H80C79.5 62 79 62.5 79 63.25C79 64 79.5 64.5 80 64.5H111.5C113 64.5 113 65.5 113 65.5Z" fill="#153A47"></path>
        <path class="level-4" d="M55 65.5H67.5C68 65.5 69 65 69 63.75C69 62.5 68 62 67.5 62H20.5C20 62 19.5 62.5 19.5 63.25C19.5 64 20 64.5 20.5 64.5H53.5C55 64.5 55 65.5 55 65.5Z" fill="#153A47"></path>
        <path class="level-5" d="M112 59.5H124.5C125 59.5 126 59 126 57.75C126 56.5 125 56 124.5 56H80C79.5 56 79 56.5 79 57.25C79 58 79.5 58.5 80 58.5H110.5C112 58.5 112 59.5 112 59.5Z" fill="#153A47"></path>
        <path class="level-5" d="M55 59.5H67.5C68 59.5 69 59 69 57.75C69 56.5 68 56 67.5 56H20.5C20 56 19.5 56.5 19.5 57.25C19.5 58 20 58.5 20.5 58.5H53.5C55 58.5 55 59.5 55 59.5Z" fill="#153A47"></path>
        <path class="level-6" d="M112 53.5H124.5C125 53.5 126 53 126 51.75C126 50.5 125 50 124.5 50H80C79.5 50 79 50.5 79 51.25C79 52 79.5 52.5 80 52.5H110.5C112 52.5 112 53.5 112 53.5Z" fill="#153A47"></path>
        <path class="level-6" d="M55 53.5H67.5C68 53.5 69 53 69 51.75C69 50.5 68 50 67.5 50H23C22.5 50 22 50.5 22 51.25C22 52 22.5 52.5 23 52.5H53.5C55 52.5 55 53.5 55 53.5Z" fill="#153A47"></path>
        <path class="level-7" d="M111 47.5H123.5C124 47.5 125 47 125 45.75C125 44.5 124 44 123.5 44H80C79.5 44 79 44.5 79 45.25C79 46 79.5 46.5 80 46.5H109.5C111 46.5 111 47.5 111 47.5Z" fill="#153A47"></path>
        <path class="level-7" d="M55 47.5H67.5C68 47.5 69 47 69 45.75C69 44.5 68 44 67.5 44H26C25.5 44 25 44.5 25 45.25C25 46 25.5 46.5 26 46.5H53.5C55 46.5 55 47.5 55 47.5Z" fill="#153A47"></path>
        <path class="level-8" d="M111 41.5H123.5C124 41.5 125 41 125 39.75C125 38.5 124 38 123.5 38H80C79.5 38 79 38.5 79 39.25C79 40 79.5 40.5 80 40.5H109.5C111 40.5 111 41.5 111 41.5Z" fill="#153A47"></path>
        <path class="level-8" d="M55 41.5H67.5C68 41.5 69 41 69 39.75C69 38.5 68 38 67.5 38H29C28.5 38 28 38.5 28 39.25C28 40 28.5 40.5 29 40.5H53.5C55 40.5 55 41.5 55 41.5Z" fill="#153A47"></path>
        <path class="level-9" d="M110 35.5H122.5C123 35.5 124 35 124 33.75C124 32.5 123 32 122.5 32H80C79.5 32 79 32.5 79 33.25C79 34 79.5 34.5 80 34.5H108.5C110 34.5 110 35.5 110 35.5Z" fill="#153A47"></path>
        <path class="level-9" d="M55 35.5H67.5C68 35.5 69 35 69 33.75C69 32.5 68 32 67.5 32H32C31.5 32 31 32.5 31 33.25C31 34 31.5 34.5 32 34.5H53.5C55 34.5 55 35.5 55 35.5Z" fill="#153A47"></path>
        <path class="level-10" d="M110 29.5H122.5C123 29.5 124 29 124 27.75C124 26.5 123 26 122.5 26H80C79.5 26 79 26.5 79 27.25C79 28 79.5 28.5 80 28.5H108.5C110 28.5 110 29.5 110 29.5Z" fill="#153A47"></path>
        <path class="level-10" d="M55 29.5H67.5C68 29.5 69 29 69 27.75C69 26.5 68 26 67.5 26H34.5C34 26 33.5 26.5 33.5 27.25C33.5 28 34 28.5 34.5 28.5H53.5C55 28.5 55 29.5 55 29.5Z" fill="#153A47"></path>
        <path class="level-11" d="M109 23.5H121.5C122 23.5 123 23 123 21.75C123 20.5 122 20 121.5 20H80C79.5 20 79 20.5 79 21.25C79 22 79.5 22.5 80 22.5H107.5C109 22.5 109 23.5 109 23.5Z" fill="#153A47"></path>
        <path class="level-11" d="M55 23.5H67.5C68 23.5 69 23 69 21.75C69 20.5 68 20 67.5 20H38C37.5 20 37 20.5 37 21.25C37 22 37.5 22.5 38 22.5H53.5C55 22.5 55 23.5 55 23.5Z" fill="#153A47"></path>
        <path class="level-12" d="M109 17.5H121.5C122 17.5 123 17 123 15.75C123 14.5 122 14 121.5 14H80C79.5 14 79 14.5 79 15.25C79 16 79.5 16.5 80 16.5H107.5C109 16.5 109 17.5 109 17.5Z" fill="#153A47"></path>
        <path class="level-13" d="M109 11.5H121.5C122 11.5 123 11 123 9.75C123 8.5 122 8 121.5 8H80C79.5 8 79 8.5 79 9.25C79 10 79.5 10.5 80 10.5H107.5C109 10.5 109 11.5 109 11.5Z" fill="#153A47"></path>
        <path class="level-14" d="M108.5 5.5H113.5C114 5.5 115 5 115 3.75C115 2.5 114 2 113.5 2H99.5C99 2 98.5 2.5 98.5 3.25C98.5 4 99 4.5 99.5 4.5H107C108.5 4.5 108.5 5.5 108.5 5.5Z" fill="#153A47"></path>
        <path class="level-12" fill="#153A47" d="M55 17.5H60C60.5 17.5 61.5 17 61.5 15.75C61.5 14.5 60.5 14 60 14H40.5C40 14 39.5 14.5 39.5 15.25C39.5 16 40 16.5 40.5 16.5H53.5C55 16.5 55 17.5 55 17.5Z"></path>
        <path fill-rule="evenodd" class="text" clip-rule="evenodd" d="M120.994 144.9V147.282H111.577C111.262 147.282 110.966 147.282 110.665 147.222C110.351 147.159 110.057 147.026 109.782 146.765C109.498 146.494 109.344 146.173 109.262 145.839C109.185 145.522 109.174 145.208 109.174 144.921V134.952C109.174 134.639 109.225 134.325 109.318 134.04C109.411 133.754 109.551 133.497 109.728 133.301C110.001 133.003 110.334 132.842 110.679 132.758C111.008 132.679 111.334 132.667 111.619 132.667H120.914V135.322H113.045C112.94 135.322 112.826 135.327 112.726 135.348C112.642 135.367 112.565 135.397 112.505 135.451C112.374 135.569 112.372 135.782 112.372 135.933V138.495H120.714V141.15H112.372V144.173C112.372 144.247 112.386 144.322 112.409 144.387C112.43 144.446 112.458 144.492 112.484 144.518C112.523 144.555 112.6 144.581 112.7 144.597C112.831 144.62 113.003 144.625 113.204 144.625H120.994V144.898V144.9ZM70.4338 141.602H73.3591V144.8H70.1611V141.602H70.4338ZM70.4338 135.159H73.3591V138.357H70.1611V135.159H70.4338ZM39.8149 135.322V147.28H36.6169V135.322H31.1299V132.667H45.3205V135.322H39.8149ZM97.1065 136.217L97.0482 136.353L93.4493 145.739C93.2302 146.31 93.0204 146.725 92.6801 147.012C92.3328 147.306 91.8782 147.443 91.186 147.443C90.4354 147.443 89.9599 147.254 89.6172 146.937C89.2839 146.627 89.1021 146.215 88.9203 145.739L85.3237 136.353L85.2841 136.262L85.347 147.28H82.149V134.789C82.149 133.737 82.6921 133.204 83.2935 132.931C83.8645 132.672 84.4752 132.667 84.692 132.667C85.5801 132.667 86.1605 132.901 86.5754 133.274C86.9833 133.639 87.2117 134.127 87.4169 134.651L91.0554 144.038C91.0974 144.145 91.1417 144.238 91.1836 144.308C91.2279 144.236 91.2722 144.143 91.3118 144.038L94.9504 134.651C95.2814 133.798 95.687 133.304 96.1508 133.019C96.6193 132.733 97.1298 132.667 97.6752 132.667C98.4188 132.667 99.0691 132.842 99.5283 133.215C99.9619 133.57 100.218 134.087 100.218 134.789V147.28H97.0202L97.1041 136.215L97.1065 136.217ZM91.186 144.385L91.1813 144.383C91.1766 144.385 91.1743 144.385 91.186 144.385ZM91.1883 144.385C91.1999 144.385 91.1976 144.385 91.1929 144.383L91.1883 144.385ZM91.1929 144.383H91.186H91.1929ZM85.2398 136.066L85.2281 136.071C85.2491 136.068 85.2631 136.066 85.2398 136.066ZM59.4855 132.94V147.28H56.2875V132.667H59.4855V132.94Z" fill="#153A47"></path>
        <path class="text" d="M18.307 122.383H6.59649C4.56627 122.383 2.98824 121.889 1.86007 120.903C0.622355 119.859 0 118.353 0 116.379V100.442C0 98.4984 0.550096 96.9693 1.65029 95.8551C2.75048 94.7433 4.27024 94.1862 6.21656 94.1862H18.307V98.2443H7.6524C5.28652 98.2443 4.10241 99.3096 4.10241 101.433V106.277H18.307V110.337H4.10241V115.097C4.10241 117.248 5.3005 118.325 7.69436 118.325H18.3047V122.386L18.307 122.383ZM152.12 109.531L138.212 115.195V115.829C138.212 116.957 138.524 117.759 139.146 118.237C139.571 118.575 140.305 118.745 141.351 118.745H152.123V122.381H140.68C138.701 122.381 137.249 121.987 136.314 121.197C135.128 120.211 134.536 118.689 134.536 116.631V106.612C134.536 103.004 136.466 101.2 140.328 101.2H146.713C150.318 101.2 152.125 103.088 152.125 106.864V109.528L152.12 109.531ZM148.4 107.475V107.137C148.4 105.549 147.444 104.755 145.538 104.755H141.538C139.321 104.755 138.212 105.661 138.212 107.475V111.687L148.4 107.475ZM132.872 101.202L124.713 120.903C124.233 122.059 123.417 122.637 122.261 122.637C121.105 122.637 120.289 122.059 119.809 120.903L111.607 101.202H115.371L122.219 117.733L129.151 101.202H132.872ZM109.842 95.5801C109.842 96.2281 109.602 96.7922 109.122 97.27C108.642 97.7502 108.08 97.9879 107.432 97.9879C106.782 97.9879 106.227 97.7548 105.761 97.2887C105.295 96.8248 105.061 96.27 105.061 95.6197C105.061 94.9438 105.288 94.3657 105.74 93.8855C106.19 93.41 106.754 93.1699 107.432 93.1699C108.108 93.1699 108.679 93.4007 109.143 93.8669C109.609 94.3307 109.842 94.9018 109.842 95.5801ZM109.292 122.381H105.7V101.202H109.292V122.381ZM102.444 104.752H92.88C92.0083 104.752 91.3626 104.894 90.9431 105.176C90.3533 105.575 90.0596 106.116 90.0596 106.799V107.65C90.0596 109.13 91.0316 109.866 92.9756 109.866H97.712C99.0919 109.866 100.227 110.332 101.115 111.26C102.003 112.193 102.446 113.346 102.446 114.729V117.39C102.446 118.717 101.996 119.901 101.097 120.943C100.56 121.563 100.001 121.973 99.4089 122.169C98.9311 122.311 98.2295 122.381 97.3018 122.381H86.4654V118.745H96.3251C97.3368 118.745 98.0104 118.465 98.346 117.899C98.6001 117.502 98.726 116.77 98.726 115.701C98.726 114.234 97.9358 113.503 96.3554 113.503H91.8754C90.3533 113.503 89.0993 113.095 88.1133 112.276C87.0155 111.405 86.463 110.235 86.463 108.768V105.936C86.463 104.358 87.097 103.076 88.3604 102.09C89.1179 101.498 90.302 101.202 91.9034 101.202H102.444V104.755V104.752ZM83.2673 117.055C83.2673 120.607 81.3653 122.379 77.5613 122.379H71.347C67.5406 122.379 65.6409 120.605 65.6409 117.055V101.202H69.2329V115.997C69.2329 116.871 69.5033 117.575 70.0441 118.111C70.4683 118.535 71.2911 118.745 72.5148 118.745H76.4354C78.5962 118.745 79.6754 117.843 79.6754 116.039V101.2H83.2697V117.052L83.2673 117.055ZM62.035 122.381H58.4407V93.7177H62.035V122.381ZM55.4222 122.381H47.1778C43.2315 122.381 41.2596 120.507 41.2596 116.756V106.526C41.2596 102.974 42.9238 101.2 46.2477 101.2H55.3383V104.752H47.7395C46.665 104.752 45.9121 104.95 45.4902 105.347C45.0659 105.741 44.8538 106.461 44.8538 107.507V115.903C44.8538 117.798 45.8724 118.745 47.9097 118.745H55.4222V122.381ZM39.6839 122.381H35.3297L30.1714 114.983L25.0154 122.381H20.7032L28.1854 111.472L21.1694 101.2H25.4396L30.1318 108.006L34.9078 101.2H39.1781L32.2459 111.472L39.6839 122.381Z" fill="#153A47"></path>

    </g>
    <defs>
        <clipPath id="clip0">
            <rect width="151" height="151" fill="white"></rect>
        </clipPath>
    </defs>
    <style>
        .preloader-image path:not(.text){
        transition: .3s all;
        animation-duration: 3s;
        animation-name: preloader;
        animation-iteration-count: infinite;
        }

        @keyframes preloader {
        0% {
        transform: translateX(-15rem);
        }
        10% {
        transform: translateX(0rem);
        }
        80% {
        transform: translateX(0rem);
        }
        100% {
        transform: translateX(15rem);
        }
        }

        .level-1 {animation-delay: 100ms;}
        .level-2 {animation-delay: 200ms;}
        .level-3 {animation-delay: 300ms;}
        .level-4 {animation-delay: 400ms;}
        .level-5 {animation-delay: 500ms;}
        .level-6 {animation-delay: 600ms;}
        .level-7 {animation-delay: 700ms;}
        .level-8 {animation-delay: 800ms;}
        .level-9 {animation-delay: 900ms;}
        .level-10 {animation-delay: 1000ms;}
        .level-11 {animation-delay: 1100ms;}
        .level-12 {animation-delay: 1200ms;}
        .level-13 {animation-delay: 1300ms;}
        .level-14 {animation-delay: 1400ms;}
    </style>
</svg>