<svg display="none" xmlns="http://www.w3.org/2000/svg">

    <symbol id="arrow-left" fill="none" viewBox="0 0 18 30" id=".8003608876554205" xmlns="http://www.w3.org/2000/svg">
        <path d="M16.919.55a1.89 1.89 0 0 1 0 2.65L5.246 15 16.92 26.8a1.89 1.89 0 0 1 0 2.65 1.84 1.84 0 0 1-2.623 0L0 15 14.296.55a1.84 1.84 0 0 1 2.623 0z" fill="#BEBEBE"/>
    </symbol>

    <symbol id="arrow-right" fill="none" viewBox="0 0 18 30" id=".2787344659538813" xmlns="http://www.w3.org/2000/svg">
        <path fill-rule="evenodd" clip-rule="evenodd" d="M1.081.55a1.84 1.84 0 0 1 2.623 0L18 15 3.704 29.45a1.84 1.84 0 0 1-2.623 0 1.89 1.89 0 0 1 0-2.65L12.754 15 1.08 3.2a1.89 1.89 0 0 1 0-2.65z" fill="#BEBEBE"/>
    </symbol>

</svg>