<svg width="28" height="28" viewBox="0 0 28 28" fill="none" xmlns="http://www.w3.org/2000/svg">
<g clip-path="url(#clip0)">
<path d="M15.2069 1.2065V12.0686C15.2064 13.4015 14.126 14.4819 12.7931 14.4824C12.4088 14.4819 12.0402 14.6343 11.7684 14.906C11.4967 15.1777 11.3443 15.5464 11.3448 15.9306V26.31C11.3438 27.2427 10.5879 27.9986 9.65516 27.9996H8.68965C7.7569 27.9986 7.00101 27.2427 6.99999 26.31V15.9306C6.9988 15.1313 6.35108 14.4836 5.55172 14.4824C4.21882 14.4819 3.13841 13.4015 3.13793 12.0686V1.28374C3.13256 0.942388 3.26546 0.613372 3.50641 0.371515C3.74735 0.129659 4.07587 -0.00448088 4.41724 -0.000397719C5.05535 0.0379573 5.55287 0.567234 5.55172 1.2065V9.65478C5.55249 9.92108 5.76818 10.1368 6.03448 10.1375H7.48275C7.74905 10.1368 7.96474 9.92108 7.96551 9.65478V1.28374C7.95666 0.600646 8.49008 0.0330906 9.17241 -0.000397719H9.24482C9.88293 0.0379573 10.3805 0.567234 10.3793 1.2065V9.65478C10.3801 9.92108 10.5958 10.1368 10.8621 10.1375H12.3103C12.5766 10.1368 12.7923 9.92108 12.7931 9.65478V1.28374C12.7877 0.942388 12.9206 0.613372 13.1616 0.371515C13.4025 0.129659 13.731 -0.00448088 14.0724 -0.000397719C14.7105 0.0379573 15.208 0.567234 15.2069 1.2065Z" fill="#285680"/>
<path d="M20.5028 18.3373V26.3104C20.5028 26.7585 20.6808 27.1883 20.9977 27.5051C21.3145 27.822 21.7443 28 22.1924 28H23.1579C23.6061 28 24.0358 27.822 24.3527 27.5051C24.6696 27.1883 24.8476 26.7585 24.8476 26.3104V8.93106L24.8621 0.48278C24.8614 0.316196 24.7758 0.161469 24.635 0.0724767C24.4941 -0.0165152 24.3176 -0.027454 24.1669 0.0434695C22.936 0.701182 21.8711 1.63068 21.0531 2.7614C20.0065 4.1137 19.3116 5.70437 19.0303 7.39106L18.9724 7.73382L18.9145 8.07657C18.7995 8.72671 18.7446 9.38603 18.7503 10.0462C18.7557 10.7052 18.8171 11.3625 18.9338 12.0111C19.2807 13.8425 19.7537 15.6478 20.3493 17.414C20.4502 17.7114 20.502 18.0232 20.5028 18.3373V18.3373Z" fill="#4482C3"/>
</g>
<defs>
<clipPath id="clip0">
<rect width="28" height="28" fill="white"/>
</clipPath>
</defs>
</svg>
