<svg width="52" height="52" viewBox="0 0 52 52" fill="none" xmlns="http://www.w3.org/2000/svg">
<g filter="url(#filter0_d)">
<path d="M46 22C46 28.5438 42.8573 34.3536 37.9988 38.0023C34.6564 40.5126 30.5019 42 26 42C21.4981 42 17.3436 40.5126 14.0012 38.0023C9.14272 34.3536 6 28.5438 6 22C6 10.9543 14.9543 2 26 2C37.0457 2 46 10.9543 46 22Z" fill="white"/>
<path d="M45 22C45 28.216 42.0161 33.7347 37.3983 37.2027C34.2231 39.5874 30.278 41 26 41C21.722 41 17.7769 39.5874 14.6017 37.2027C9.9839 33.7347 7 28.216 7 22C7 11.5066 15.5066 3 26 3C36.4934 3 45 11.5066 45 22Z" stroke="#2AADB9" stroke-width="2"/>
</g>
<path d="M24.5938 16.25C24.7181 16.25 24.8373 16.2006 24.9252 16.1127C25.0131 16.0248 25.0625 15.9056 25.0625 15.7812V11.0937C25.0625 10.2235 25.4082 9.38891 26.0236 8.77356C26.6389 8.1582 27.4735 7.8125 28.3438 7.8125C29.214 7.8125 30.0486 8.1582 30.6639 8.77356C31.2793 9.38891 31.625 10.2235 31.625 11.0937V15.7812C31.625 15.9056 31.6744 16.0248 31.7623 16.1127C31.8502 16.2006 31.9694 16.25 32.0938 16.25C32.2181 16.25 32.3373 16.2006 32.4252 16.1127C32.5131 16.0248 32.5625 15.9056 32.5625 15.7812V11.0937C32.5625 9.97487 32.118 8.90181 31.3269 8.11064C30.5357 7.31947 29.4626 6.875 28.3438 6.875C27.2249 6.875 26.1518 7.31947 25.3606 8.11064C24.5695 8.90181 24.125 9.97487 24.125 11.0937V15.7812C24.125 15.9056 24.1744 16.0248 24.2623 16.1127C24.3502 16.2006 24.4694 16.25 24.5938 16.25Z" fill="#DADCDE"/>
<path d="M23.6562 32.6563H39.5937L38.6562 13.9062H24.5937L23.6562 32.6563Z" fill="#EB423F"/>
<path d="M19.9062 32.6563H23.6562L24.5938 13.9062H20.8438L19.9062 32.6563Z" fill="#D13330"/>
<path d="M21.7537 30.3119C21.7631 30.3125 21.7725 30.3125 21.7818 30.3125C21.9013 30.3124 22.0163 30.2667 22.1032 30.1847C22.1901 30.1027 22.2424 29.9906 22.2494 29.8713L23.1869 13.9338C23.1875 13.9244 23.1875 13.9156 23.1875 13.9062H22.2488L21.3131 29.8162C21.3058 29.9404 21.3482 30.0623 21.4308 30.1553C21.5134 30.2482 21.6296 30.3046 21.7537 30.3119V30.3119Z" fill="#A82A27"/>
<path d="M12.4062 32.6563H16.1562L16.2148 31.8986V31.898L17.0938 20.4688H13.3437L12.4795 31.7006V31.7012L12.4062 32.6563Z" fill="#EBA72E"/>
<path d="M14.2344 30.3102C14.2501 30.3118 14.266 30.3126 14.2818 30.3125C14.3979 30.3124 14.5099 30.2691 14.5959 30.1912C14.682 30.1133 14.736 30.0061 14.7476 29.8906L14.7646 29.723L15.6851 20.5156C15.6868 20.5001 15.6876 20.4844 15.6875 20.4688H14.7476L13.8266 29.6803L13.8148 29.7969C13.8087 29.8581 13.8146 29.92 13.8324 29.9789C13.8501 30.0379 13.8793 30.0927 13.9183 30.1404C13.9573 30.1881 14.0052 30.2276 14.0594 30.2567C14.1137 30.2858 14.1731 30.304 14.2344 30.3102V30.3102Z" fill="#E09F2C"/>
<path d="M12.4062 32.6567H12.9699L14.2812 30.6891L15.5926 32.6567H16.1562L16.2148 31.8991V31.8985L14.7646 29.7235L14.6715 29.5841C14.6286 29.5199 14.5706 29.4673 14.5025 29.4309C14.4344 29.3945 14.3584 29.3755 14.2812 29.3755C14.2041 29.3755 14.1281 29.3945 14.06 29.4309C13.9919 29.4673 13.9339 29.5199 13.891 29.5841L13.8266 29.6807L12.4795 31.7011V31.7016L12.4062 32.6567Z" fill="#E09F2C"/>
<path d="M16.1562 32.6563H28.3438L27.4062 20.4688H17.0938L16.1562 32.6563Z" fill="#F7B030"/>
<path d="M21.7813 29.375H22.7188C23.3401 29.3743 23.9359 29.1271 24.3753 28.6878C24.8146 28.2484 25.0618 27.6526 25.0625 27.0312V23.2812C25.0625 23.1569 25.0131 23.0377 24.9252 22.9498C24.8373 22.8619 24.7181 22.8125 24.5938 22.8125C24.4694 22.8125 24.3502 22.8619 24.2623 22.9498C24.1744 23.0377 24.125 23.1569 24.125 23.2812V27.0312C24.1246 27.4041 23.9763 27.7615 23.7127 28.0252C23.449 28.2888 23.0916 28.4371 22.7188 28.4375H21.7813C21.4084 28.4371 21.051 28.2888 20.7873 28.0252C20.5237 27.7615 20.3754 27.4041 20.375 27.0312V23.2812C20.375 23.1569 20.3256 23.0377 20.2377 22.9498C20.1498 22.8619 20.0306 22.8125 19.9063 22.8125C19.7819 22.8125 19.6627 22.8619 19.5748 22.9498C19.4869 23.0377 19.4375 23.1569 19.4375 23.2812V27.0312C19.4382 27.6526 19.6854 28.2484 20.1247 28.6878C20.5641 29.1271 21.1599 29.3743 21.7813 29.375V29.375Z" fill="#E9EEF2"/>
<path d="M35.375 15.7812H34.4375V18.5938H35.375V15.7812Z" fill="#DADCDE"/>
<path d="M34.9062 16.25C35.0306 16.25 35.1498 16.2006 35.2377 16.1127C35.3256 16.0248 35.375 15.9056 35.375 15.7812V11.0937C35.375 9.97487 34.9305 8.90181 34.1394 8.11064C33.3482 7.31947 32.2751 6.875 31.1562 6.875C30.0374 6.875 28.9643 7.31947 28.1731 8.11064C27.382 8.90181 26.9375 9.97487 26.9375 11.0937V15.7812C26.9375 15.9056 26.9869 16.0248 27.0748 16.1127C27.1627 16.2006 27.2819 16.25 27.4062 16.25C27.5306 16.25 27.6498 16.2006 27.7377 16.1127C27.8256 16.0248 27.875 15.9056 27.875 15.7812V11.0937C27.875 10.2235 28.2207 9.38891 28.8361 8.77356C29.4514 8.1582 30.286 7.8125 31.1562 7.8125C32.0265 7.8125 32.8611 8.1582 33.4764 8.77356C34.0918 9.38891 34.4375 10.2235 34.4375 11.0937V15.7812C34.4375 15.9056 34.4869 16.0248 34.5748 16.1127C34.6627 16.2006 34.7819 16.25 34.9062 16.25Z" fill="#E9EEF2"/>
<path d="M33.5 22.3438H36.3125V18.5938L34.9062 17.6562L33.5 18.5938V22.3438Z" fill="#F7B030"/>
<defs>
<filter id="filter0_d" x="0" y="0" width="52" height="52" filterUnits="userSpaceOnUse" color-interpolation-filters="sRGB">
<feFlood flood-opacity="0" result="BackgroundImageFix"/>
<feColorMatrix in="SourceAlpha" type="matrix" values="0 0 0 0 0 0 0 0 0 0 0 0 0 0 0 0 0 0 127 0"/>
<feOffset dy="4"/>
<feGaussianBlur stdDeviation="3"/>
<feColorMatrix type="matrix" values="0 0 0 0 0 0 0 0 0 0 0 0 0 0 0 0 0 0 0.25 0"/>
<feBlend mode="normal" in2="BackgroundImageFix" result="effect1_dropShadow"/>
<feBlend mode="normal" in="SourceGraphic" in2="effect1_dropShadow" result="shape"/>
</filter>
</defs>
</svg>
