<svg width="50" height="50" viewBox="0 0 50 50" fill="none" xmlns="http://www.w3.org/2000/svg">
<path d="M25 5.83337C17.6483 5.83337 11.6667 11.815 11.6667 19.1667C11.6667 26.5183 17.6483 32.5001 25 32.5001C32.3517 32.5001 38.3333 26.5184 38.3333 19.1668C38.3333 11.8151 32.3517 5.83337 25 5.83337ZM26.6667 21.6668H24.1667V27.5001C24.1667 27.96 23.7934 28.3334 23.3334 28.3334H20C19.54 28.3334 19.1667 27.96 19.1667 27.5001V10.8334C19.1667 10.3734 19.54 10.0001 20 10.0001H26.6667C29.8834 10.0001 32.5 12.6168 32.5 15.8334C32.5 19.05 29.8833 21.6668 26.6667 21.6668Z" fill="url(#paint0_linear)"/>
<path d="M44.1667 20.1667C44.1667 9.04668 35.5684 0 25 0C14.4317 0 5.83331 9.04668 5.83331 20.1667C5.83331 30.5259 21.9234 47.2301 24.1666 49.5092V41.6667C24.1666 41.2067 24.54 40.8334 24.9999 40.8334C25.4599 40.8334 25.8332 41.2067 25.8332 41.6667V49.5092C28.0767 47.23 44.1667 30.5259 44.1667 20.1667ZM25 34.1667C16.7292 34.1667 10 27.4375 10 19.1667C10 10.8959 16.7292 4.1667 25 4.1667C33.2708 4.1667 40 10.8959 40 19.1667C40 27.4375 33.2708 34.1667 25 34.1667Z" fill="url(#paint1_linear)"/>
<path d="M26.6667 13.3334H23.3334C22.8735 13.3334 22.5001 13.7067 22.5001 14.1667V17.5001C22.5001 17.96 22.8735 18.3334 23.3334 18.3334H26.6667C28.045 18.3334 29.1667 17.2117 29.1667 15.8334C29.1667 14.4551 28.045 13.3334 26.6667 13.3334Z" fill="url(#paint2_linear)"/>
<path d="M49.1667 48.3333H45.8334C45.3734 48.3333 45.0001 48.7066 45.0001 49.1665C45.0001 49.6265 45.3734 49.9998 45.8334 49.9998H49.1667C49.6267 49.9998 50 49.6265 50 49.1665C50 48.7066 49.6267 48.3333 49.1667 48.3333Z" fill="url(#paint3_linear)"/>
<path d="M20 48.3333H0.833301C0.37334 48.3333 0 48.7066 0 49.1666C0 49.6265 0.37334 49.9999 0.833301 49.9999H20C20.46 49.9999 20.8333 49.6266 20.8333 49.1666C20.8333 48.7067 20.46 48.3333 20 48.3333Z" fill="url(#paint4_linear)"/>
<path d="M40 48.3333H30C29.54 48.3333 29.1667 48.7066 29.1667 49.1666C29.1667 49.6265 29.54 49.9999 30 49.9999H40C40.4599 49.9999 40.8333 49.6266 40.8333 49.1666C40.8333 48.7067 40.4599 48.3333 40 48.3333Z" fill="url(#paint5_linear)"/>
<defs>
<linearGradient id="paint0_linear" x1="26.3815" y1="32.4283" x2="13.4122" y2="25.7622" gradientUnits="userSpaceOnUse">
<stop stop-color="#B08A6A"/>
<stop offset="1" stop-color="#8F6A4C"/>
</linearGradient>
<linearGradient id="paint1_linear" x1="26.9859" y1="49.376" x2="6.63957" y2="41.2787" gradientUnits="userSpaceOnUse">
<stop stop-color="#B08A6A"/>
<stop offset="1" stop-color="#8F6A4C"/>
</linearGradient>
<linearGradient id="paint2_linear" x1="26.1788" y1="18.3199" x2="23.3898" y2="16.4086" gradientUnits="userSpaceOnUse">
<stop stop-color="#B08A6A"/>
<stop offset="1" stop-color="#8F6A4C"/>
</linearGradient>
<linearGradient id="paint3_linear" x1="47.7591" y1="49.9954" x2="46.849" y2="48.592" gradientUnits="userSpaceOnUse">
<stop stop-color="#B08A6A"/>
<stop offset="1" stop-color="#8F6A4C"/>
</linearGradient>
<linearGradient id="paint4_linear" x1="11.4959" y1="49.9955" x2="11.193" y2="48.0489" gradientUnits="userSpaceOnUse">
<stop stop-color="#B08A6A"/>
<stop offset="1" stop-color="#8F6A4C"/>
</linearGradient>
<linearGradient id="paint5_linear" x1="35.6044" y1="49.9955" x2="35.09" y2="48.1447" gradientUnits="userSpaceOnUse">
<stop stop-color="#B08A6A"/>
<stop offset="1" stop-color="#8F6A4C"/>
</linearGradient>
</defs>
</svg>
