<svg width="80" height="142" viewBox="0 0 80 142" fill="none" xmlns="http://www.w3.org/2000/svg">
<g clip-path="url(#clip0)">
<path d="M34.2545 134.714H31.2622C30.7634 135.532 29.8258 136.071 28.8483 136.071C26.9133 136.071 25.5168 134.694 25.5168 132.738C25.5168 130.901 26.8135 129.484 28.7087 129.484C29.8458 129.484 30.6838 129.943 31.2622 130.921H34.2545C33.5962 128.526 31.1823 126.889 28.7485 126.889C25.5367 126.889 22.8636 129.464 22.8636 132.698C22.8636 134.335 23.4621 135.872 24.659 137.01C25.7363 138.048 27.2723 138.666 28.7685 138.666C31.2023 138.666 33.5364 137.069 34.2546 134.714H34.2545ZM36.1098 127.248V138.307H38.7631V127.248H36.1098ZM36.1098 123.555V125.971H38.7631V123.555H36.1098ZM41.2966 129.604V138.307H43.9499V129.604H45.5457V127.248H43.9499V123.555H41.2966V127.248H39.9999V129.604H41.2966ZM49.9746 137.269L47.9397 142H50.7924L57.1363 127.248H54.124L51.4706 134.335L48.9372 127.248H45.9248L49.9746 137.269Z" fill="#1DA1AD"/>
<path d="M3.4335 111.4H0.000110626C0.000110626 114.499 2.71323 116.83 5.73836 116.83C8.88369 116.83 11.5007 114.379 11.5007 111.208C11.5007 109.478 10.9005 108.181 9.628 107.172C8.61959 106.331 7.41912 105.971 6.17066 105.538C5.11417 105.178 3.9137 104.673 3.93774 103.376C3.9137 102.319 4.61001 101.502 5.69045 101.502C6.7229 101.502 7.63523 102.247 7.68322 103.352H11.0686C11.0926 100.565 8.61959 98.3067 5.88252 98.3067C3.04937 98.3067 0.648429 100.445 0.648429 103.352C0.648429 104.577 1.17663 105.874 2.04105 106.763C2.92934 107.676 3.93774 108.013 5.11426 108.397C6.57883 108.878 8.21151 109.454 8.21151 111.4C8.21151 112.697 7.15511 113.634 5.90656 113.634C4.58606 113.634 3.43359 112.817 3.43359 111.4H3.4335ZM13.4454 98.6431V116.397H16.6387V109.935C16.6387 108.998 16.6147 107.772 17.1428 106.932C17.647 106.163 18.4153 105.778 19.3277 105.778C21.8247 105.778 22.0407 107.892 22.0407 109.886V116.397H25.234V109.19C25.234 107.412 25.1859 105.826 23.9615 104.433C23.0251 103.352 21.4884 102.655 20.0479 102.655C18.8715 102.655 17.3588 103.112 16.6386 104.097V98.643H13.4453L13.4454 98.6431ZM41.3205 116.397V103.088H38.3914C38.3914 104.962 38.3914 104.962 38.3914 104.962C37.335 103.472 35.7504 102.655 33.9255 102.655C31.9808 102.655 30.3242 103.4 28.9797 104.962C27.7552 106.355 27.275 107.892 27.275 109.742C27.275 111.592 27.8752 113.322 28.9316 114.595C30.0842 115.965 31.7647 116.83 33.8295 116.83C35.5102 116.83 37.3829 115.965 38.3913 114.595V116.397H41.3204L41.3205 116.397ZM34.4537 105.778C36.7106 105.754 38.2954 107.484 38.2954 109.718C38.2954 112.001 36.7107 113.73 34.4058 113.706C32.2449 113.73 30.4683 112.049 30.4683 109.862C30.4683 107.532 32.1009 105.754 34.4538 105.778L34.4537 105.778ZM43.6974 98.6431V116.397H46.8906V109.935C46.8906 108.998 46.8667 107.772 47.3948 106.932C47.899 106.163 48.6673 105.778 49.5797 105.778C52.0767 105.778 52.2927 107.892 52.2927 109.886V116.397H55.486V109.19C55.486 107.412 55.438 105.826 54.2135 104.433C53.2771 103.352 51.7405 102.655 50.3 102.655C49.1236 102.655 47.6109 103.112 46.8905 104.097V98.643H43.6973L43.6974 98.6431ZM71.5725 116.397V103.088H68.6433C68.6433 104.962 68.6433 104.962 68.6433 104.962C67.5868 103.472 66.0023 102.655 64.1775 102.655C62.2327 102.655 60.5761 103.4 59.2316 104.962C58.0071 106.355 57.5269 107.892 57.5269 109.742C57.5269 111.592 58.1271 113.322 59.1836 114.595C60.336 115.965 62.0167 116.83 64.0814 116.83C65.7621 116.83 67.6348 115.965 68.6432 114.595V116.397H71.5724L71.5725 116.397ZM64.7057 105.778C66.9626 105.754 68.5473 107.484 68.5473 109.718C68.5473 112.001 66.9627 113.73 64.6578 113.706C62.4968 113.73 60.7203 112.049 60.7203 109.862C60.7203 107.532 62.3529 105.754 64.7058 105.778L64.7057 105.778ZM73.9494 103.088V116.397H77.1426V109.214C77.1187 108.109 77.1426 107.124 78.0549 106.379C78.5831 105.97 79.3515 105.754 79.9997 105.754V102.655H79.7597C78.4392 102.655 77.5988 103.16 76.8545 104.289V103.088H73.9494V103.088Z" fill="url(#paint0_linear)"/>
<path fill-rule="evenodd" clip-rule="evenodd" d="M52.6018 64.643L41.4669 60.4056L38.0259 59.0962L26.8524 54.8441L23.7132 53.6495L16.0369 50.7284V89.6211H41.5789V69.0184L37.9301 67.5028L38.0677 86.0341L19.4793 85.9652V56.2051L30.9714 60.9584V77.6296H27.2588V63.714L23.6789 62.2674L23.6102 81.2808H34.3501L34.2813 62.1984L59.7544 72.0496V85.6896H49.4962V75.9074L52.3835 76.6815V81.1601H56.4929V74.6155L45.168 70.2065V89.6211H63.9631V68.9664L52.6018 64.643Z" fill="url(#paint1_linear)"/>
<path fill-rule="evenodd" clip-rule="evenodd" d="M30.636 31.2067L34.6764 29.321V6.5703L45.9058 13.0574V29.5439L49.1272 28.2838V10.0656L30.5843 -0.000183105L30.6359 31.2065L30.636 31.2067ZM38.2709 13.6142L38.2906 32.5228L41.3675 31.3193L41.4065 15.784L38.2709 13.6142Z" fill="url(#paint2_linear)"/>
<path fill-rule="evenodd" clip-rule="evenodd" d="M24.982 54.1491V37.6568L39.5594 31.9546L42.6363 30.751L47.1747 28.9758L50.3961 27.7159V27.729L57.2115 25.0667L57.205 66.3755L42.736 60.8855L42.9435 42.6505L47.0055 41.066V58.4952L49.9658 59.7007V36.1062L39.2946 40.4462V59.5798L24.982 54.1492V54.1491ZM53.8901 30.6298L53.8705 65.1425L42.7356 60.9052L39.2945 59.5957L28.1212 55.3437L28.2103 40.1704L32.2382 38.5262V52.7432L35.887 54.1899V37.2479L53.8902 30.6297L53.8901 30.6298Z" fill="url(#paint3_radial)"/>
</g>
<defs>
<linearGradient id="paint0_linear" x1="44.1444" y1="116.78" x2="35.8471" y2="98.3605" gradientUnits="userSpaceOnUse">
<stop stop-color="#B08A6A"/>
<stop offset="1" stop-color="#8F6A4C"/>
</linearGradient>
<linearGradient id="paint1_linear" x1="56.985" y1="62.8311" x2="53.6836" y2="101.632" gradientUnits="userSpaceOnUse">
<stop stop-color="#15808A"/>
<stop offset="0.380392" stop-color="#1B8D98"/>
<stop offset="1" stop-color="#3DD5E3"/>
</linearGradient>
<linearGradient id="paint2_linear" x1="39.8558" y1="-2.90469e-06" x2="39.8558" y2="32.5228" gradientUnits="userSpaceOnUse">
<stop stop-color="#15808A"/>
<stop offset="0.341176" stop-color="#1A8B96"/>
<stop offset="1" stop-color="#31BCC9"/>
</linearGradient>
<radialGradient id="paint3_radial" cx="0" cy="0" r="1" gradientUnits="userSpaceOnUse" gradientTransform="translate(42.0633 63.898) rotate(-20.1128) scale(26.7382 26.7508)">
<stop stop-color="#BD9E83"/>
<stop offset="1" stop-color="#8F6A4C"/>
</radialGradient>
<clipPath id="clip0">
<rect width="80" height="142" fill="white"/>
</clipPath>
</defs>
</svg>
