<svg xmlns="http://www.w3.org/2000/svg" style="display: none;">

    <symbol id="icon-phone" fill="none" viewBox="0 0 14 14" xmlns="http://www.w3.org/2000/svg">
        <path fill-rule="evenodd" clip-rule="evenodd" d="M1.018 4.75L1 4.698C.595 3.538.25 1.952.25 1 .25.588.588.25 1 .25h2.25a1.5 1.5 0 0 1 1.5 1.5v1.5a1.5 1.5 0 0 1-1.5 1.5h-.628a12.04 12.04 0 0 0 6.628 6.628v-.628a1.5 1.5 0 0 1 1.5-1.5h1.5a1.5 1.5 0 0 1 1.5 1.5V13c0 .338-.412.75-.75.75-1.294 0-2.58-.342-3.75-.75a13.611 13.611 0 0 1-8.232-8.25z" fill="#fff"/>
    </symbol>

    <symbol id="icon-close" fill="none" viewBox="0 0 15 15" xmlns="http://www.w3.org/2000/svg">
        <path fill-rule="evenodd" clip-rule="evenodd" d="M.305.305a1.042 1.042 0 0 1 1.473 0L7.5 6.027 13.222.305a1.042 1.042 0 1 1 1.473 1.473L8.973 7.5l5.722 5.722a1.042 1.042 0 1 1-1.473 1.473L7.5 8.973l-5.722 5.722a1.042 1.042 0 0 1-1.473-1.473L6.027 7.5.305 1.778a1.042 1.042 0 0 1 0-1.473z" fill="#2C1F3D"/>
    </symbol>

</svg>