<svg xmlns="http://www.w3.org/2000/svg" style="visibility:hidden; width: 0; height: 0;">

    <defs>

    <linearGradient id="main_gradient">
        <stop offset="5%"  stop-color="gold" gradientTransform="rotate(90)"/>
      <stop offset="95%" stop-color="red" />
    </linearGradient>

    </defs> 

    <symbol id="icon-phone" fill="none" viewBox="0 0 14 14" xmlns="http://www.w3.org/2000/svg">
        <path fill-rule="evenodd" clip-rule="evenodd" d="M1.018 4.75L1 4.698C.595 3.538.25 1.952.25 1 .25.588.588.25 1 .25h2.25a1.5 1.5 0 0 1 1.5 1.5v1.5a1.5 1.5 0 0 1-1.5 1.5h-.628a12.04 12.04 0 0 0 6.628 6.628v-.628a1.5 1.5 0 0 1 1.5-1.5h1.5a1.5 1.5 0 0 1 1.5 1.5V13c0 .338-.412.75-.75.75-1.294 0-2.58-.342-3.75-.75a13.611 13.611 0 0 1-8.232-8.25z" fill="#fff"/>
    </symbol>

    <symbol id="icon-close" fill="none" viewBox="0 0 15 15" xmlns="http://www.w3.org/2000/svg">
        <path fill-rule="evenodd" clip-rule="evenodd" d="M.305.305a1.042 1.042 0 0 1 1.473 0L7.5 6.027 13.222.305a1.042 1.042 0 1 1 1.473 1.473L8.973 7.5l5.722 5.722a1.042 1.042 0 1 1-1.473 1.473L7.5 8.973l-5.722 5.722a1.042 1.042 0 0 1-1.473-1.473L6.027 7.5.305 1.778a1.042 1.042 0 0 1 0-1.473z" fill="#333"/>
    </symbol>

    <symbol id="icon-insta" fill="none" viewBox="0 0 18 18" xmlns="http://www.w3.org/2000/svg">
        <path d="M13.033 0H4.966A4.973 4.973 0 0 0 0 4.967v8.066A4.973 4.973 0 0 0 4.967 18h8.066A4.973 4.973 0 0 0 18 13.033V4.967A4.973 4.973 0 0 0 13.033 0zm3.37 13.033a3.374 3.374 0 0 1-3.37 3.37H4.967a3.374 3.374 0 0 1-3.37-3.37V4.967a3.374 3.374 0 0 1 3.37-3.37h8.066a3.374 3.374 0 0 1 3.37 3.37v8.066z" fill="#000"/>
        <path d="M9 4.362A4.643 4.643 0 0 0 4.362 9 4.643 4.643 0 0 0 9 13.638 4.643 4.643 0 0 0 13.638 9 4.643 4.643 0 0 0 9 4.362zm0 7.679A3.044 3.044 0 0 1 5.959 9 3.044 3.044 0 0 1 9 5.958 3.044 3.044 0 0 1 12.041 9 3.044 3.044 0 0 1 9 12.04zM13.833 3.008a1.176 1.176 0 0 0-1.172 1.171c0 .308.126.61.344.828.217.218.52.343.828.343.308 0 .61-.125.828-.343a1.176 1.176 0 0 0 0-1.657 1.176 1.176 0 0 0-.828-.342z" fill="#000"/>
    </symbol>

    <symbol id="icon_contacts_phone" fill="none" viewBox="0 0 18 18" xmlns="http://www.w3.org/2000/svg">
        <path fill="#3992DD" d="M1.024 6L1 5.931C.46 4.384 0 2.27 0 1c0-.55.45-1 1-1h3a2 2 0 0 1 2 2v2a2 2 0 0 1-2 2h-.837A16.054 16.054 0 0 0 12 14.837V14a2 2 0 0 1 2-2h2a2 2 0 0 1 2 2v3c0 .45-.55 1-1 1-1.726 0-3.44-.456-5-1-5.114-1.832-9.168-5.886-10.976-11z"/>
    </symbol>

    <symbol id="icon-contacts-address" fill="none" viewBox="0 0 18 18" xmlns="http://www.w3.org/2000/svg">
        <path fill="#3992DD" d="M8.92 0A7.122 7.122 0 0 0 1.8 7.155c0 4.944 5.1 9.477 6.67 10.677a.735.735 0 0 0 .935 0c1.572-1.236 6.63-5.733 6.63-10.677A7.12 7.12 0 0 0 8.92 0zm0 10.113a3 3 0 1 1 0-6 3 3 0 0 1 0 6z"/>
        <path fill="#3992DD" d="M8.92 0A7.122 7.122 0 0 0 1.8 7.155c0 4.944 5.1 9.477 6.67 10.677a.735.735 0 0 0 .935 0c1.572-1.236 6.63-5.733 6.63-10.677A7.12 7.12 0 0 0 8.92 0zm0 10.113a3 3 0 1 1 0-6 3 3 0 0 1 0 6z"/>
    </symbol>

    <symbol id="icon-contacts-insta" viewBox="0 0 18 18">
        <path fill="#3992DD" d="M8.99985 0C6.55354 0 6.24866 0.0118125 5.29129 0.0523125C4.32998 0.0995625 3.67973 0.248625 3.10598 0.471375C2.51423 0.703125 2.01023 1.01081 1.51241 1.51144C1.01123 2.00925 0.700727 2.51325 0.472352 3.105C0.249602 3.67875 0.100539 4.329 0.0532891 5.29031C0.00997656 6.24825 0.000976562 6.55256 0.000976562 8.99888C0.000976562 11.4452 0.0127891 11.7501 0.0532891 12.7074C0.100539 13.6659 0.249602 14.319 0.472352 14.8927C0.704102 15.4845 1.01179 15.9885 1.51241 16.4863C2.01023 16.9875 2.51423 17.298 3.10598 17.5264C3.67973 17.7463 4.33279 17.8982 5.29129 17.9454C6.24923 17.9887 6.55354 17.9978 8.99985 17.9978C11.4462 17.9978 11.751 17.9859 12.7084 17.9454C13.6669 17.8982 14.32 17.7458 14.8937 17.5264C15.4855 17.2946 15.9895 16.9869 16.4873 16.4863C16.9885 15.9885 17.299 15.4873 17.5274 14.8927C17.7473 14.319 17.8992 13.6659 17.9464 12.7074C17.9897 11.7495 17.9987 11.4452 17.9987 8.99888C17.9987 6.55256 17.9869 6.24769 17.9464 5.29031C17.8992 4.33181 17.7467 3.67538 17.5274 3.105C17.2956 2.51325 16.9879 2.00925 16.4873 1.51144C15.9895 1.01025 15.4883 0.69975 14.8937 0.471375C14.32 0.248625 13.6669 0.0995625 12.7084 0.0523125C11.7505 0.009 11.4462 0 8.99985 0V0ZM8.99985 1.62C11.4023 1.62 11.6892 1.63181 12.6387 1.67231C13.5145 1.71338 13.9915 1.85963 14.3082 1.98338C14.7306 2.14706 15.0259 2.34056 15.3454 2.65669C15.6587 2.97 15.8522 3.26869 16.0159 3.69112C16.1397 4.00781 16.2859 4.48481 16.327 5.36062C16.3675 6.31012 16.3793 6.59756 16.3793 8.99944C16.3793 11.4013 16.3675 11.6888 16.3236 12.6383C16.2764 13.5141 16.1301 13.9911 16.0069 14.3078C15.8365 14.7302 15.6464 15.0255 15.3325 15.345C15.0158 15.6583 14.7143 15.8518 14.2952 16.0155C13.9825 16.1393 13.4987 16.2855 12.6195 16.3266C11.665 16.3671 11.3837 16.3789 8.9751 16.3789C6.56648 16.3789 6.28579 16.3671 5.3301 16.3232C4.45429 16.2759 3.9711 16.1297 3.65441 16.0065C3.22691 15.8361 2.93385 15.6459 2.61998 15.3321C2.30329 15.0154 2.10191 14.7139 1.94666 14.2948C1.82066 13.9821 1.67666 13.4983 1.62998 12.6191C1.59791 11.6758 1.58273 11.3833 1.58273 8.98594C1.58273 6.58969 1.59791 6.29663 1.62998 5.3415C1.67666 4.46231 1.82066 3.97969 1.94666 3.66581C2.10191 3.23775 2.30385 2.94525 2.61998 2.62856C2.93329 2.31525 3.22691 2.11275 3.65441 1.95412C3.9711 1.83094 4.44248 1.68469 5.32166 1.64081C6.27623 1.6065 6.55748 1.59413 8.96273 1.59413L8.99985 1.62ZM8.99985 4.38019C6.44554 4.38019 4.38004 6.4485 4.38004 9C4.38004 11.5543 6.44835 13.6198 8.99985 13.6198C11.5542 13.6198 13.6197 11.5515 13.6197 9C13.6197 6.44569 11.5514 4.38019 8.99985 4.38019V4.38019ZM8.99985 11.9998C7.3416 11.9998 6.00004 10.6582 6.00004 9C6.00004 7.34175 7.3416 6.00019 8.99985 6.00019C10.6581 6.00019 11.9997 7.34175 11.9997 9C11.9997 10.6582 10.6581 11.9998 8.99985 11.9998V11.9998ZM14.8859 4.19569C14.8859 4.79363 14.3993 5.27625 13.8042 5.27625C13.2062 5.27625 12.7236 4.79306 12.7236 4.19569C12.7236 3.60113 13.2096 3.11737 13.8042 3.11737C14.3987 3.11737 14.8859 3.60113 14.8859 4.19569V4.19569Z"/>
    </symbol>

</svg>