<svg xmlns="http://www.w3.org/2000/svg" style="display: none;">

    <symbol id="icon-phone" fill="none" viewBox="0 0 14 14" xmlns="http://www.w3.org/2000/svg">
        <path fill-rule="evenodd" clip-rule="evenodd" d="M1.018 4.75L1 4.698C.595 3.538.25 1.952.25 1 .25.588.588.25 1 .25h2.25a1.5 1.5 0 0 1 1.5 1.5v1.5a1.5 1.5 0 0 1-1.5 1.5h-.628a12.04 12.04 0 0 0 6.628 6.628v-.628a1.5 1.5 0 0 1 1.5-1.5h1.5a1.5 1.5 0 0 1 1.5 1.5V13c0 .338-.412.75-.75.75-1.294 0-2.58-.342-3.75-.75a13.611 13.611 0 0 1-8.232-8.25z" fill="#fff"/>
    </symbol>

    <symbol id="icon-close" fill="none" viewBox="0 0 15 15" xmlns="http://www.w3.org/2000/svg">
        <path fill-rule="evenodd" clip-rule="evenodd" d="M.305.305a1.042 1.042 0 0 1 1.473 0L7.5 6.027 13.222.305a1.042 1.042 0 1 1 1.473 1.473L8.973 7.5l5.722 5.722a1.042 1.042 0 1 1-1.473 1.473L7.5 8.973l-5.722 5.722a1.042 1.042 0 0 1-1.473-1.473L6.027 7.5.305 1.778a1.042 1.042 0 0 1 0-1.473z" fill="#333"/>
    </symbol>

    <symbol id="icon-insta" fill="none" viewBox="0 0 18 18" xmlns="http://www.w3.org/2000/svg">
        <path d="M13.033 0H4.966A4.973 4.973 0 0 0 0 4.967v8.066A4.973 4.973 0 0 0 4.967 18h8.066A4.973 4.973 0 0 0 18 13.033V4.967A4.973 4.973 0 0 0 13.033 0zm3.37 13.033a3.374 3.374 0 0 1-3.37 3.37H4.967a3.374 3.374 0 0 1-3.37-3.37V4.967a3.374 3.374 0 0 1 3.37-3.37h8.066a3.374 3.374 0 0 1 3.37 3.37v8.066z" fill="#000"/>
        <path d="M9 4.362A4.643 4.643 0 0 0 4.362 9 4.643 4.643 0 0 0 9 13.638 4.643 4.643 0 0 0 13.638 9 4.643 4.643 0 0 0 9 4.362zm0 7.679A3.044 3.044 0 0 1 5.959 9 3.044 3.044 0 0 1 9 5.958 3.044 3.044 0 0 1 12.041 9 3.044 3.044 0 0 1 9 12.04zM13.833 3.008a1.176 1.176 0 0 0-1.172 1.171c0 .308.126.61.344.828.217.218.52.343.828.343.308 0 .61-.125.828-.343a1.176 1.176 0 0 0 0-1.657 1.176 1.176 0 0 0-.828-.342z" fill="#000"/>
    </symbol>

</svg>