<svg width="93" height="129" viewBox="0 0 93 129" fill="none" xmlns="http://www.w3.org/2000/svg">
<path fill-rule="evenodd" clip-rule="evenodd" d="M46.6988 0.951172C59.4265 0.951172 70.951 6.32153 79.2925 15.0024C87.6333 23.6839 92.7936 35.6776 92.7936 48.9242C92.7936 62.1701 87.6333 74.1646 79.2925 82.8461C70.951 91.5267 59.4265 96.8973 46.6988 96.8973C33.9713 96.8973 22.4467 91.5267 14.1051 82.8461C5.7641 74.1646 0.604004 62.1701 0.604004 48.9242C0.604004 35.6776 5.7641 23.6839 14.1051 15.0024C22.4467 6.32153 33.9713 0.951172 46.6988 0.951172V0.951172ZM77.8361 16.5181C69.868 8.22592 58.8591 3.09591 46.6988 3.09591C34.539 3.09591 23.5293 8.22592 15.5612 16.5181C7.59397 24.8106 2.66474 36.2684 2.66474 48.9242C2.66474 61.5795 7.59397 73.0376 15.5612 81.3304C23.5293 89.6226 34.539 94.7523 46.6988 94.7523C58.8591 94.7523 69.868 89.6226 77.8361 81.3304C85.8037 73.0376 90.7326 61.5795 90.7326 48.9242C90.7326 36.2684 85.8037 24.8106 77.8361 16.5181Z" fill="#1B1918"/>
<path fill-rule="evenodd" clip-rule="evenodd" d="M48.0301 28.7311V75.0525H45.969V28.7311L26.6545 48.8341L25.1984 47.3184L46.9806 24.6692L68.801 47.3184L67.3446 48.8341L48.0301 28.7311Z" fill="#1B1918"/>
<path fill-rule="evenodd" clip-rule="evenodd" d="M6.12817 111.856V125.728H11.8024C13.916 125.728 16.8667 125.035 16.8667 121.883C16.8667 119.724 15.4386 118.772 14.2396 118.416C15.3633 118.039 16.3338 117.048 16.3338 115.364C16.3338 113.006 14.5443 111.856 11.7637 111.856H6.12817ZM14.6585 121.646C14.6585 123.568 13.0778 123.747 11.5926 123.747H8.29862V119.526H11.8973C13.0969 119.526 14.6585 119.802 14.6585 121.646V121.646ZM14.1248 115.721C14.1248 117.068 13.0969 117.623 11.8402 117.623L8.29862 117.603V113.818H11.5356C13.1347 113.818 14.1248 114.334 14.1248 115.721V115.721ZM36.6891 128.879V123.627H35.013V111.856H32.8424V123.627H25.9498V111.856H23.7794V125.728H34.7277L34.7071 128.879H36.6891ZM38.8977 111.856V125.728H48.1896V123.667H41.068V119.763H47.5041V117.702H41.068V113.917H48.0748V111.856H38.8977ZM59.8804 111.856V117.742H52.8544V111.856H50.6839V125.728H52.8544V119.823H59.8804V125.728H62.0508V111.856H59.8804ZM63.9361 111.856V113.937H68.3536V125.728H70.524V113.937H74.9222V111.856H63.9361ZM76.8076 111.856V125.728H78.9779V120.972H81.5672C84.7286 120.972 87.2607 119.941 87.2607 116.414C87.2607 112.887 84.7286 111.856 81.5672 111.856H76.8076ZM85.0518 116.414C85.0518 118.436 83.5096 118.911 81.682 118.911H78.9779V113.917H81.682C83.5286 113.917 85.0518 114.393 85.0518 116.414Z" fill="#1B1918"/>
</svg>
