<svg width="63" height="86" viewBox="0 0 63 86" fill="none" xmlns="http://www.w3.org/2000/svg">
<path d="M63 31.5C63 46.4911 52.5279 59.0363 38.5 62.2194C36.2487 62.7303 34.2506 63 31.5 63C28.7494 63 26.7513 62.7303 24.5 62.2194C10.4721 59.0363 0 46.4911 0 31.5C0 14.103 14.103 0 31.5 0C48.897 0 63 14.103 63 31.5Z" fill="#AE4B84"/>
<path d="M38.5 62.2194C36.2487 62.7303 34.2506 63 31.5 63C28.7494 63 26.7513 62.7303 24.5 62.2194L31.5 86L38.5 62.2194Z" fill="#AE4B84"/>
<path d="M35.0778 32.5321H41.3913C41.7149 32.5321 41.9772 32.2697 41.9772 31.9462V25.6326C41.9772 25.309 41.7149 25.0467 41.3913 25.0467H35.0778C34.7542 25.0467 34.4918 25.309 34.4918 25.6326V31.9462C34.4918 32.2697 34.7542 32.5321 35.0778 32.5321ZM35.6637 29.3754H37.6486V31.3603H35.6637V29.3754ZM38.8205 31.3602V29.3753H40.8054V31.3602H38.8205ZM40.8054 28.2035H38.8204V26.2187H40.8054V28.2035ZM37.6486 26.2186V28.2034H35.6638V26.2186H37.6486Z" fill="white"/>
<path d="M22.6087 32.5321H28.9222C29.2458 32.5321 29.5081 32.2697 29.5081 31.9462V25.6326C29.5081 25.309 29.2458 25.0467 28.9222 25.0467H22.6087C22.2851 25.0467 22.0227 25.309 22.0227 25.6326V31.9462C22.0227 32.2697 22.285 32.5321 22.6087 32.5321ZM23.1946 29.3754H25.1795V31.3603H23.1946V29.3754ZM26.3513 31.3602V29.3753H28.3362V31.3602H26.3513ZM28.3363 28.2035H26.3514V26.2187H28.3363V28.2035ZM25.1795 26.2186V28.2034H23.1945V26.2186H25.1795Z" fill="white"/>
<path d="M51.4141 31.1648C51.7377 31.1648 52 30.9025 52 30.5789V27.8422C52 27.5186 51.7377 27.2563 51.4141 27.2563H44.5027V25.1846C44.755 25.3085 45.0252 25.371 45.2958 25.371C45.6044 25.371 45.9132 25.2903 46.1955 25.1287C46.7663 24.8021 47.107 24.2145 47.107 23.557C47.107 23.2432 47.0246 22.9323 46.8673 22.6555C46.7108 22.3834 46.4849 22.155 46.213 21.9947L40.7677 18.7986C40.4885 18.6346 40.1295 18.7283 39.9658 19.0073C39.802 19.2864 39.8955 19.6455 40.1745 19.8093L45.6188 23.0048C45.7153 23.0617 45.7958 23.143 45.85 23.2373C45.9057 23.3354 45.9352 23.4459 45.9352 23.5571C45.9352 23.8915 45.7102 24.0564 45.6134 24.1117C45.5167 24.167 45.2607 24.2774 44.9723 24.108L32.2966 16.6682C32.1134 16.5607 31.8865 16.5607 31.7034 16.6682L19.0271 24.1083C18.9262 24.1676 18.8183 24.1977 18.7062 24.1977C18.3978 24.1977 18.0648 23.9528 18.0648 23.5571C18.0648 23.3313 18.1859 23.1198 18.3802 23.0054L31.4969 15.3065C31.8072 15.1248 32.1928 15.1248 32.5027 15.3062L37.816 18.4249C38.0949 18.5887 38.4541 18.4952 38.618 18.2163C38.7818 17.9371 38.6883 17.5781 38.4093 17.4143L33.0954 14.2952C32.9336 14.2004 32.7622 14.1291 32.5861 14.0797V12.96H37.0509C37.2469 12.96 37.4298 12.8621 37.5384 12.6991C37.6471 12.5361 37.6671 12.3295 37.5918 12.1487L36.8966 10.48L37.5918 8.81133C37.6672 8.63047 37.6471 8.42398 37.5384 8.26094C37.4298 8.09789 37.2467 8 37.0508 8H32C31.6764 8 31.4141 8.26234 31.4141 8.58594V14.0797C31.2378 14.1291 31.0662 14.2005 30.9042 14.2954L17.7863 21.9951C17.2352 22.3195 16.8929 22.918 16.8929 23.557C16.8929 24.5564 17.7063 25.3695 18.7062 25.3695C18.9792 25.3695 19.25 25.3055 19.4972 25.1845V27.2563H17.1102C16.7866 27.2563 16.5242 27.5186 16.5242 27.8422C16.5242 28.1658 16.7866 28.4281 17.1102 28.4281H19.4973V29.7816H15.1113C14.7877 29.7816 14.5254 30.044 14.5254 30.3676V35.3395C14.5254 35.6631 14.7877 35.9255 15.1113 35.9255H19.4973V39.3804C19.3022 39.3034 19.0911 39.2584 18.8704 39.2526C18.5877 38.9696 18.2346 38.7725 17.843 38.6805C17.4166 38.3353 16.8875 38.147 16.3346 38.147C15.7817 38.147 15.2527 38.3352 14.8262 38.6805C14.4345 38.7725 14.0814 38.9696 13.7988 39.2526C13.578 39.2584 13.367 39.3034 13.1719 39.3804V28.4281H14.3758C14.6994 28.4281 14.9617 28.1658 14.9617 27.8422C14.9617 27.5186 14.6994 27.2563 14.3758 27.2563H12.5859C12.2623 27.2563 12 27.5186 12 27.8422V47.4141C12 47.7377 12.2623 48 12.5859 48H51.4141C51.7377 48 52 47.7377 52 47.4141V33.3133C52 32.9897 51.7377 32.7273 51.4141 32.7273C51.0905 32.7273 50.8281 32.9897 50.8281 33.3133V39.3804C50.633 39.3034 50.422 39.2584 50.2013 39.2526C49.9186 38.9696 49.5655 38.7725 49.1738 38.6805C48.7473 38.3353 48.2183 38.147 47.6654 38.147C47.1125 38.147 46.5834 38.3352 46.157 38.6805C45.7653 38.7725 45.4123 38.9696 45.1296 39.2526C44.9089 39.2584 44.6978 39.3034 44.5027 39.3804V35.9255H48.8887C49.2123 35.9255 49.4746 35.6631 49.4746 35.3395V30.3676C49.4746 30.044 49.2123 29.7816 48.8887 29.7816H44.5027V28.4281H50.8281V30.5789C50.8281 30.9025 51.0905 31.1648 51.4141 31.1648ZM35.7208 10.7054L36.1719 11.7881H32.5859V9.17188H36.1719L35.7207 10.2546C35.6606 10.3989 35.6606 10.5612 35.7208 10.7054ZM32 17.8528L43.3309 24.5033V41.7773H35.7427V34.9449C35.7427 34.6213 35.4804 34.359 35.1568 34.359H28.8433C28.5197 34.359 28.2573 34.6213 28.2573 34.9449V41.7773H20.6692V24.5033L32 17.8528ZM20.6691 44.3027V42.9492H43.3308V44.3027H20.6691ZM34.5709 35.5309V41.7773H32.5859V35.5309H34.5709ZM31.4141 41.7773H29.4291V35.5309H31.4141V41.7773ZM15.6973 34.7535V30.9534H19.4973V34.7535H15.6973ZM13.8487 40.4237C13.8797 40.4237 13.9154 40.4271 13.9578 40.434C14.1755 40.4694 14.3947 40.3794 14.5248 40.2012C14.6827 39.985 14.9148 39.8444 15.1781 39.8052C15.2962 39.7876 15.4062 39.7343 15.4932 39.6525C15.7221 39.4373 16.0209 39.3188 16.3345 39.3188C16.6482 39.3188 16.947 39.4373 17.1759 39.6525C17.2629 39.7343 17.3728 39.7876 17.4909 39.8052C17.7543 39.8443 17.9863 39.985 18.1444 40.2012C18.2745 40.3793 18.4936 40.4692 18.7113 40.434C18.7537 40.4271 18.7895 40.4237 18.8205 40.4237C19.1936 40.4237 19.4973 40.7273 19.4973 41.1005C19.4973 41.4738 19.1937 41.7773 18.8205 41.7773H13.8486C13.4755 41.7773 13.1718 41.4738 13.1718 41.1005C13.1718 40.7273 13.4755 40.4237 13.8487 40.4237ZM13.1719 42.9492H19.4973V44.3027H18.8995C18.5759 44.3027 18.3135 44.5651 18.3135 44.8887V46.8281H13.1719V42.9492ZM19.4854 45.4746H44.5146V46.8281H19.4854V45.4746ZM45.6865 46.8281V44.8887C45.6865 44.5651 45.4241 44.3027 45.1005 44.3027H44.5027V42.9492H50.8281V46.8281H45.6865ZM45.1795 40.4237C45.2104 40.4237 45.2462 40.4271 45.2886 40.434C45.5063 40.4694 45.7254 40.3794 45.8555 40.2012C46.0136 39.985 46.2456 39.8443 46.509 39.8052C46.6271 39.7876 46.737 39.7343 46.8241 39.6525C47.053 39.4373 47.3517 39.3188 47.6654 39.3188C47.9791 39.3188 48.2778 39.4373 48.5067 39.6525C48.5938 39.7343 48.7037 39.7876 48.8218 39.8052C49.0852 39.8443 49.3172 39.985 49.4752 40.2012C49.6052 40.3794 49.8244 40.4692 50.0421 40.434C50.0845 40.4271 50.1202 40.4237 50.1512 40.4237C50.5244 40.4237 50.828 40.7273 50.828 41.1005C50.828 41.4738 50.5245 41.7773 50.1512 41.7773H45.1794C44.8062 41.7773 44.5026 41.4738 44.5026 41.1005C44.5026 40.7273 44.8063 40.4237 45.1795 40.4237ZM48.3027 30.9535V34.7536H44.5027V30.9535H48.3027Z" fill="white"/>
</svg>
