<svg width="85" height="89" viewBox="0 0 85 89" fill="none" xmlns="http://www.w3.org/2000/svg">
<rect width="84.1374" height="88.6213" rx="42.0687" fill="url(#paint0_linear)"/>
<path fill-rule="evenodd" clip-rule="evenodd" d="M40.1191 31.9274H44.1461L42.1327 27.7363L40.1191 31.9274Z" fill="white"/>
<path fill-rule="evenodd" clip-rule="evenodd" d="M53.7838 18.2825H30.4719C29.6664 18.2825 29.0146 18.9608 29.0146 19.7991V42.6455H55.2406V19.7991C55.2406 18.9608 54.5892 18.2825 53.7838 18.2825V18.2825ZM48.6075 37.8355C48.3969 37.9438 48.1751 37.9952 47.9558 37.9952C47.4236 37.9952 46.9087 37.689 46.6523 37.1569L45.5981 34.9625H38.6576L37.6033 37.1569C37.347 37.6884 36.832 37.9952 36.2998 37.9952C36.0807 37.9952 35.8584 37.9422 35.6481 37.8355C34.928 37.4609 34.6378 36.55 34.9964 35.8006L40.8244 23.6697C40.835 23.6591 41.2542 22.8441 42.1329 22.849C43.0076 22.8507 43.4241 23.6552 43.4309 23.6697L49.2589 35.8006C49.6175 36.55 49.3273 37.461 48.6075 37.8355V37.8355Z" fill="white"/>
<path fill-rule="evenodd" clip-rule="evenodd" d="M31.9344 54.7765C31.9344 53.9399 31.2801 53.2603 30.4776 53.2603H26.1064V56.293H30.4776C31.2801 56.293 31.9344 55.6135 31.9344 54.7765Z" fill="white"/>
<path fill-rule="evenodd" clip-rule="evenodd" d="M40.6727 45.676H18.7209C17.9154 45.676 17.2637 46.3543 17.2637 47.1926V68.5228C17.2637 69.3611 17.9154 70.0394 18.7209 70.0394L40.6727 70.039V45.676ZM30.474 65.389H24.646C23.8405 65.389 23.1888 64.7107 23.1888 63.8724C23.1888 63.5435 23.1888 51.2914 23.1888 51.7415C23.1888 50.9037 23.8405 50.2253 24.646 50.2253H30.474C32.8841 50.2253 34.8448 52.266 34.8448 54.7743C34.8448 55.9436 34.407 57.0003 33.7082 57.807C34.4072 58.6141 34.8448 59.6708 34.8448 60.8401C34.8448 63.3484 32.8841 65.389 30.474 65.389V65.389Z" fill="white"/>
<path fill-rule="evenodd" clip-rule="evenodd" d="M30.4776 59.3267H26.1064V62.3594H30.4776C31.2801 62.3594 31.9344 61.6798 31.9344 60.8428C31.9344 60.0062 31.2801 59.3267 30.4776 59.3267Z" fill="white"/>
<path fill-rule="evenodd" clip-rule="evenodd" d="M65.5372 45.676H43.585V70.0394L65.5372 70.039C66.3427 70.039 66.9944 69.3611 66.9944 68.5228V47.1926C66.9944 46.3543 66.3427 45.676 65.5372 45.676ZM55.2409 62.3563C56.4105 62.3563 57.5061 61.8835 58.3285 61.0252C58.8979 60.4296 59.8228 60.4326 60.3918 61.0222C60.9607 61.613 60.9608 62.5739 60.3948 63.1664C59.0204 64.5995 57.1902 65.389 55.2414 65.389C51.2228 65.389 47.9561 61.9875 47.9561 57.807C47.9561 53.6265 51.2228 50.2253 55.2414 50.2253C57.1906 50.2253 59.0204 51.0144 60.3948 52.4479C60.9612 53.04 60.9612 54.0015 60.3918 54.5923C59.8228 55.1818 58.8978 55.1844 58.3289 54.5892C57.5061 53.7302 56.4109 53.258 55.2409 53.258C52.8308 53.258 50.8701 55.2987 50.8701 57.807C50.8701 60.3157 52.8308 62.3563 55.2409 62.3563Z" fill="white"/>
<defs>
<linearGradient id="paint0_linear" x1="-0.348577" y1="88.5362" x2="86.5778" y2="7.12324" gradientUnits="userSpaceOnUse">
<stop stop-color="#B630E6"/>
<stop offset="1" stop-color="#D854CA"/>
</linearGradient>
</defs>
</svg>
