<svg width="86" height="88" viewBox="0 0 86 88" fill="none" xmlns="http://www.w3.org/2000/svg">
<rect width="85.1515" height="87.5658" rx="42.5758" fill="url(#paint0_linear)"/>
<path fill-rule="evenodd" clip-rule="evenodd" d="M13.9158 41.2603H14.7276V33.0233C14.7276 32.7219 14.9663 32.5132 15.2535 32.475L20.3811 31.7897C20.6692 31.7526 20.9078 32.0355 20.9078 32.338V55.261C20.9078 55.563 20.6692 55.847 20.3811 55.8084L15.2535 55.1234C14.9667 55.0863 14.7276 54.8764 14.7276 54.5751V46.3384H13.9158C12.5739 46.3384 11.4766 45.1958 11.4766 43.7997V43.7987C11.4766 42.4026 12.5739 41.2603 13.9158 41.2603V41.2603ZM70.4216 41.2603H71.2317C72.5732 41.2603 73.671 42.4026 73.671 43.7987V43.7997C73.671 45.1958 72.5732 46.3384 71.2317 46.3384H70.4216V54.5751C70.4216 54.876 70.1813 55.0858 69.8949 55.1234L64.7672 55.8084C64.4796 55.8455 64.2397 55.5632 64.2397 55.261V32.338C64.2397 32.0355 64.4796 31.7515 64.7672 31.7897L69.8949 32.475C70.1813 32.5121 70.4216 32.7218 70.4216 33.0233V41.2603ZM60.7597 26.6711L52.4291 25.9858C51.9603 25.9487 51.5747 26.3863 51.5747 26.8768V40.4552H33.5746V26.8768C33.5746 26.386 33.1881 25.9467 32.7184 25.9858L24.3878 26.6711C23.9194 26.7083 23.533 27.0721 23.533 27.5621V60.037C23.533 60.5262 23.9194 60.8887 24.3878 60.9269L32.7184 61.6122C33.1881 61.6494 33.5746 61.2118 33.5746 60.7223V47.1435H51.5747V60.7223C51.5747 61.212 51.9603 61.6518 52.4291 61.6122L60.7597 60.9269C61.2285 60.8898 61.6159 60.526 61.6159 60.037V27.5621C61.6159 27.0723 61.2277 26.7094 60.7597 26.6711V26.6711Z" fill="white"/>
<defs>
<linearGradient id="paint0_linear" x1="-0.352779" y1="87.4818" x2="85.6485" y2="4.98184" gradientUnits="userSpaceOnUse">
<stop stop-color="#16666B"/>
<stop offset="1" stop-color="#1AB9B9"/>
</linearGradient>
</defs>
</svg>
