<svg width="192" height="60" viewBox="0 0 192 60" fill="none" xmlns="http://www.w3.org/2000/svg">
<path fill-rule="evenodd" clip-rule="evenodd" d="M4.62235 17.3026V10.2176H7.76742L12.5085 17.3026H15.4071L9.78978 8.90794L15.0029 0.933676H12.1038L7.72278 7.76197H4.62235V0.933676H2.06084V17.3026H4.62235ZM15.5643 9.11828C15.5643 13.4443 18.2832 17.6067 23.8325 17.6067C29.3601 17.6067 32.1014 13.4443 32.1014 9.11828C32.1014 4.792 29.3601 0.629639 23.8325 0.629639C18.2832 0.629639 15.5643 4.792 15.5643 9.11828ZM29.4945 9.11828C29.4945 12.2519 27.6524 15.1047 23.8325 15.1047C20.035 15.1047 18.1705 12.2519 18.1705 9.11828C18.1705 5.98441 20.035 3.13165 23.8325 3.13165C27.6524 3.13165 29.4945 5.98441 29.4945 9.11828ZM37.471 17.3026V10.2176H40.6163L45.3574 17.3026H48.2557L42.6386 8.90794L47.8518 0.933676H44.9527L40.5713 7.76197H37.471V0.933676H34.9094V17.3026H37.471ZM48.75 10.4279V12.6723H56.9286V10.4279H48.75ZM56.9966 0.933676V3.38928H62.2089V17.3026H64.7704V3.38928H69.9613V0.933676H56.9966ZM70.5456 9.11828C70.5456 13.4443 73.2643 17.6067 78.8137 17.6067C84.3415 17.6067 87.0826 13.4443 87.0826 9.11828C87.0826 4.792 84.3415 0.629639 78.8137 0.629639C73.2643 0.629639 70.5456 4.792 70.5456 9.11828ZM84.4756 9.11828C84.4756 12.2519 82.6335 15.1047 78.8137 15.1047C75.0164 15.1047 73.1517 12.2519 73.1517 9.11828C73.1517 5.98441 75.0164 3.13165 78.8137 3.13165C82.6335 3.13165 84.4756 5.98441 84.4756 9.11828ZM92.4521 7.294V3.38928H101.103V0.933676H89.8908V17.3026H96.3168C99.3054 17.3026 102.338 16.3438 102.338 12.3215C102.338 8.27635 99.3054 7.294 96.3168 7.294H92.4521ZM92.4521 14.8703V9.7264H96.3615C98.0246 9.7264 99.7317 10.0537 99.7317 12.3215C99.7317 14.567 98.0471 14.8703 96.3615 14.8703H92.4521ZM104.99 0.933676V17.3026H115.954V14.8703H107.551V10.264H115.145V7.83189H107.551V3.36602H115.819V0.933676H104.99ZM13.3406 25.7256L0.928955 41.6235V46.187H13.5525V50.7508H18.6093V46.187H22.2518V41.5873H18.6093V25.7256H13.3406ZM13.5525 41.5873H6.44511L13.5525 32.4599V41.5873ZM38.164 50.7508V43.7581H40.1451L45.025 50.7508H50.5412L44.2116 41.8081L50.046 33.0858H44.5292L40.2153 39.6736H38.164V33.0858H33.2493V50.7508H38.164ZM57.4013 50.7508V40.3354L61.3969 46.9231H63.8374L67.833 40.3354V50.7508H72.5712V33.0858H67.904L62.5997 41.8449L57.3303 33.0858H52.6278V50.7508H57.4013Z" fill="#1B1918"/>
<path fill-rule="evenodd" clip-rule="evenodd" d="M186.029 28.2784H128.441V31.0536H186.029L161.037 57.0629L162.921 59.0239L191.079 29.6914L162.921 0.308105L161.037 2.26915L186.029 28.2784Z" fill="#1B1918"/>
</svg>
