<svg width="160" height="114" viewBox="0 0 160 114" fill="none" xmlns="http://www.w3.org/2000/svg">
<g clip-path="url(#clip0)">
<path d="M33.8608 107.982C33.8608 106.261 34.4423 104.816 35.6053 103.653C36.7683 102.482 38.2378 101.901 40.0137 101.901C41.8054 101.901 43.2749 102.482 44.43 103.645C45.5852 104.808 46.1667 106.253 46.1667 107.982C46.1667 109.365 45.7345 110.622 44.8622 111.753L46.2059 112.963L44.9644 114.338L43.6599 113.034C42.6226 113.819 41.4046 114.204 40.0216 114.204C38.2456 114.204 36.7762 113.607 35.6131 112.413C34.4423 111.211 33.8608 109.734 33.8608 107.982ZM36.0925 107.982C36.0925 109.192 36.4697 110.197 37.2162 111.007C37.9627 111.816 38.8979 112.224 40.0137 112.224C40.8152 112.224 41.5146 112.012 42.0961 111.588L40.7681 110.347L41.994 108.987L43.2827 110.276C43.7149 109.592 43.9349 108.83 43.9349 107.982C43.9349 106.811 43.5577 105.829 42.8112 105.051C42.0647 104.266 41.1296 103.881 40.0137 103.881C38.8979 103.881 37.9627 104.273 37.2162 105.051C36.4697 105.829 36.0925 106.811 36.0925 107.982ZM51.5652 109.726V102.097H53.7262V109.702C53.7262 110.496 53.962 111.117 54.4413 111.557C54.9128 111.997 55.5572 112.217 56.3587 112.217C57.1602 112.217 57.8046 111.997 58.2761 111.557C58.7476 111.117 58.9912 110.496 58.9912 109.702V102.097H61.1522V109.726C61.1522 111.054 60.7121 112.13 59.8399 112.963C58.9597 113.788 57.8125 114.204 56.3823 114.204C54.9442 114.204 53.7812 113.788 52.8932 112.963C52.0053 112.13 51.5652 111.054 51.5652 109.726ZM67.2501 114V102.105H71.1713C72.1772 102.105 72.9237 102.215 73.4188 102.427C74.0474 102.686 74.5346 103.095 74.8961 103.653C75.2576 104.211 75.4304 104.886 75.4304 105.68C75.4304 106.403 75.2497 107.07 74.8961 107.668C74.5425 108.265 74.0553 108.689 73.4345 108.932V108.964C73.5366 109.09 73.6624 109.294 73.8195 109.585L76.2634 114.008H73.8352L71.4856 109.569H69.4032V114.008H67.2501V114ZM69.4189 107.683H71.3599C71.9414 107.683 72.3972 107.51 72.7351 107.173C73.073 106.835 73.238 106.371 73.238 105.79C73.238 104.965 72.9237 104.423 72.3029 104.163C72.0043 104.03 71.5642 103.959 70.9984 103.959H69.4189V107.683ZM83.5086 114V109.019L79.5324 102.097H81.9763L83.8387 105.601L84.5616 107.196H84.5931C84.8288 106.623 85.0645 106.096 85.316 105.601L87.1627 102.097H89.6066L85.6539 109.019V114H83.5086ZM94.4551 114V102.105H96.616V112.146H101.763V114.008H94.4551V114ZM108.003 114V109.019L104.026 102.097H106.47L108.333 105.601L109.056 107.196H109.087C109.323 106.623 109.558 106.096 109.81 105.601L111.657 102.097H114.1L110.148 109.019V114H108.003ZM117.794 112.578L118.965 110.952C119.358 111.297 119.813 111.596 120.348 111.839C120.882 112.083 121.401 112.209 121.911 112.209C122.446 112.209 122.87 112.083 123.184 111.832C123.499 111.58 123.656 111.25 123.656 110.849C123.656 110.433 123.467 110.08 123.082 109.781C122.705 109.482 122.242 109.215 121.699 108.995C121.157 108.775 120.615 108.524 120.065 108.257C119.515 107.99 119.051 107.613 118.674 107.118C118.297 106.623 118.1 106.041 118.1 105.358C118.1 104.328 118.485 103.496 119.248 102.859C120.01 102.223 120.984 101.901 122.155 101.901C123.554 101.901 124.717 102.325 125.644 103.174L124.685 104.933C124.347 104.635 123.947 104.383 123.467 104.187C122.996 103.991 122.524 103.896 122.069 103.896C121.519 103.896 121.078 104.022 120.756 104.266C120.426 104.509 120.261 104.839 120.261 105.256C120.261 105.656 120.45 106.002 120.835 106.293C121.212 106.583 121.676 106.835 122.218 107.047C122.76 107.259 123.302 107.495 123.852 107.762C124.403 108.029 124.866 108.398 125.243 108.893C125.621 109.388 125.817 109.985 125.817 110.684C125.817 111.69 125.463 112.531 124.764 113.199C124.057 113.866 123.09 114.204 121.864 114.204C121.102 114.204 120.363 114.063 119.648 113.788C118.933 113.505 118.312 113.096 117.794 112.578Z" fill="#71BF44"/>
<path d="M19.2525 95.6626H6.93876C4.80134 95.6626 3.14326 95.144 1.95668 94.107C0.652227 93.007 0 91.4278 0 89.3537V72.5876C0 70.5449 0.581504 68.9342 1.73665 67.7636C2.8918 66.593 4.49487 66.0037 6.53799 66.0037H19.2525V70.2699H8.04676C5.55572 70.2699 4.31413 71.3855 4.31413 73.6247V78.7236H19.2525V82.9898H4.31413V87.9945C4.31413 90.2572 5.57144 91.3886 8.09391 91.3886H19.2525V95.6626ZM41.7425 95.6626H37.1612L31.7313 87.8845L26.3091 95.6626H21.775L29.6488 84.1919L22.2622 73.389H26.757L31.692 80.5464L36.7133 73.389H41.2082L33.9158 84.1919L41.7425 95.6626ZM58.2918 95.6626H49.6243C45.4752 95.6626 43.4006 93.6906 43.4006 89.7465V78.9908C43.4006 75.2589 45.153 73.389 48.6499 73.389H58.2133V77.1209H50.2136C49.0821 77.1209 48.2963 77.3251 47.8483 77.7416C47.4004 78.158 47.1804 78.9122 47.1804 80.02V88.8509C47.1804 90.8464 48.2491 91.8364 50.3944 91.8364H58.2997V95.6626H58.2918ZM65.2463 95.6626H61.4665V65.5245H65.2463V95.6626ZM87.5792 90.0608C87.5792 93.7927 85.5754 95.6626 81.5756 95.6626H75.0454C71.0456 95.6626 69.0418 93.7927 69.0418 90.0608V73.389H72.8216V88.9451C72.8216 89.8644 73.1045 90.6029 73.6702 91.1686C74.1182 91.6164 74.9826 91.8364 76.2713 91.8364H80.3968C82.6678 91.8364 83.8073 90.8857 83.8073 88.9923V73.389H87.5871V90.0608H87.5792ZM107.751 77.1287H97.6926C96.7811 77.1287 96.0974 77.278 95.6574 77.5766C95.0366 77.993 94.7301 78.5665 94.7301 79.2815V80.1771C94.7301 81.7327 95.7517 82.5105 97.7948 82.5105H102.777C104.231 82.5105 105.425 82.9977 106.352 83.9797C107.287 84.954 107.751 86.1717 107.751 87.6252V90.4222C107.751 91.8128 107.28 93.062 106.329 94.1541C105.771 94.8062 105.174 95.2383 104.553 95.4426C104.05 95.5919 103.311 95.6626 102.337 95.6626H90.9425V91.8364H101.315C102.376 91.8364 103.083 91.5378 103.445 90.9486C103.712 90.5322 103.846 89.7622 103.846 88.6387C103.846 87.0988 103.013 86.3289 101.355 86.3289H96.6397C95.0366 86.3289 93.7164 85.8968 92.6791 85.0404C91.524 84.1212 90.9425 82.8955 90.9425 81.3478V78.3701C90.9425 76.7123 91.6104 75.361 92.9385 74.3239C93.74 73.7032 94.9816 73.389 96.6632 73.389H107.751V77.1287ZM114.957 95.6626H111.177V73.389H114.957V95.6626ZM115.531 67.4808C115.531 68.1643 115.279 68.7535 114.776 69.2564C114.273 69.7592 113.676 70.0106 113 70.0106C112.317 70.0106 111.735 69.7671 111.24 69.2799C110.753 68.7928 110.509 68.2036 110.509 67.5279C110.509 66.813 110.745 66.208 111.224 65.7052C111.696 65.2023 112.293 64.9509 113 64.9509C113.715 64.9509 114.313 65.1945 114.8 65.6816C115.287 66.1687 115.531 66.7658 115.531 67.4808ZM139.757 73.389L131.176 94.107C130.673 95.3247 129.817 95.9297 128.599 95.9297C127.381 95.9297 126.524 95.3247 126.021 94.107L117.393 73.389H121.354L128.56 90.7679L135.852 73.389H139.757ZM156.087 79.9886V79.6272C156.087 77.9537 155.081 77.1209 153.077 77.1209H148.873C146.539 77.1209 145.376 78.0715 145.376 79.9807V84.4118L156.087 79.9886ZM160 82.1491L145.368 88.1045V88.7723C145.368 89.9586 145.698 90.7993 146.35 91.3021C146.798 91.6557 147.568 91.8364 148.669 91.8364H160V95.6626H147.969C145.887 95.6626 144.362 95.2462 143.38 94.4212C142.131 93.3841 141.51 91.7814 141.51 89.6208V79.085C141.51 75.2903 143.537 73.3968 147.6 73.3968H154.311C158.106 73.3968 160 75.3846 160 79.3522V82.1491ZM52.5868 0V8.61875L68.7353 4.75327L70.967 14.0713L52.5868 18.471V23.2007L69.0575 19.2567L71.2892 28.5746L52.5868 33.0608V37.7905L77.0257 31.9294L79.2417 41.1846L107.413 30.3502V0H52.5868Z" fill="white"/>
<path d="M107.413 30.3502L79.226 41.1924L52.5868 47.5406V54.8158H107.413V30.3502Z" fill="#71BF44"/>
</g>
<defs>
<clipPath id="clip0">
<rect width="160" height="114" fill="white"/>
</clipPath>
</defs>
</svg>
