<svg width="86" height="88" viewBox="0 0 86 88" fill="none" xmlns="http://www.w3.org/2000/svg">
<rect width="85.1515" height="87.5658" rx="42.5758" fill="url(#paint0_linear)"/>
<path fill-rule="evenodd" clip-rule="evenodd" d="M20.75 45.166V64.8298C20.75 67.015 22.4555 68.7899 24.5594 68.7899H60.4878C62.5874 68.7899 64.293 67.015 64.293 64.8298V45.1748L65.3991 46.3261C65.9825 46.9332 66.7627 47.2637 67.5834 47.2637C68.4083 47.2637 69.1883 46.9332 69.7796 46.3261C70.9864 45.0618 70.9864 43.0273 69.7796 41.767L50.8018 22.0281C46.3728 17.419 38.666 17.419 34.2289 22.0281L15.2634 41.767C14.0528 43.0273 14.0528 45.0618 15.2634 46.3261C16.4295 47.5402 18.4692 47.5402 19.6358 46.3261L20.75 45.166ZM54.1322 52.3264H46.4293V60.3432H38.6099V52.3264H30.9027V44.1922H38.6099V36.1715H46.4293V44.1922H54.1322V52.3264Z" fill="white"/>
<defs>
<linearGradient id="paint0_linear" x1="-0.352779" y1="87.4818" x2="85.6485" y2="4.98184" gradientUnits="userSpaceOnUse">
<stop stop-color="#FF1818"/>
<stop offset="1" stop-color="#C70707"/>
</linearGradient>
</defs>
</svg>
