<svg width="63" height="86" viewBox="0 0 63 86" fill="none" xmlns="http://www.w3.org/2000/svg">
<path d="M63 31.5C63 46.4911 52.5279 59.0363 38.5 62.2194C36.2487 62.7303 34.2506 63 31.5 63C28.7494 63 26.7513 62.7303 24.5 62.2194C10.4721 59.0363 0 46.4911 0 31.5C0 14.103 14.103 0 31.5 0C48.897 0 63 14.103 63 31.5Z" fill="#01A0E2"/>
<path d="M38.5 62.2194C36.2487 62.7303 34.2506 63 31.5 63C28.7494 63 26.7513 62.7303 24.5 62.2194L31.5 86L38.5 62.2194Z" fill="#01A0E2"/>
<path d="M47.6538 23.7692H38.2308V14.3462C38.2308 13.5983 37.6325 13 36.8846 13H26.1154C25.3675 13 24.7692 13.5983 24.7692 14.3462V23.7692H15.3462C14.5983 23.7692 14 24.3675 14 25.1154V35.8846C14 36.6325 14.5983 37.2308 15.3462 37.2308H24.7692V46.6538C24.7692 47.4017 25.3675 48 26.1154 48H36.8846C37.6325 48 38.2308 47.4017 38.2308 46.6538V37.2308H47.6538C48.4017 37.2308 49 36.6325 49 35.8846V25.1154C48.9252 24.3675 48.3269 23.7692 47.6538 23.7692ZM46.3825 34.5385H36.8846C36.1368 34.5385 35.5385 35.1368 35.5385 35.8846V45.3077H27.4615V35.8846C27.4615 35.1368 26.8632 34.5385 26.1154 34.5385H16.6923V26.4615H26.1154C26.8632 26.4615 27.4615 25.8632 27.4615 25.1154V15.6923H35.6132V25.1154C35.6132 25.8632 36.2115 26.4615 36.9594 26.4615H46.3825V34.5385Z" fill="white"/>
</svg>
