<svg width="63" height="86" viewBox="0 0 63 86" fill="none" xmlns="http://www.w3.org/2000/svg">
<path d="M63 31.5C63 46.4911 52.5279 59.0363 38.5 62.2194C36.2487 62.7303 34.2506 63 31.5 63C28.7494 63 26.7513 62.7303 24.5 62.2194C10.4721 59.0363 0 46.4911 0 31.5C0 14.103 14.103 0 31.5 0C48.897 0 63 14.103 63 31.5Z" fill="#EB5570"/>
<path d="M38.5 62.2194C36.2487 62.7303 34.2506 63 31.5 63C28.7494 63 26.7513 62.7303 24.5 62.2194L31.5 86L38.5 62.2194Z" fill="#EB5570"/>
<path d="M31.9995 13.1377C28.4619 13.1377 25.5838 16.0158 25.5838 19.5535C25.5838 23.0911 28.4619 25.9692 31.9995 25.9692C35.5372 25.9692 38.4153 23.0911 38.4153 19.5535C38.4153 16.0158 35.5372 13.1377 31.9995 13.1377ZM31.9995 24.7388C29.1404 24.7388 26.8143 22.4127 26.8143 19.5535C26.8143 16.6943 29.1404 14.3682 31.9995 14.3682C34.8587 14.3682 37.1848 16.6943 37.1848 19.5535C37.1848 22.4127 34.8587 24.7388 31.9995 24.7388Z" fill="white"/>
<path d="M34.486 18.9381H32.6153V16.4045C32.6153 16.0647 32.3399 15.7892 32.0001 15.7892C31.6602 15.7892 31.3848 16.0647 31.3848 16.4045V19.5533C31.3848 19.8931 31.6602 20.1685 32.0001 20.1685H34.486C34.8259 20.1685 35.1013 19.8931 35.1013 19.5533C35.1013 19.2135 34.8258 18.9381 34.486 18.9381Z" fill="white"/>
<path d="M52.8588 19.4373L51.373 16.268C50.9999 15.4736 50.1924 14.9604 49.3158 14.9604H47.6054C47.2656 14.9604 46.9902 15.2358 46.9902 15.5756C46.9902 15.9154 47.2656 16.1908 47.6054 16.1908H49.3158C49.7176 16.1908 50.088 16.4265 50.2591 16.7907L51.7447 19.9594C51.7879 20.0519 51.755 20.1277 51.7315 20.1646C51.708 20.2016 51.6533 20.2636 51.5511 20.2636H42.2275V16.1908H44.7344C45.0743 16.1908 45.3497 15.9154 45.3497 15.5756C45.3497 15.2358 45.0743 14.9604 44.7344 14.9604H42.2275V11.8761C42.8771 11.8163 43.3876 11.2689 43.3876 10.604V9.27821C43.3875 8.5734 42.8142 8 42.1093 8H21.8903C21.1855 8 20.6122 8.5734 20.6122 9.27821V10.6041C20.6122 11.2689 21.1226 11.8164 21.7722 11.8762V14.9607H14.684C13.8065 14.9607 12.9988 15.4741 12.6263 16.2687L11.1408 19.4378C10.9301 19.8875 10.9633 20.4061 11.2297 20.8252C11.4961 21.2443 11.9517 21.4945 12.4482 21.4945H12.6568V36.9226C12.6568 37.2624 12.9322 37.5378 13.2721 37.5378C13.6119 37.5378 13.8873 37.2624 13.8873 36.9226V21.4945H21.7722V22.9157H15.924C15.5841 22.9157 15.3088 23.1911 15.3088 23.5309V26.1826C15.3088 26.5223 15.5841 26.7978 15.924 26.7978H21.7722V28.219H15.924C15.5841 28.219 15.3088 28.4944 15.3088 28.8342V31.4859C15.3088 31.8256 15.5841 32.1011 15.924 32.1011H21.7722V33.5223H15.924C15.5841 33.5223 15.3088 33.7978 15.3088 34.1375V36.7892C15.3088 37.129 15.5841 37.4044 15.924 37.4044H21.7722V43.4661H13.8873V39.7936C13.8873 39.4538 13.6119 39.1784 13.2721 39.1784C12.9322 39.1784 12.6568 39.4538 12.6568 39.7936L12.6571 49.3847C12.6571 49.7245 12.9325 49.9999 13.2723 49.9999H50.7273C51.0672 49.9999 51.3425 49.7245 51.3425 49.3847V21.4941H51.5511C52.0478 21.4941 52.5034 21.2439 52.7699 20.8248C53.0363 20.4057 53.0696 19.8871 52.8588 19.4373ZM42.2275 34.7529H47.4604V36.174H42.2275V34.7529ZM42.2275 29.4494H47.4604V30.8706H42.2275V29.4494ZM42.2275 24.1461H47.4604V25.5673H42.2275V24.1461ZM21.8426 9.27821C21.8426 9.25188 21.864 9.23047 21.8903 9.23047H42.1093C42.1356 9.23047 42.157 9.25188 42.157 9.27821V10.6041C42.157 10.6303 42.1356 10.6517 42.1093 10.6517H21.8903C21.864 10.6517 21.8426 10.6303 21.8426 10.6041V9.27821ZM36.3564 34.7529V43.4662H32.615V34.7529H36.3564ZM31.3846 43.4662H27.6432V34.7529H31.3846V43.4662ZM42.9857 44.6967V46.1179H21.0139V44.6967H42.9857ZM12.4482 20.264C12.3462 20.264 12.2916 20.202 12.2681 20.1651C12.2446 20.1281 12.2117 20.0523 12.255 19.96L13.7405 16.7909C13.9113 16.4266 14.2816 16.1911 14.684 16.1911H21.7722V20.2639L12.4482 20.264ZM16.5392 25.5673V24.1461H21.7722V25.5673H16.5392ZM16.5392 30.8707V29.4495H21.7722V30.8707H16.5392ZM16.5392 36.174V34.7529H21.7722V36.174H16.5392ZM13.8876 44.6967H19.7835V46.1179H18.7414C18.4016 46.1179 18.1262 46.3933 18.1262 46.7331V48.7695H13.8876V44.6967ZM19.3567 48.7695V47.3483H44.643V48.7695H19.3567ZM45.8734 48.7695V46.7331C45.8734 46.3933 45.5981 46.1179 45.2582 46.1179H44.2162V44.6967H50.1121V48.7695H45.8734ZM50.1121 43.4662H42.2275V41.4392C42.2275 41.0994 41.9521 40.824 41.6122 40.824C41.2724 40.824 40.997 41.0994 40.997 41.4392V43.4662H37.587V34.1376C37.587 33.7978 37.3116 33.5224 36.9717 33.5224H27.028C26.6881 33.5224 26.4127 33.7978 26.4127 34.1376V43.4662H23.0027V11.8821H40.997V38.5681C40.997 38.9079 41.2724 39.1834 41.6122 39.1834C41.9521 39.1834 42.2275 38.9079 42.2275 38.5681V37.4045H48.0756C48.4155 37.4045 48.6909 37.129 48.6909 36.7893V34.1376C48.6909 33.7978 48.4155 33.5224 48.0756 33.5224H42.2275V32.1012H48.0756C48.4155 32.1012 48.6909 31.8257 48.6909 31.486V28.8343C48.6909 28.4945 48.4155 28.2191 48.0756 28.2191H42.2275V26.7979H48.0756C48.4155 26.7979 48.6909 26.5224 48.6909 26.1826V23.531C48.6909 23.1912 48.4155 22.9157 48.0756 22.9157H42.2275V21.4941H50.1121V43.4662Z" fill="white"/>
</svg>
