<svg width="63" height="86" viewBox="0 0 63 86" fill="none" xmlns="http://www.w3.org/2000/svg">
<path d="M63 31.5C63 46.4911 52.5279 59.0363 38.5 62.2194C36.2487 62.7303 34.2506 63 31.5 63C28.7494 63 26.7513 62.7303 24.5 62.2194C10.4721 59.0363 0 46.4911 0 31.5C0 14.103 14.103 0 31.5 0C48.897 0 63 14.103 63 31.5Z" fill="#EF7F1B"/>
<path d="M38.5 62.2194C36.2487 62.7303 34.2506 63 31.5 63C28.7494 63 26.7513 62.7303 24.5 62.2194L31.5 86L38.5 62.2194Z" fill="#EF7F1B"/>
<path d="M50.6647 28.5935C50.6518 28.432 50.5762 28.2812 50.4529 28.1712C50.3297 28.0611 50.1679 28 50 28H40.4341L39.9991 19.6107C39.9906 19.446 39.9167 19.2907 39.7928 19.1771C39.6688 19.0634 39.5043 19 39.3333 19H34.6666V15.7857C34.667 14.86 34.4369 13.9478 33.9957 13.1256C33.5545 12.3035 32.9151 11.5955 32.1313 11.0611C31.3474 10.5267 30.442 10.1815 29.4911 10.0546C28.5402 9.9277 27.5716 10.0227 26.6666 10.3317C25.7617 10.0227 24.7931 9.9277 23.8422 10.0546C22.8913 10.1815 21.9859 10.5267 21.202 11.0611C20.4182 11.5955 19.7788 12.3035 19.3376 13.1256C18.8964 13.9478 18.6663 14.86 18.6667 15.7857V19H14C13.829 19 13.6645 19.0634 13.5405 19.1771C13.4166 19.2907 13.3427 19.446 13.3342 19.6107L12.0008 45.325C11.9963 45.412 12.0102 45.499 12.0416 45.5807C12.073 45.6624 12.1213 45.7371 12.1836 45.8002C12.2459 45.8633 12.3208 45.9136 12.4039 45.9479C12.4869 45.9823 12.5763 46 12.6667 46H51.3333C51.4251 46 51.516 45.9817 51.6002 45.9462C51.6844 45.9108 51.7601 45.8589 51.8225 45.7939C51.8849 45.7289 51.9327 45.6522 51.9629 45.5686C51.9931 45.4849 52.0051 45.3961 51.998 45.3078L50.6647 28.5935ZM48.6666 42.6589L50.0876 44.7143H47.246L48.6666 42.6589ZM50.4729 42.9537L49.3135 41.2767L48.07 29.2857H49.3826L50.4729 42.9537ZM46.73 29.2857L47.98 41.335L46.5166 43.4511L45.3865 29.2857H46.73ZM39.0991 28H37.8444L37.3737 20.2857H38.6987L39.0991 28ZM36.0381 20.2857L36.5087 28H35.1004L34.7004 20.2857H36.0381ZM28.6666 11.2857C29.9039 11.2871 31.0901 11.7616 31.9649 12.6052C32.8398 13.4489 33.3319 14.5927 33.3333 15.7857V19H30.6666V15.7857C30.6666 14.9238 30.4666 14.0728 30.0812 13.2951C29.6958 12.5174 29.1349 11.8327 28.4394 11.2913C28.5147 11.2878 28.5904 11.2857 28.6666 11.2857ZM26.6666 11.7208C27.464 12.0862 28.1376 12.662 28.6096 13.3814C29.0815 14.1008 29.3325 14.9344 29.3333 15.7857V19H24V15.7857C24.0008 14.9344 24.2518 14.1008 24.7237 13.3814C25.1957 12.662 25.8693 12.0862 26.6666 11.7208ZM20 15.7857C20.0014 14.5927 20.4935 13.4489 21.3684 12.6052C22.2432 11.7616 23.4294 11.2871 24.6667 11.2857C24.7429 11.2857 24.8186 11.2878 24.8939 11.2913C24.1984 11.8327 23.6374 12.5174 23.252 13.2951C22.8667 14.0728 22.6666 14.9238 22.6667 15.7857V19H20V15.7857ZM28.0493 44.7143H13.3675L14.6342 20.2857H18.6667V24.4417L16.9635 25.5366C16.8722 25.5953 16.7973 25.6748 16.7455 25.7681C16.6938 25.8614 16.6667 25.9656 16.6667 26.0714V31.2143C16.6667 31.3848 16.7369 31.5483 16.8619 31.6689C16.9869 31.7894 17.1565 31.8571 17.3333 31.8571H21.3333C21.5101 31.8571 21.6797 31.7894 21.8047 31.6689C21.9298 31.5483 22 31.3848 22 31.2143V26.0714C22 25.9656 21.9729 25.8614 21.9211 25.7681C21.8693 25.6748 21.7945 25.5953 21.7032 25.5366L20 24.4417V20.2857H29.3333V22.2143C29.3333 22.3848 29.4035 22.5483 29.5286 22.6689C29.6536 22.7894 29.8232 22.8571 30 22.8571C30.1768 22.8571 30.3464 22.7894 30.4714 22.6689C30.5964 22.5483 30.6666 22.3848 30.6666 22.2143V20.2857H33.3658L33.7658 28H30C29.832 28 29.6702 28.0611 29.547 28.1712C29.4237 28.2812 29.3481 28.432 29.3352 28.5935L28.0493 44.7143ZM19.3333 25.5584L20.6667 26.4154V30.5714H18V26.4154L19.3333 25.5584ZM30.6173 29.2857H44.0493L45.28 44.7143H29.3866L30.6173 29.2857Z" fill="white"/>
<path d="M40.6666 31.8572C40.4898 31.8572 40.3203 31.9249 40.1952 32.0455C40.0702 32.1661 40 32.3296 40 32.5001V37.6429C39.9994 38.1542 39.7885 38.6444 39.4135 39.006C39.0386 39.3676 38.5302 39.5709 38 39.5715H36.6666C36.1364 39.5709 35.628 39.3676 35.2531 39.006C34.8781 38.6444 34.6672 38.1542 34.6666 37.6429V32.5001C34.6666 32.3296 34.5964 32.1661 34.4714 32.0455C34.3464 31.9249 34.1768 31.8572 34 31.8572C33.8232 31.8572 33.6536 31.9249 33.5286 32.0455C33.4035 32.1661 33.3333 32.3296 33.3333 32.5001V37.6429C33.3343 38.4951 33.6858 39.3121 34.3107 39.9147C34.9356 40.5173 35.7829 40.8563 36.6666 40.8572H38C38.8837 40.8563 39.731 40.5173 40.3559 39.9147C40.9808 39.3121 41.3323 38.4951 41.3333 37.6429V32.5001C41.3333 32.3296 41.2631 32.1661 41.138 32.0455C41.013 31.9249 40.8434 31.8572 40.6666 31.8572Z" fill="white"/>
</svg>
