<svg width="63" height="86" viewBox="0 0 63 86" fill="none" xmlns="http://www.w3.org/2000/svg">
<path d="M63 31.5C63 46.4911 52.5279 59.0363 38.5 62.2194C36.2487 62.7303 34.2506 63 31.5 63C28.7494 63 26.7513 62.7303 24.5 62.2194C10.4721 59.0363 0 46.4911 0 31.5C0 14.103 14.103 0 31.5 0C48.897 0 63 14.103 63 31.5Z" fill="#7D71B0"/>
<path d="M38.5 62.2194C36.2487 62.7303 34.2506 63 31.5 63C28.7494 63 26.7513 62.7303 24.5 62.2194L31.5 86L38.5 62.2194Z" fill="#7D71B0"/>
<path d="M53.4277 26.7324H52.3047V22.1953C52.3047 21.1302 51.4381 20.2637 50.373 20.2637H47.498C47.2946 20.2637 47.0984 20.2957 46.9141 20.3544V20.084C46.9141 18.6226 45.7251 17.4336 44.2637 17.4336H40.6699C39.2085 17.4336 38.0195 18.6226 38.0195 20.084V28.0164H25.9805V20.084C25.9805 18.6226 24.7915 17.4336 23.3301 17.4336H19.7363C18.2749 17.4336 17.0859 18.6226 17.0859 20.084V20.3544C16.9016 20.2957 16.7054 20.2637 16.502 20.2637H13.627C12.5619 20.2637 11.6953 21.1302 11.6953 22.1953V23.0656C11.6953 23.4378 11.997 23.7395 12.3691 23.7395C12.7413 23.7395 13.043 23.4378 13.043 23.0656V22.1953C13.043 21.8733 13.305 21.6113 13.627 21.6113H16.502C16.824 21.6113 17.0859 21.8733 17.0859 22.1953V39.8047C17.0859 40.1267 16.824 40.3887 16.502 40.3887H13.627C13.305 40.3887 13.043 40.1267 13.043 39.8047V25.9489C13.043 25.5768 12.7413 25.2751 12.3691 25.2751C11.997 25.2751 11.6953 25.5768 11.6953 25.9489V26.7324H10.5723C9.70536 26.7324 9 27.4378 9 28.3047V33.6953C9 34.5622 9.70536 35.2676 10.5723 35.2676H11.6953V39.8047C11.6953 40.8698 12.5619 41.7363 13.627 41.7363H16.502C16.7054 41.7363 16.9016 41.7043 17.0859 41.6456V41.916C17.0859 43.3774 18.2749 44.5664 19.7363 44.5664H23.3301C24.7915 44.5664 25.9805 43.3774 25.9805 41.916V33.9836H26.9612C27.3333 33.9836 27.635 33.6819 27.635 33.3098C27.635 32.9377 27.3333 32.636 26.9612 32.636H25.9805V29.364H38.0195V32.636H29.8822C29.5101 32.636 29.2084 32.9377 29.2084 33.3098C29.2084 33.6819 29.5101 33.9836 29.8822 33.9836H38.0195V41.916C38.0195 43.3774 39.2085 44.5664 40.6699 44.5664H44.2637C45.7251 44.5664 46.9141 43.3774 46.9141 41.916V41.6456C47.0984 41.7043 47.2946 41.7363 47.498 41.7363H50.373C51.4381 41.7363 52.3047 40.8698 52.3047 39.8047V38.8948C52.3047 38.5226 52.003 38.2209 51.6309 38.2209C51.2587 38.2209 50.957 38.5226 50.957 38.8948V39.8047C50.957 40.1267 50.695 40.3887 50.373 40.3887H47.498C47.176 40.3887 46.9141 40.1267 46.9141 39.8047V22.1953C46.9141 21.8733 47.176 21.6113 47.498 21.6113H50.373C50.695 21.6113 50.957 21.8733 50.957 22.1953V35.9863C50.957 36.3585 51.2587 36.6602 51.6309 36.6602C52.003 36.6602 52.3047 36.3585 52.3047 35.9863V35.2676H53.4277C54.2946 35.2676 55 34.5622 55 33.6953V28.3047C55 27.4378 54.2946 26.7324 53.4277 26.7324ZM10.5723 33.9199C10.4485 33.9199 10.3477 33.8191 10.3477 33.6953V28.3047C10.3477 28.1809 10.4485 28.0801 10.5723 28.0801H11.6953V33.9199H10.5723ZM24.6328 41.916C24.6328 42.6343 24.0484 43.2188 23.3301 43.2188H19.7363C19.018 43.2188 18.4336 42.6343 18.4336 41.916V20.084C18.4336 19.3657 19.018 18.7812 19.7363 18.7812H23.3301C24.0484 18.7812 24.6328 19.3657 24.6328 20.084V41.916ZM45.5664 41.916C45.5664 42.6343 44.982 43.2188 44.2637 43.2188H40.6699C39.9516 43.2188 39.3672 42.6343 39.3672 41.916V20.084C39.3672 19.3657 39.9516 18.7812 40.6699 18.7812H44.2637C44.982 18.7812 45.5664 19.3657 45.5664 20.084V41.916ZM53.6523 33.6953C53.6523 33.8191 53.5515 33.9199 53.4277 33.9199H52.3047V28.0801H53.4277C53.5515 28.0801 53.6523 28.1809 53.6523 28.3047V33.6953Z" fill="white"/>
</svg>
