<svg width="132" height="132" viewBox="0 0 132 132" fill="none" xmlns="http://www.w3.org/2000/svg">
<g filter="url(#filter0_d)">
<circle cx="66" cy="62" r="60" fill="white"/>
</g>
<path d="M44.8081 92.6841C44.8081 91.2439 45.2889 90.0455 46.25 89.0882C47.2111 88.1313 48.4391 87.6528 49.934 87.6528C50.6174 87.6528 51.2827 87.7691 51.9298 88.0012C52.5769 88.2338 53.1328 88.5778 53.5974 89.0337L52.4901 90.8385C52.1618 90.5466 51.7772 90.3076 51.3352 90.1206C50.8931 89.9337 50.4629 89.8404 50.0434 89.8404C49.1323 89.8404 48.444 90.1118 47.9794 90.654C47.5148 91.1963 47.2822 91.8548 47.2822 92.6296C47.2822 93.4226 47.5212 94.1106 47.9995 94.694C48.4779 95.2775 49.1593 95.569 50.0429 95.569C50.9726 95.569 51.838 95.1681 52.6402 94.3658L53.8701 96.1156C52.8129 97.2094 51.501 97.7561 49.9335 97.7561C48.3842 97.7561 47.1424 97.2801 46.2088 96.3276C45.2747 95.3752 44.8076 94.1606 44.8076 92.6841H44.8081ZM58.9612 97.5922V87.8167H61.3534V97.5922H58.9612ZM69.3832 97.5922V89.8674H66.417V87.8167H74.7411V89.8674H71.7749V97.5922H69.3827H69.3832ZM81.8692 97.5922V93.5865L78.6435 87.8172H81.3634L82.4707 90.1687L83.0584 91.5771H83.0859C83.2679 91.0849 83.4642 90.6153 83.6737 90.1687L84.7672 87.8172H87.4872L84.2614 93.5865V97.5922H81.8692Z" fill="#6D6D6D"/>
<path d="M44.8081 92.6841C44.8081 91.2439 45.2889 90.0455 46.25 89.0882C47.2111 88.1313 48.4391 87.6528 49.934 87.6528C50.6174 87.6528 51.2827 87.7691 51.9298 88.0012C52.5769 88.2338 53.1328 88.5778 53.5974 89.0337L52.4901 90.8385C52.1618 90.5466 51.7772 90.3076 51.3352 90.1206C50.8931 89.9337 50.4629 89.8404 50.0434 89.8404C49.1323 89.8404 48.444 90.1118 47.9794 90.654C47.5148 91.1963 47.2822 91.8548 47.2822 92.6296C47.2822 93.4226 47.5212 94.1106 47.9995 94.694C48.4779 95.2775 49.1593 95.569 50.0429 95.569C50.9726 95.569 51.838 95.1681 52.6402 94.3658L53.8701 96.1156C52.8129 97.2094 51.501 97.7561 49.9335 97.7561C48.3842 97.7561 47.1424 97.2801 46.2088 96.3276C45.2747 95.3752 44.8076 94.1606 44.8076 92.6841H44.8081ZM58.9612 97.5922V87.8167H61.3534V97.5922H58.9612ZM69.3832 97.5922V89.8674H66.417V87.8167H74.7411V89.8674H71.7749V97.5922H69.3827H69.3832ZM81.8692 97.5922V93.5865L78.6435 87.8172H81.3634L82.4707 90.1687L83.0584 91.5771H83.0859C83.2679 91.0849 83.4642 90.6153 83.6737 90.1687L84.7672 87.8172H87.4872L84.2614 93.5865V97.5922H81.8692Z" fill="url(#paint0_linear)"/>
<path d="M32.6049 81.629H29.5303V69.03H26.1348V66.3218H36.0004V69.03H32.6049V81.629ZM47.7981 81.629H44.4482L43.7368 78.9213H39.0334L38.322 81.629H34.9952L39.5382 66.3223H43.2551L47.7981 81.629ZM43.1407 76.2131L41.3971 69.558L39.6535 76.2131H43.1412H43.1407ZM62.9226 81.629H59.8479V71.7608L56.4294 81.629H55.2132L51.8177 71.7608V81.629H48.743V66.3223H52.873L55.8328 74.8592L58.8152 66.3223H62.9221V81.629H62.9226ZM76.6474 81.629H73.2975L72.5861 78.9213H67.8827L67.1713 81.629H63.8444L68.3875 66.3223H72.1043L76.6474 81.629ZM71.99 76.2131L70.2464 69.558L68.5028 76.2131H71.9905H71.99ZM84.6595 81.629L82.3193 76.0982H80.6674V81.629H77.5928V66.3223H83.3059C84.6978 66.3223 85.8223 66.7737 86.6789 67.6761C87.5355 68.5791 87.9638 69.7415 87.9638 71.1641C87.9638 72.3727 87.7038 73.3444 87.1837 74.079C86.6637 74.8136 86.0367 75.3028 85.3022 75.5477L88.0786 81.629H84.6595ZM82.8467 73.3905C83.4433 73.3905 83.9212 73.1917 84.2808 72.7938C84.6404 72.3958 84.82 71.8683 84.82 71.2103C84.82 70.5522 84.6404 70.0247 84.2808 69.6267C83.9212 69.2288 83.4433 69.03 82.8467 69.03H80.6669V73.3905H82.8467ZM92.9464 81.629H89.8717V66.3223H92.9464V81.629ZM103.138 81.629L100.27 76.19L97.4247 81.629H93.8913L98.3657 73.8037L94.144 66.3223H97.6773L100.27 71.4399L102.863 66.3223H106.42L102.198 73.7806L106.672 81.629H103.138Z" fill="#2B2A29"/>
<path fill-rule="evenodd" clip-rule="evenodd" d="M77.1718 57.8539C74.9425 57.8539 72.7058 57.4898 70.5452 56.7522C69.7332 56.4769 68.9335 56.1467 68.148 55.7654C67.4828 55.442 66.8278 55.0818 66.1851 54.6814L66.1782 54.678L66.1714 54.6814L66.1488 54.6952L66.1262 54.6814L66.1194 54.678L66.1125 54.6814C65.4698 55.0823 64.8148 55.4425 64.1496 55.7654C63.3641 56.1467 62.5644 56.4769 61.7525 56.7522C59.5918 57.4903 57.3551 57.8539 55.1258 57.8539C46.6265 57.8539 38.6668 52.5218 35.7139 44.033C38.1728 42.4882 40.9389 41.4764 43.8197 41.0705C44.1479 41.9146 44.5718 42.898 44.8858 43.609C42.8488 43.8121 40.8913 44.3593 39.0745 45.2102C40.3967 47.8855 42.3719 50.1855 44.7936 51.9035C46.3591 51.2131 47.9938 50.7278 49.6585 50.449C50.4935 51.162 51.7112 52.087 52.6894 52.8113C51.0459 52.8486 49.3955 53.1151 47.7819 53.6146C50.1417 54.678 52.6315 55.205 55.1204 55.205C56.9121 55.205 58.7033 54.9322 60.4455 54.3894C59.764 54.0823 59.0669 53.8192 58.3589 53.6023C56.345 52.5763 53.1707 50.1575 53.1707 50.1575C53.1516 50.1575 53.1339 50.1561 53.1143 50.1561C51.9599 50.1561 50.8021 50.2532 49.658 50.449C50.8016 50.2527 51.9599 50.1561 53.1143 50.1561C53.1339 50.1561 53.1516 50.1575 53.1707 50.1575C50.987 48.4165 49.132 46.222 47.7377 43.5506C47.464 43.1094 46.7104 41.1991 46.5038 40.6691L46.4935 40.6426C45.2739 37.0393 45.0973 33.2147 45.9004 29.5952C45.9504 29.5947 45.9995 29.5947 46.0495 29.5947C49.1762 29.5947 52.2719 30.3058 55.0831 31.6719V34.682C52.9686 33.4532 50.6083 32.6553 48.1405 32.3653C47.8633 35.3385 48.3348 38.3329 49.4946 41.0661C51.4119 41.3345 53.2301 41.8483 55.0831 42.6801V45.6234C53.784 44.931 52.4638 44.428 51.1327 44.0835C52.6365 46.3099 54.6013 48.1339 56.8523 49.4652C58.2981 50.3214 59.8617 50.9731 61.4983 51.3966C61.4453 51.3186 61.3909 51.243 61.3359 51.165C60.0049 49.2689 58.3476 47.6888 56.554 46.4988V26.597L66.1488 20.5234L75.7437 26.597V46.4988C73.9505 47.6888 72.2927 49.2689 70.9617 51.165C70.9072 51.243 70.8523 51.3186 70.7993 51.3966C72.436 50.9726 73.9995 50.3214 75.4454 49.4652C77.6963 48.1339 79.6607 46.3104 81.1644 44.0835C79.8334 44.428 78.5131 44.931 77.214 45.6234V42.6801C79.0675 41.8483 80.8857 41.335 82.8025 41.0661C83.9623 38.3333 84.4338 35.3385 84.1566 32.3653C81.6889 32.6548 79.329 33.4532 77.214 34.682V31.6719C80.0257 30.3058 83.1209 29.5947 86.2476 29.5947C86.2972 29.5947 86.3472 29.5952 86.3967 29.5952C87.1999 33.2147 87.0233 37.0393 85.8036 40.6426L85.7933 40.6691C85.5868 41.1991 84.8327 43.1094 84.5594 43.5506C83.1646 46.222 81.3096 48.4165 79.1259 50.1575C79.1259 50.1575 75.9522 52.5763 73.9377 53.6023C73.2303 53.8192 72.5326 54.0823 71.8512 54.3894C73.5933 54.9322 75.3845 55.205 77.1762 55.205C79.6651 55.205 82.1549 54.678 84.5148 53.6146C82.9016 53.1146 81.2508 52.8481 79.6077 52.8113C80.5855 52.0875 81.8032 51.1625 82.6387 50.449C84.3033 50.7282 85.9375 51.2136 87.5036 51.904C89.9257 50.186 91.9009 47.8855 93.2231 45.2107C91.4064 44.3598 89.4493 43.8121 87.4118 43.6095C87.7263 42.898 88.1497 41.9146 88.4784 41.071C91.3593 41.4768 94.1253 42.4887 96.5838 44.0335C93.6308 52.5223 85.6711 57.8544 77.1718 57.8544V57.8539ZM43.8192 41.0705C44.7264 40.9415 45.6463 40.8747 46.571 40.8693C45.6458 40.8747 44.7264 40.942 43.8192 41.0705ZM88.4779 41.0705C87.5703 40.9415 86.6509 40.8743 85.7261 40.8693C86.6509 40.8747 87.5708 40.942 88.4779 41.0705ZM58.3594 53.6028C58.3511 53.5999 58.3422 53.5974 58.3334 53.595C58.3417 53.5974 58.3506 53.6004 58.3594 53.6028ZM59.2033 37.9776V45.139C61.6018 46.9802 63.5402 49.3425 64.8644 51.8623L64.704 51.1665C63.5564 46.1965 63.1644 42.9259 60.3547 39.3241L60.7359 39.7697V35.7389C61.0735 36.1085 62.7425 37.9555 63.3239 38.9664C64.6637 41.0274 65.619 43.1183 66.1454 45.3908L66.1449 45.3888L66.1454 45.3917V45.3922V45.3927V45.3932V45.3937V45.3942V45.3947V45.3952V45.3957V45.3962V45.3967V45.3971L66.1459 45.3976V45.3981V45.3986V45.3991L66.1464 45.3971L66.1468 45.3962V45.3952L66.1473 45.3942L66.1478 45.3932V45.3922L66.1483 45.3913V45.3903L66.1478 45.3927L66.1473 45.3937L66.1468 45.3952L66.1464 45.3967L66.1459 45.3981V45.3971V45.3967V45.3962V45.3957V45.3952L66.1464 45.3942L66.1468 45.3932V45.3922L66.1473 45.3913V45.3903L66.1478 45.3888V45.3883V45.3878V45.3873C66.6747 43.1163 67.6334 41.0259 68.9723 38.9659C69.5532 37.9555 71.2222 36.1085 71.5597 35.7385V39.7692L71.94 39.3241C69.1307 42.9254 68.7387 46.196 67.5912 51.1655L67.4308 51.8613C68.7549 49.3415 70.6928 46.9792 73.0919 45.1381V34.3252V28.0524L66.1464 23.6615L59.2008 28.0524V34.3252V37.9766L59.2033 37.9776ZM66.1449 45.3908V45.3913V45.3917V45.3922V45.3927V45.3932V45.3937V45.3942L66.1444 45.3917V45.3913L66.1449 45.3908ZM66.1459 45.3952V45.3957V45.3962V45.3967V45.3971V45.3976V45.3981L66.1454 45.3957V45.3952V45.3947L66.1459 45.3952ZM66.1468 45.3981V45.3986V45.3991V45.3996V45.4001V45.4006L66.1493 45.4119L66.1464 45.4006L66.1468 45.3981ZM68.9742 35.1972V30.3171L66.1488 28.5427L63.3234 30.3176V35.1972C62.7955 34.6128 61.9325 33.7265 60.6756 32.6548V28.8621C61.7858 28.156 64.3291 26.5597 66.1488 25.405C67.9685 26.5597 70.5118 28.156 71.622 28.8621V32.6548C70.3651 33.7265 69.5021 34.6128 68.9742 35.1972ZM73.0944 34.3247L72.227 35.0873C72.5101 34.8243 72.7995 34.5696 73.0944 34.3247ZM59.2033 34.3247C59.4981 34.5696 59.7876 34.8238 60.0707 35.0873L59.2033 34.3247ZM66.1468 45.3981V45.3976V45.3971V45.3967V45.3962V45.3981Z" fill="url(#paint1_linear)"/>
<path fill-rule="evenodd" clip-rule="evenodd" d="M87.4114 43.609C86.8207 43.5501 86.2227 43.5196 85.6192 43.5196C85.2675 43.5196 84.9137 43.5299 84.559 43.5506C84.8328 43.1094 85.5864 41.1991 85.7929 40.6691C85.7718 40.7363 85.7488 40.8016 85.7257 40.8688C86.6505 40.8742 87.5704 40.9414 88.4775 41.07C88.1488 41.914 87.7254 42.8974 87.4109 43.6085L87.4114 43.609ZM63.323 38.9658C62.7421 37.955 61.0726 36.1079 60.735 35.7384V39.7691L60.3538 39.3236C60.0085 38.8809 59.6268 38.4334 59.2029 37.977V34.3257L60.0703 35.0882C60.2749 35.2786 60.4765 35.4734 60.6752 35.6727V35.6202V32.6553C61.9321 33.727 62.7951 34.6132 63.323 35.1977V38.9653V38.9658ZM60.735 35.7384V35.6727L60.6752 35.6202V35.6727C60.6752 35.6727 60.6968 35.6957 60.735 35.7384ZM68.9738 38.9658V35.1981C69.5017 34.6137 70.3647 33.7275 71.6217 32.6558V35.6202L71.5618 35.6727V35.7384C71.6006 35.6957 71.6217 35.6727 71.6217 35.6727C71.8199 35.4734 72.0215 35.2786 72.2266 35.0882L73.094 34.3257V37.977C72.6696 38.4339 72.2874 38.8814 71.942 39.3241L71.5618 39.7691V35.7384C71.2243 36.1084 69.5552 37.9555 68.9743 38.9658H68.9738ZM44.8854 43.609C44.5709 42.8979 44.1476 41.914 43.8193 41.0705C44.7265 40.9414 45.6464 40.8747 46.5712 40.8693C46.5481 40.8021 46.525 40.7368 46.5039 40.6696C46.7105 41.1996 47.4641 43.1099 47.7378 43.551C47.3831 43.5304 47.0304 43.5201 46.6791 43.5201C46.6786 43.5201 46.6781 43.5201 46.6776 43.5201C46.6771 43.5201 46.6766 43.5201 46.6762 43.5201C46.0732 43.5201 45.4756 43.5506 44.8849 43.6094L44.8854 43.609ZM58.359 53.6023C58.3507 53.5994 58.3419 53.5969 58.333 53.5945C58.3026 53.5851 58.2717 53.5753 58.2408 53.5665C58.2403 53.566 58.2398 53.566 58.2388 53.566C58.2388 53.566 58.2388 53.566 58.2383 53.566C58.228 53.563 58.2172 53.5596 58.2065 53.5567C56.5516 53.0591 54.8379 52.8074 53.1149 52.8069C53.1139 52.8069 53.1129 52.8069 53.112 52.8069C53.112 52.8069 53.112 52.8069 53.1115 52.8069C52.9707 52.8069 52.8294 52.8083 52.6886 52.8118C51.7108 52.088 50.4926 51.163 49.6576 50.4495C50.8012 50.2532 51.9595 50.1565 53.1139 50.1565C53.1335 50.1565 53.1512 50.158 53.1703 50.158C53.1703 50.158 56.3441 52.5767 58.3585 53.6028L58.359 53.6023ZM73.9373 53.6023C75.9518 52.5762 79.1255 50.1575 79.1255 50.1575C79.1447 50.1575 79.1628 50.156 79.182 50.156C80.3364 50.156 81.4942 50.2532 82.6383 50.449C81.8033 51.1625 80.5851 52.0875 79.6073 52.8113C79.466 52.8078 79.3252 52.8064 79.1839 52.8064C77.4074 52.8064 75.6398 53.0738 73.9373 53.6023Z" fill="url(#paint2_linear)"/>
<defs>
<filter id="filter0_d" x="0" y="0" width="132" height="132" filterUnits="userSpaceOnUse" color-interpolation-filters="sRGB">
<feFlood flood-opacity="0" result="BackgroundImageFix"/>
<feColorMatrix in="SourceAlpha" type="matrix" values="0 0 0 0 0 0 0 0 0 0 0 0 0 0 0 0 0 0 127 0"/>
<feMorphology radius="3" operator="erode" in="SourceAlpha" result="effect1_dropShadow"/>
<feOffset dy="4"/>
<feGaussianBlur stdDeviation="4.5"/>
<feColorMatrix type="matrix" values="0 0 0 0 0 0 0 0 0 0 0 0 0 0 0 0 0 0 0.19 0"/>
<feBlend mode="normal" in2="BackgroundImageFix" result="effect1_dropShadow"/>
<feBlend mode="normal" in="SourceGraphic" in2="effect1_dropShadow" result="shape"/>
</filter>
<linearGradient id="paint0_linear" x1="63.07" y1="97.5294" x2="63.071" y2="59.1626" gradientUnits="userSpaceOnUse">
<stop stop-color="#0E8F7C"/>
<stop offset="1" stop-color="#FEFEFE"/>
</linearGradient>
<linearGradient id="paint1_linear" x1="64.1501" y1="51.1655" x2="64.1501" y2="-89.0068" gradientUnits="userSpaceOnUse">
<stop stop-color="#9664A6"/>
<stop offset="1" stop-color="#FEFEFE"/>
</linearGradient>
<linearGradient id="paint2_linear" x1="66.0189" y1="45.3868" x2="66.0189" y2="-10.577" gradientUnits="userSpaceOnUse">
<stop stop-color="#7C398B"/>
<stop offset="1" stop-color="#FEFEFE"/>
</linearGradient>
</defs>
</svg>
