<svg width="52" height="52" viewBox="0 0 52 52" fill="none" xmlns="http://www.w3.org/2000/svg">
<g filter="url(#filter0_d)">
<path d="M46 22C46 28.5438 42.8573 34.3536 37.9988 38.0023C34.6564 40.5126 30.5019 42 26 42C21.4981 42 17.3436 40.5126 14.0012 38.0023C9.14272 34.3536 6 28.5438 6 22C6 10.9543 14.9543 2 26 2C37.0457 2 46 10.9543 46 22Z" fill="white"/>
<path d="M45 22C45 28.216 42.0161 33.7347 37.3983 37.2027C34.2231 39.5874 30.278 41 26 41C21.722 41 17.7769 39.5874 14.6017 37.2027C9.9839 33.7347 7 28.216 7 22C7 11.5066 15.5066 3 26 3C36.4934 3 45 11.5066 45 22Z" stroke="#2AADB9" stroke-width="2"/>
</g>
<g clip-path="url(#clip0)">
<path d="M12.8039 30.7176L41.362 18.2612L40.5899 16.491L12.0317 28.9474L12.8039 30.7176Z" fill="#B39A7C"/>
<path d="M18.6401 26.0661L12.0313 28.9486L9.57353 23.3136C9.5134 23.1752 9.48433 23.031 9.48433 22.8894C9.48433 22.4801 9.72293 22.0895 10.1225 21.9156C10.6605 21.6809 11.2864 21.9267 11.5205 22.4646L13.0775 26.0344L15.969 24.7729C16.6221 24.4884 17.3463 24.5931 17.8823 24.9857C18.1493 25.1803 18.3698 25.4467 18.5114 25.7713L18.6401 26.0661Z" fill="#F4511E"/>
<path d="M40.5899 16.4927L33.9811 19.3752L33.8524 19.0803C33.7108 18.7551 33.6656 18.4124 33.7044 18.0846C33.782 17.425 34.1984 16.8225 34.8508 16.538L37.7417 15.2771L36.1847 11.7073C35.95 11.1694 36.1964 10.5434 36.7337 10.3088C36.8721 10.2486 37.0156 10.2202 37.1579 10.2202C37.5671 10.2202 37.9577 10.4582 38.1323 10.8578L40.5899 16.4927Z" fill="#F4511E"/>
<path d="M30.977 22.7922L21.9577 26.726V24.6188L30.3349 20.9648C30.6718 21.5086 30.8968 22.1281 30.977 22.7922Z" fill="#A78966"/>
<path d="M29.7168 23.3394V30.3873H23.2508V23.3394C23.2508 21.5535 24.6986 20.1064 26.4838 20.1064C28.269 20.1064 29.7168 21.5535 29.7168 23.3394Z" fill="#B39A7C"/>
<path d="M29.7168 29.0947H23.2508V30.3879H29.7168V29.0947Z" fill="#A78966"/>
<path d="M31.0099 30.3877H21.9577V32.7801H31.0099V30.3877Z" fill="#B0BEC5"/>
<path d="M26.4838 24.7944C27.198 24.7944 27.777 24.2154 27.777 23.5012C27.777 22.787 27.198 22.208 26.4838 22.208C25.7696 22.208 25.1906 22.787 25.1906 23.5012C25.1906 24.2154 25.7696 24.7944 26.4838 24.7944Z" fill="#B0BEC5"/>
<path d="M26.4838 23.6043C26.9407 23.6043 27.3412 23.8418 27.5713 24.1994C27.7009 23.9979 27.777 23.7586 27.777 23.5012C27.777 22.787 27.198 22.208 26.4838 22.208C25.7696 22.208 25.1906 22.787 25.1906 23.5012C25.1906 23.7586 25.2667 23.9979 25.3963 24.1994C25.6264 23.8418 26.027 23.6043 26.4838 23.6043Z" fill="#90A4AE"/>
<path d="M18.5113 25.7705L18.64 26.0654L12.0312 28.9478L11.5139 27.762L17.8822 24.9849C18.1492 25.1795 18.3697 25.4459 18.5113 25.7705Z" fill="#D84315"/>
<path d="M40.5898 16.4923L33.981 19.3748L33.8524 19.08C33.7108 18.7547 33.6655 18.412 33.7043 18.0842L40.0726 15.3071L40.5898 16.4923Z" fill="#D84315"/>
<path d="M31.4949 29.9026H30.2017V23.6573L42 18.5136L38.5764 10.6639C38.2354 9.88196 37.3218 9.52334 36.5398 9.8643C36.161 10.0295 35.8693 10.3323 35.7182 10.717C35.5672 11.1017 35.575 11.5222 35.7402 11.901L37.1033 15.0262L34.6565 16.0933C34.065 16.3513 33.6093 16.8242 33.3734 17.425C33.1576 17.9748 33.1502 18.5713 33.3482 19.122L29.2818 20.8955C28.5998 20.1157 27.5987 19.6217 26.4838 19.6217C24.4337 19.6217 22.7659 21.2895 22.7659 23.3396V23.7375L18.8848 25.4303C18.3052 24.3124 16.9458 23.8179 15.775 24.3287L13.3282 25.3958L11.9651 22.2706C11.7999 21.8918 11.4971 21.6 11.1124 21.449C10.7278 21.298 10.3073 21.3057 9.92855 21.471C9.14661 21.8119 8.78792 22.7255 9.12895 23.5074L12.5526 31.357L22.7659 26.9025V29.9025H21.4727V32.2949H19.4683V33.2648H33.4993V32.2949H31.4948V29.9026H31.4949ZM34.2763 17.7795C34.4175 17.4199 34.6902 17.1368 35.0443 16.9824L38.3801 15.5275L36.6292 11.5132C36.5675 11.3719 36.5646 11.215 36.621 11.0715C36.6774 10.928 36.7862 10.815 36.9275 10.7534C37.0025 10.7207 37.0805 10.7053 37.1575 10.7053C37.3802 10.7053 37.5928 10.8348 37.6873 11.0517L39.9511 16.2422L34.2399 18.7331C34.1433 18.4211 34.1552 18.0879 34.2763 17.7795ZM10.3163 22.3598C10.3904 22.3275 10.4685 22.3114 10.5468 22.3114C10.6183 22.3114 10.6896 22.3248 10.7579 22.3516C10.9015 22.408 11.0145 22.5168 11.0761 22.6582L12.827 26.6724L16.1627 25.2175C16.8433 24.9207 17.6303 25.1908 17.993 25.8192L12.2819 28.3101L10.018 23.1197C9.89078 22.828 10.0246 22.4872 10.3163 22.3598ZM40.339 17.1311L40.7232 18.0122L30.1328 22.6293C30.0704 22.3083 29.967 22.0017 29.8276 21.7157L40.339 17.1311ZM13.0539 30.0803L12.6696 29.1991L19.2782 26.3169L22.7659 24.7957V25.8445L13.0539 30.0803ZM23.7358 23.3397C23.7358 21.8244 24.9685 20.5917 26.4838 20.5917C27.9991 20.5917 29.2318 21.8244 29.2318 23.3397V29.9026H23.7358V23.3397V23.3397ZM22.4426 32.295V30.8725H30.5249V32.295H22.4426Z" fill="black"/>
<path d="M26.4838 21.7231C25.5034 21.7231 24.7057 22.5208 24.7057 23.5013C24.7057 24.4818 25.5033 25.2794 26.4838 25.2794C27.4643 25.2794 28.2619 24.4818 28.2619 23.5013C28.2619 22.5208 27.4643 21.7231 26.4838 21.7231ZM26.4838 24.3095C26.0381 24.3095 25.6756 23.947 25.6756 23.5013C25.6756 23.0556 26.0381 22.693 26.4838 22.693C26.9295 22.693 27.292 23.0556 27.292 23.5013C27.292 23.947 26.9295 24.3095 26.4838 24.3095Z" fill="black"/>
<path d="M18.4984 32.2944H17.5285V33.2643H18.4984V32.2944Z" fill="black"/>
<path d="M35.4391 32.2944H34.4692V33.2643H35.4391V32.2944Z" fill="black"/>
<path d="M25.7403 26.1265H24.7704V28.8421H25.7403V26.1265Z" fill="white"/>
</g>
<defs>
<filter id="filter0_d" x="0" y="0" width="52" height="52" filterUnits="userSpaceOnUse" color-interpolation-filters="sRGB">
<feFlood flood-opacity="0" result="BackgroundImageFix"/>
<feColorMatrix in="SourceAlpha" type="matrix" values="0 0 0 0 0 0 0 0 0 0 0 0 0 0 0 0 0 0 127 0"/>
<feOffset dy="4"/>
<feGaussianBlur stdDeviation="3"/>
<feColorMatrix type="matrix" values="0 0 0 0 0 0 0 0 0 0 0 0 0 0 0 0 0 0 0.25 0"/>
<feBlend mode="normal" in2="BackgroundImageFix" result="effect1_dropShadow"/>
<feBlend mode="normal" in="SourceGraphic" in2="effect1_dropShadow" result="shape"/>
</filter>
<clipPath id="clip0">
<rect width="33" height="33" fill="white" transform="translate(9 5)"/>
</clipPath>
</defs>
</svg>
