<svg width="52" height="52" viewBox="0 0 52 52" fill="none" xmlns="http://www.w3.org/2000/svg">
<g filter="url(#filter0_d)">
<path d="M46 22C46 28.5438 42.8573 34.3536 37.9988 38.0023C34.6564 40.5126 30.5019 42 26 42C21.4981 42 17.3436 40.5126 14.0012 38.0023C9.14272 34.3536 6 28.5438 6 22C6 10.9543 14.9543 2 26 2C37.0457 2 46 10.9543 46 22Z" fill="white"/>
<path d="M45 22C45 28.216 42.0161 33.7347 37.3983 37.2027C34.2231 39.5874 30.278 41 26 41C21.722 41 17.7769 39.5874 14.6017 37.2027C9.9839 33.7347 7 28.216 7 22C7 11.5066 15.5066 3 26 3C36.4934 3 45 11.5066 45 22Z" stroke="#2AADB9" stroke-width="2"/>
</g>
<g clip-path="url(#clip0)">
<path d="M40.4361 24.0634C40.4298 24.0696 40.4563 24.0634 40.3566 24.0634C39.306 24.0634 38.5797 25.0377 38.9459 25.9456C38.7696 26.1314 39.5305 25.3708 26.6615 38.1724C26.295 38.5364 25.7056 38.5371 25.3384 38.1724C12.4733 25.374 13.2321 26.1333 13.054 25.9456C13.4347 25.0017 12.6389 24.0129 11.5652 24.0653C11.5645 24.0646 11.5645 24.064 11.5639 24.0634C10.4989 22.3994 9.96434 20.5941 10.0019 18.7413C10.1472 11.4691 19.0213 6.10709 26 12.2111C32.9748 6.11047 41.8527 11.4653 41.9982 18.7413C42.0357 20.5941 41.501 22.3994 40.4361 24.0634V24.0634Z" fill="#FF405C"/>
<path d="M40.4361 24.0637C40.4298 24.07 40.4563 24.0637 40.3567 24.0637C39.306 24.0637 38.5798 25.038 38.9459 25.9459C38.7696 26.1318 39.5306 25.3711 26.6615 38.1728C26.4783 38.3547 26.2395 38.446 26 38.446V12.2114C30.3443 8.41159 35.7647 8.8969 39.2173 12.3484C42.2875 15.4185 42.9951 20.0652 40.4361 24.0637V24.0637Z" fill="#C30047"/>
<path d="M40.4361 24.0637C40.0215 24.7121 39.5262 25.3393 38.9522 25.9396H32.0031C31.6579 25.9396 31.3409 25.7501 31.177 25.4462L28.5551 20.5762L24.8469 28.4046C24.533 29.0674 23.6049 29.1322 23.208 28.5065L20.521 24.2844L19.8006 25.4843C19.6312 25.767 19.326 25.9395 18.9965 25.9395H13.0478C12.4738 25.3392 11.9785 24.712 11.5639 24.0636H18.4656L19.6931 22.0175C20.048 21.4246 20.9111 21.4034 21.2883 21.9969L23.8783 26.0665L27.6534 18.0968C27.9839 17.4019 28.9625 17.3782 29.3274 18.0536L32.5634 24.0636H40.4361V24.0637Z" fill="#E1F3FF"/>
<path d="M29.3273 18.0535C28.9632 17.3795 27.9844 17.4006 27.6534 18.0967L26 21.5871V25.9701L28.5551 20.5761L31.177 25.446C31.3409 25.7499 31.6579 25.9394 32.0031 25.9394H38.9522C39.5263 25.3391 40.0215 24.7119 40.4361 24.0635H32.5634L29.3273 18.0535Z" fill="#B1D5F1"/>
</g>
<defs>
<filter id="filter0_d" x="0" y="0" width="52" height="52" filterUnits="userSpaceOnUse" color-interpolation-filters="sRGB">
<feFlood flood-opacity="0" result="BackgroundImageFix"/>
<feColorMatrix in="SourceAlpha" type="matrix" values="0 0 0 0 0 0 0 0 0 0 0 0 0 0 0 0 0 0 127 0"/>
<feOffset dy="4"/>
<feGaussianBlur stdDeviation="3"/>
<feColorMatrix type="matrix" values="0 0 0 0 0 0 0 0 0 0 0 0 0 0 0 0 0 0 0.25 0"/>
<feBlend mode="normal" in2="BackgroundImageFix" result="effect1_dropShadow"/>
<feBlend mode="normal" in="SourceGraphic" in2="effect1_dropShadow" result="shape"/>
</filter>
<clipPath id="clip0">
<rect width="32" height="32" fill="white" transform="translate(10 8)"/>
</clipPath>
</defs>
</svg>
