<svg width="52" height="52" viewBox="0 0 52 52" fill="none" xmlns="http://www.w3.org/2000/svg">
<g filter="url(#filter0_d)">
<path d="M46 22C46 28.5438 42.8573 34.3536 37.9988 38.0023C34.6564 40.5126 30.5019 42 26 42C21.4981 42 17.3436 40.5126 14.0012 38.0023C9.14272 34.3536 6 28.5438 6 22C6 10.9543 14.9543 2 26 2C37.0457 2 46 10.9543 46 22Z" fill="white"/>
<path d="M45 22C45 28.216 42.0161 33.7347 37.3983 37.2027C34.2231 39.5874 30.278 41 26 41C21.722 41 17.7769 39.5874 14.6017 37.2027C9.9839 33.7347 7 28.216 7 22C7 11.5066 15.5066 3 26 3C36.4934 3 45 11.5066 45 22Z" stroke="#2AADB9" stroke-width="2"/>
</g>
<path d="M36.957 19.2627V26.9923C36.957 30.2197 31.319 31.9727 26 31.9727C20.681 31.9727 15.043 30.2197 15.043 26.9923V19.2627C15.043 18.7247 15.4811 18.2666 16.0391 18.2666H35.9609C36.5189 18.2666 36.957 18.7247 36.957 19.2627Z" fill="#444444"/>
<path d="M36.957 19.2627V26.9923C36.957 30.2197 31.319 31.9727 26 31.9727V18.2666H35.9609C36.5189 18.2666 36.957 18.7247 36.957 19.2627Z" fill="#292929"/>
<path d="M43 17.0312C43 17.4497 42.7411 17.8281 42.3624 17.9674L26.3585 23.944C26.2392 23.9839 26.1196 24.0039 26 24.0039C25.8804 24.0039 25.7608 23.9839 25.6415 23.944L9.6376 17.9674V16.0948L25.6415 10.1183C25.7608 10.0786 25.8804 10.0586 26 10.0586C26.1196 10.0586 26.2392 10.0786 26.3585 10.1183L42.3624 16.0948C42.7411 16.2344 43 16.6128 43 17.0312Z" fill="#6E6E6E"/>
<path d="M43 17.0312C43 17.4497 42.7411 17.8281 42.3624 17.9674L26.3585 23.944C26.2392 23.9839 26.1196 24.0039 26 24.0039V10.0586C26.1196 10.0586 26.2392 10.0786 26.3585 10.1183L42.3624 16.0948C42.7411 16.2344 43 16.6128 43 17.0312Z" fill="#5A5A5A"/>
<path d="M26.9961 17.0312C26.9961 17.589 26.558 18.0273 26 18.0273H10.9922V32.8092L12.9245 38.6265C13.104 39.1443 12.8248 39.7222 12.3071 39.8815C11.7691 40.061 11.2114 39.7819 11.0521 39.2639L10.9922 39.0849C10.9126 39.5629 10.4941 39.9414 9.99609 39.9414C9.43813 39.9414 9 39.503 9 38.9453V17.0312C9 16.4733 9.43813 16.0352 9.99609 16.0352H26C26.558 16.0352 26.9961 16.4733 26.9961 17.0312Z" fill="#FDBF00"/>
<defs>
<filter id="filter0_d" x="0" y="0" width="52" height="52" filterUnits="userSpaceOnUse" color-interpolation-filters="sRGB">
<feFlood flood-opacity="0" result="BackgroundImageFix"/>
<feColorMatrix in="SourceAlpha" type="matrix" values="0 0 0 0 0 0 0 0 0 0 0 0 0 0 0 0 0 0 127 0"/>
<feOffset dy="4"/>
<feGaussianBlur stdDeviation="3"/>
<feColorMatrix type="matrix" values="0 0 0 0 0 0 0 0 0 0 0 0 0 0 0 0 0 0 0.25 0"/>
<feBlend mode="normal" in2="BackgroundImageFix" result="effect1_dropShadow"/>
<feBlend mode="normal" in="SourceGraphic" in2="effect1_dropShadow" result="shape"/>
</filter>
</defs>
</svg>
