<svg width="52" height="52" viewBox="0 0 52 52" fill="none" xmlns="http://www.w3.org/2000/svg">
<g filter="url(#filter0_d)">
<path d="M46 22C46 28.5438 42.8573 34.3536 37.9988 38.0023C34.6564 40.5126 30.5019 42 26 42C21.4981 42 17.3436 40.5126 14.0012 38.0023C9.14272 34.3536 6 28.5438 6 22C6 10.9543 14.9543 2 26 2C37.0457 2 46 10.9543 46 22Z" fill="white"/>
<path d="M45 22C45 28.216 42.0161 33.7347 37.3983 37.2027C34.2231 39.5874 30.278 41 26 41C21.722 41 17.7769 39.5874 14.6017 37.2027C9.9839 33.7347 7 28.216 7 22C7 11.5066 15.5066 3 26 3C36.4934 3 45 11.5066 45 22Z" stroke="#2AADB9" stroke-width="2"/>
</g>
<path d="M35.1098 33.8682H16.89C16.0964 33.8682 15.453 34.5115 15.453 35.3052V35.3054C15.453 36.099 16.0964 36.7424 16.89 36.7424H35.1098C35.9034 36.7424 36.5468 36.099 36.5468 35.3054V35.3052C36.5468 34.5115 35.9034 33.8682 35.1098 33.8682Z" fill="#2D3C6B"/>
<path d="M33.875 33.8677H18.125L21.643 27.2417H30.357L33.875 33.8677Z" fill="#FFC839"/>
<path d="M21.4513 31.8677L22.8455 29.2417H29.1545L30.5488 31.8677H21.4513Z" fill="#FF9100"/>
<path d="M18.289 9.25684V19.2791C18.2897 20.4395 18.6011 21.5786 19.1909 22.578C19.7807 23.5773 20.6274 24.4005 21.643 24.9618H30.357C31.3727 24.4005 32.2194 23.5773 32.8092 22.578C33.399 21.5786 33.7104 20.4395 33.711 19.2791V9.25684H18.289Z" fill="#FFC839"/>
<path d="M24.0045 17.1094L22.5435 15.1139L25.0023 15.3812L26 13.1182L26.9978 15.3812L29.4565 15.1139L27.9955 17.1094L29.4565 19.1049L26.9978 18.8377L26 21.1007L25.0023 18.8377L22.5435 19.1049L24.0045 17.1094Z" fill="#FCF9F0"/>
<path d="M21.6431 24.9624H30.3573V27.2426H21.6431V24.9624Z" fill="#FF9100"/>
<path d="M38.0618 11.1182H33.7118V13.1182H38.0618C38.4595 13.1186 38.8407 13.2768 39.1219 13.558C39.4031 13.8392 39.5613 14.2205 39.5618 14.6182V17.8017C39.5626 18.1392 39.4492 18.4671 39.2401 18.7321C39.0309 18.997 38.7383 19.1834 38.4098 19.2609L33.6098 20.4062C33.469 21.2065 33.1789 21.9732 32.7545 22.6662L38.8748 21.2062C39.6413 21.0254 40.3241 20.5906 40.8121 19.9724C41.3001 19.3543 41.5646 18.5892 41.5625 17.8017V14.6182C41.5615 13.6901 41.1923 12.8004 40.536 12.1442C39.8796 11.488 38.9898 11.119 38.0618 11.1182V11.1182Z" fill="#FF9100"/>
<path d="M13.9383 11.1182H18.2883V13.1182H13.9383C13.5406 13.1186 13.1593 13.2768 12.8781 13.558C12.5969 13.8392 12.4387 14.2205 12.4383 14.6182V17.8017C12.4374 18.1392 12.5508 18.4671 12.76 18.7321C12.9691 18.997 13.2618 19.1834 13.5903 19.2609L18.3903 20.4062C18.5309 21.2065 18.8211 21.9732 19.2455 22.6662L13.125 21.2062C12.3587 21.0252 11.6761 20.5903 11.1883 19.9722C10.7005 19.354 10.4362 18.5891 10.4383 17.8017V14.6182C10.4393 13.6902 10.8084 12.8006 11.4646 12.1445C12.1207 11.4883 13.0103 11.1192 13.9383 11.1182V11.1182Z" fill="#FF9100"/>
<defs>
<filter id="filter0_d" x="0" y="0" width="52" height="52" filterUnits="userSpaceOnUse" color-interpolation-filters="sRGB">
<feFlood flood-opacity="0" result="BackgroundImageFix"/>
<feColorMatrix in="SourceAlpha" type="matrix" values="0 0 0 0 0 0 0 0 0 0 0 0 0 0 0 0 0 0 127 0"/>
<feOffset dy="4"/>
<feGaussianBlur stdDeviation="3"/>
<feColorMatrix type="matrix" values="0 0 0 0 0 0 0 0 0 0 0 0 0 0 0 0 0 0 0.25 0"/>
<feBlend mode="normal" in2="BackgroundImageFix" result="effect1_dropShadow"/>
<feBlend mode="normal" in="SourceGraphic" in2="effect1_dropShadow" result="shape"/>
</filter>
</defs>
</svg>
